G04 Layer: TopSolderMaskLayer*
G04 EasyEDA v6.4.17, 2021-03-03T10:10:01+01:00*
G04 9d4de0552c0a465fbb9a068f9b96be7d,b771c775d4444e86a06a5321f8c966cb,10*
G04 Gerber Generator version 0.2*
G04 Scale: 100 percent, Rotated: No, Reflected: No *
G04 Dimensions in inches *
G04 leading zeros omitted , absolute positions ,3 integer and 6 decimal *
%FSLAX36Y36*%
%MOIN*%

%ADD53C,0.0552*%
%ADD78C,0.0946*%
%ADD80C,0.0710*%

%LPD*%
D53*
X2239373Y-828400D02*
G01*
X2255126Y-828400D01*
X2239373Y-631599D02*
G01*
X2255126Y-631599D01*
X2338968Y-592199D02*
G01*
X2366531Y-592199D01*
X2338968Y-867800D02*
G01*
X2366531Y-867800D01*
G36*
X1875799Y-168800D02*
G01*
X1875799Y-131199D01*
X1974300Y-131199D01*
X1974300Y-168800D01*
G37*
G36*
X1718299Y-168800D02*
G01*
X1718299Y-131199D01*
X1816899Y-131199D01*
X1816899Y-168800D01*
G37*
G36*
X1875799Y-118800D02*
G01*
X1875799Y-81199D01*
X1974300Y-81199D01*
X1974300Y-118800D01*
G37*
G36*
X1718299Y-118800D02*
G01*
X1718299Y-81199D01*
X1816899Y-81199D01*
X1816899Y-118800D01*
G37*
G36*
X1875799Y-68800D02*
G01*
X1875799Y-31199D01*
X1974300Y-31199D01*
X1974300Y-68800D01*
G37*
G36*
X1718299Y-68800D02*
G01*
X1718299Y-31199D01*
X1816899Y-31199D01*
X1816899Y-68800D01*
G37*
G36*
X1875799Y-18800D02*
G01*
X1875799Y18800D01*
X1974300Y18800D01*
X1974300Y-18800D01*
G37*
G36*
X1718299Y-18800D02*
G01*
X1718299Y18800D01*
X1816899Y18800D01*
X1816899Y-18800D01*
G37*
G36*
X1875799Y31199D02*
G01*
X1875799Y68800D01*
X1974300Y68800D01*
X1974300Y31199D01*
G37*
G36*
X1718299Y31199D02*
G01*
X1718299Y68800D01*
X1816899Y68800D01*
X1816899Y31199D01*
G37*
G36*
X2041499Y-734699D02*
G01*
X2041499Y-695300D01*
X2069200Y-695300D01*
X2069200Y-734699D01*
G37*
G36*
X2080799Y-734699D02*
G01*
X2080799Y-695300D01*
X2108500Y-695300D01*
X2108500Y-734699D01*
G37*
G36*
X2041499Y-789699D02*
G01*
X2041499Y-750300D01*
X2069200Y-750300D01*
X2069200Y-789699D01*
G37*
G36*
X2080799Y-789699D02*
G01*
X2080799Y-750300D01*
X2108500Y-750300D01*
X2108500Y-789699D01*
G37*
G36*
X1137100Y-529400D02*
G01*
X1137100Y-450599D01*
X1184499Y-450599D01*
X1184499Y-529400D01*
G37*
G36*
X1235500Y-529400D02*
G01*
X1235500Y-450599D01*
X1282899Y-450599D01*
X1282899Y-529400D01*
G37*
G36*
X2096499Y-914699D02*
G01*
X2096499Y-875300D01*
X2124200Y-875300D01*
X2124200Y-914699D01*
G37*
G36*
X2135799Y-914699D02*
G01*
X2135799Y-875300D01*
X2163500Y-875300D01*
X2163500Y-914699D01*
G37*
G36*
X1735299Y-1009200D02*
G01*
X1735299Y-981500D01*
X1774700Y-981500D01*
X1774700Y-1009200D01*
G37*
G36*
X1735299Y-1048499D02*
G01*
X1735299Y-1020799D01*
X1774700Y-1020799D01*
X1774700Y-1048499D01*
G37*
G36*
X1735299Y-1094200D02*
G01*
X1735299Y-1066500D01*
X1774700Y-1066500D01*
X1774700Y-1094200D01*
G37*
G36*
X1735299Y-1133499D02*
G01*
X1735299Y-1105799D01*
X1774700Y-1105799D01*
X1774700Y-1133499D01*
G37*
G36*
X1805799Y-1344499D02*
G01*
X1805799Y-1305000D01*
X1833500Y-1305000D01*
X1833500Y-1344499D01*
G37*
G36*
X1766499Y-1344499D02*
G01*
X1766499Y-1305000D01*
X1794200Y-1305000D01*
X1794200Y-1344499D01*
G37*
G36*
X2018199Y-1118400D02*
G01*
X2018199Y-1031599D01*
X2097100Y-1031599D01*
X2097100Y-1118400D01*
G37*
G36*
X1852899Y-1118400D02*
G01*
X1852899Y-1031599D01*
X1931800Y-1031599D01*
X1931800Y-1118400D01*
G37*
G36*
X1931800Y-1240300D02*
G01*
X1931800Y-1181199D01*
X1963400Y-1181199D01*
X1963400Y-1240300D01*
G37*
G36*
X1969200Y-1334800D02*
G01*
X1969200Y-1275700D01*
X2000799Y-1275700D01*
X2000799Y-1334800D01*
G37*
G36*
X2006599Y-1240300D02*
G01*
X2006599Y-1181199D01*
X2038199Y-1181199D01*
X2038199Y-1240300D01*
G37*
G36*
X1821599Y-1296799D02*
G01*
X1821599Y-1237699D01*
X1853199Y-1237699D01*
X1853199Y-1296799D01*
G37*
G36*
X1784200Y-1202300D02*
G01*
X1784200Y-1143200D01*
X1815799Y-1143200D01*
X1815799Y-1202300D01*
G37*
G36*
X1746800Y-1296799D02*
G01*
X1746800Y-1237699D01*
X1778400Y-1237699D01*
X1778400Y-1296799D01*
G37*
G36*
X1935799Y-999699D02*
G01*
X1935799Y-960199D01*
X1963500Y-960199D01*
X1963500Y-999699D01*
G37*
G36*
X1896499Y-999699D02*
G01*
X1896499Y-960199D01*
X1924200Y-960199D01*
X1924200Y-999699D01*
G37*
G36*
X1814700Y-752300D02*
G01*
X1814700Y-657699D01*
X1881800Y-657699D01*
X1881800Y-752300D01*
G37*
G36*
X1598199Y-752300D02*
G01*
X1598199Y-657699D01*
X1665299Y-657699D01*
X1665299Y-752300D01*
G37*
G36*
X2331499Y-1006999D02*
G01*
X2331499Y-955999D01*
X2378500Y-955999D01*
X2378500Y-1006999D01*
G37*
G36*
X2331499Y-1074000D02*
G01*
X2331499Y-1023000D01*
X2378500Y-1023000D01*
X2378500Y-1074000D01*
G37*
G36*
X2275399Y-1212399D02*
G01*
X2275399Y-1182800D01*
X2322700Y-1182800D01*
X2322700Y-1212399D01*
G37*
G36*
X2275399Y-1287199D02*
G01*
X2275399Y-1257600D01*
X2322700Y-1257600D01*
X2322700Y-1287199D01*
G37*
G36*
X2157299Y-1287199D02*
G01*
X2157299Y-1257600D01*
X2204600Y-1257600D01*
X2204600Y-1287199D01*
G37*
G36*
X2157299Y-1249800D02*
G01*
X2157299Y-1220199D01*
X2204600Y-1220199D01*
X2204600Y-1249800D01*
G37*
G36*
X2157299Y-1212399D02*
G01*
X2157299Y-1182800D01*
X2204600Y-1182800D01*
X2204600Y-1212399D01*
G37*
G36*
X2215799Y-1149699D02*
G01*
X2215799Y-1110300D01*
X2243500Y-1110300D01*
X2243500Y-1149699D01*
G37*
G36*
X2176499Y-1149699D02*
G01*
X2176499Y-1110300D01*
X2204200Y-1110300D01*
X2204200Y-1149699D01*
G37*
G36*
X2069200Y-515399D02*
G01*
X2069200Y-452300D01*
X2112700Y-452300D01*
X2112700Y-515399D01*
G37*
G36*
X2069200Y-247699D02*
G01*
X2069200Y-184600D01*
X2112700Y-184600D01*
X2112700Y-247699D01*
G37*
G36*
X2187299Y-515399D02*
G01*
X2187299Y-452300D01*
X2230799Y-452300D01*
X2230799Y-515399D01*
G37*
G36*
X2187299Y-247699D02*
G01*
X2187299Y-184600D01*
X2230799Y-184600D01*
X2230799Y-247699D01*
G37*
G36*
X2069200Y-165399D02*
G01*
X2069200Y-102300D01*
X2112700Y-102300D01*
X2112700Y-165399D01*
G37*
G36*
X2069200Y102300D02*
G01*
X2069200Y165399D01*
X2112700Y165399D01*
X2112700Y102300D01*
G37*
G36*
X2187299Y-165399D02*
G01*
X2187299Y-102300D01*
X2230799Y-102300D01*
X2230799Y-165399D01*
G37*
G36*
X2187299Y102300D02*
G01*
X2187299Y165399D01*
X2230799Y165399D01*
X2230799Y102300D01*
G37*
G36*
X1897799Y-824600D02*
G01*
X1897799Y-777300D01*
X1927399Y-777300D01*
X1927399Y-824600D01*
G37*
G36*
X1972600Y-824600D02*
G01*
X1972600Y-777300D01*
X2002200Y-777300D01*
X2002200Y-824600D01*
G37*
G36*
X1972600Y-942699D02*
G01*
X1972600Y-895399D01*
X2002200Y-895399D01*
X2002200Y-942699D01*
G37*
G36*
X1935200Y-942699D02*
G01*
X1935200Y-895399D01*
X1964799Y-895399D01*
X1964799Y-942699D01*
G37*
G36*
X1897799Y-942699D02*
G01*
X1897799Y-895399D01*
X1927399Y-895399D01*
X1927399Y-942699D01*
G37*
G36*
X1240299Y-623499D02*
G01*
X1240299Y-595799D01*
X1279799Y-595799D01*
X1279799Y-623499D01*
G37*
G36*
X1240299Y-584200D02*
G01*
X1240299Y-556500D01*
X1279799Y-556500D01*
X1279799Y-584200D01*
G37*
G36*
X1140299Y-623499D02*
G01*
X1140299Y-595799D01*
X1179799Y-595799D01*
X1179799Y-623499D01*
G37*
G36*
X1140299Y-584200D02*
G01*
X1140299Y-556500D01*
X1179799Y-556500D01*
X1179799Y-584200D01*
G37*
G36*
X1440299Y-323299D02*
G01*
X1440299Y-268000D01*
X1479799Y-268000D01*
X1479799Y-323299D01*
G37*
G36*
X1390299Y-323299D02*
G01*
X1390299Y-268000D01*
X1429799Y-268000D01*
X1429799Y-323299D01*
G37*
G36*
X1340299Y-323299D02*
G01*
X1340299Y-268000D01*
X1379799Y-268000D01*
X1379799Y-323299D01*
G37*
G36*
X1290299Y-323299D02*
G01*
X1290299Y-268000D01*
X1329799Y-268000D01*
X1329799Y-323299D01*
G37*
G36*
X1240299Y-323299D02*
G01*
X1240299Y-268000D01*
X1279799Y-268000D01*
X1279799Y-323299D01*
G37*
G36*
X1190299Y-323299D02*
G01*
X1190299Y-268000D01*
X1229799Y-268000D01*
X1229799Y-323299D01*
G37*
G36*
X1490299Y-323299D02*
G01*
X1490299Y-268000D01*
X1529799Y-268000D01*
X1529799Y-323299D01*
G37*
G36*
X1497700Y-128600D02*
G01*
X1497700Y-89099D01*
X1553000Y-89099D01*
X1553000Y-128600D01*
G37*
G36*
X1497700Y-78600D02*
G01*
X1497700Y-39099D01*
X1553000Y-39099D01*
X1553000Y-78600D01*
G37*
G36*
X1497700Y-28600D02*
G01*
X1497700Y10900D01*
X1553000Y10900D01*
X1553000Y-28600D01*
G37*
G36*
X1497700Y21399D02*
G01*
X1497700Y60900D01*
X1553000Y60900D01*
X1553000Y21399D01*
G37*
G36*
X1497700Y71399D02*
G01*
X1497700Y110900D01*
X1553000Y110900D01*
X1553000Y71399D01*
G37*
G36*
X1497700Y121399D02*
G01*
X1497700Y160900D01*
X1553000Y160900D01*
X1553000Y121399D01*
G37*
G36*
X1497700Y-178600D02*
G01*
X1497700Y-139099D01*
X1553000Y-139099D01*
X1553000Y-178600D01*
G37*
G36*
X1497700Y-228600D02*
G01*
X1497700Y-189099D01*
X1553000Y-189099D01*
X1553000Y-228600D01*
G37*
G36*
X1060699Y-253600D02*
G01*
X1060699Y-214099D01*
X1147500Y-214099D01*
X1147500Y-253600D01*
G37*
G36*
X1060699Y-303600D02*
G01*
X1060699Y-264099D01*
X1147500Y-264099D01*
X1147500Y-303600D01*
G37*
G36*
X1060699Y-203600D02*
G01*
X1060699Y-164099D01*
X1147500Y-164099D01*
X1147500Y-203600D01*
G37*
G36*
X1060699Y-153600D02*
G01*
X1060699Y-114099D01*
X1147500Y-114099D01*
X1147500Y-153600D01*
G37*
G36*
X1060699Y-103600D02*
G01*
X1060699Y-64099D01*
X1147500Y-64099D01*
X1147500Y-103600D01*
G37*
G36*
X1060699Y-53600D02*
G01*
X1060699Y-14099D01*
X1147500Y-14099D01*
X1147500Y-53600D01*
G37*
G36*
X1060699Y-3600D02*
G01*
X1060699Y35900D01*
X1147500Y35900D01*
X1147500Y-3600D01*
G37*
G36*
X1060699Y46399D02*
G01*
X1060699Y85900D01*
X1147500Y85900D01*
X1147500Y46399D01*
G37*
G36*
X1060699Y96399D02*
G01*
X1060699Y135900D01*
X1147500Y135900D01*
X1147500Y96399D01*
G37*
G36*
X1060699Y146399D02*
G01*
X1060699Y185900D01*
X1147500Y185900D01*
X1147500Y146399D01*
G37*
G36*
X1572500Y96399D02*
G01*
X1572500Y135900D01*
X1659300Y135900D01*
X1659300Y96399D01*
G37*
G36*
X1572500Y146399D02*
G01*
X1572500Y185900D01*
X1659300Y185900D01*
X1659300Y146399D01*
G37*
G36*
X1572500Y46399D02*
G01*
X1572500Y85900D01*
X1659300Y85900D01*
X1659300Y46399D01*
G37*
G36*
X1572500Y-3600D02*
G01*
X1572500Y35900D01*
X1659300Y35900D01*
X1659300Y-3600D01*
G37*
G36*
X1572500Y-53600D02*
G01*
X1572500Y-14099D01*
X1659300Y-14099D01*
X1659300Y-53600D01*
G37*
G36*
X1572500Y-103600D02*
G01*
X1572500Y-64099D01*
X1659300Y-64099D01*
X1659300Y-103600D01*
G37*
G36*
X1572500Y-153600D02*
G01*
X1572500Y-114099D01*
X1659300Y-114099D01*
X1659300Y-153600D01*
G37*
G36*
X1572500Y-203600D02*
G01*
X1572500Y-164099D01*
X1659300Y-164099D01*
X1659300Y-203600D01*
G37*
G36*
X1572500Y-253600D02*
G01*
X1572500Y-214099D01*
X1659300Y-214099D01*
X1659300Y-253600D01*
G37*
G36*
X1572500Y-303600D02*
G01*
X1572500Y-264099D01*
X1659300Y-264099D01*
X1659300Y-303600D01*
G37*
G36*
X1165299Y-429600D02*
G01*
X1165299Y-342800D01*
X1204799Y-342800D01*
X1204799Y-429600D01*
G37*
G36*
X1215299Y-429600D02*
G01*
X1215299Y-342800D01*
X1254799Y-342800D01*
X1254799Y-429600D01*
G37*
G36*
X1265299Y-429600D02*
G01*
X1265299Y-342800D01*
X1304799Y-342800D01*
X1304799Y-429600D01*
G37*
G36*
X1315299Y-429600D02*
G01*
X1315299Y-342800D01*
X1354799Y-342800D01*
X1354799Y-429600D01*
G37*
G36*
X1365299Y-429600D02*
G01*
X1365299Y-342800D01*
X1404799Y-342800D01*
X1404799Y-429600D01*
G37*
G36*
X1415299Y-429600D02*
G01*
X1415299Y-342800D01*
X1454799Y-342800D01*
X1454799Y-429600D01*
G37*
G36*
X1465299Y-429600D02*
G01*
X1465299Y-342800D01*
X1504799Y-342800D01*
X1504799Y-429600D01*
G37*
G36*
X1515299Y-429600D02*
G01*
X1515299Y-342800D01*
X1554799Y-342800D01*
X1554799Y-429600D01*
G37*
G36*
X459800Y-1434600D02*
G01*
X456399Y-1434400D01*
X453000Y-1433800D01*
X449699Y-1432699D01*
X446599Y-1431199D01*
X443699Y-1429400D01*
X440999Y-1427100D01*
X438600Y-1424600D01*
X436599Y-1421799D01*
X434899Y-1418800D01*
X433600Y-1415500D01*
X432800Y-1412199D01*
X432300Y-1408699D01*
X432300Y-1405300D01*
X432800Y-1401799D01*
X433600Y-1398499D01*
X434899Y-1395199D01*
X436599Y-1392199D01*
X438600Y-1389400D01*
X440999Y-1386900D01*
X443699Y-1384600D01*
X446599Y-1382800D01*
X449699Y-1381300D01*
X453000Y-1380199D01*
X456399Y-1379600D01*
X459800Y-1379400D01*
X491500Y-1379400D01*
X494899Y-1379600D01*
X498299Y-1380199D01*
X501599Y-1381300D01*
X504699Y-1382800D01*
X507600Y-1384600D01*
X510300Y-1386900D01*
X512699Y-1389400D01*
X514699Y-1392199D01*
X516399Y-1395199D01*
X517699Y-1398499D01*
X518499Y-1401799D01*
X519000Y-1405300D01*
X519000Y-1408699D01*
X518499Y-1412199D01*
X517699Y-1415500D01*
X516399Y-1418800D01*
X514699Y-1421799D01*
X512699Y-1424600D01*
X510300Y-1427100D01*
X507600Y-1429400D01*
X504699Y-1431199D01*
X501599Y-1432699D01*
X498299Y-1433800D01*
X494899Y-1434400D01*
X491500Y-1434600D01*
G37*
G36*
X1629499Y-1434600D02*
G01*
X1626099Y-1434400D01*
X1622700Y-1433800D01*
X1619399Y-1432699D01*
X1616300Y-1431199D01*
X1613400Y-1429400D01*
X1610699Y-1427100D01*
X1608299Y-1424600D01*
X1606300Y-1421799D01*
X1604600Y-1418800D01*
X1603299Y-1415500D01*
X1602500Y-1412199D01*
X1601999Y-1408699D01*
X1601999Y-1405300D01*
X1602500Y-1401799D01*
X1603299Y-1398499D01*
X1604600Y-1395199D01*
X1606300Y-1392199D01*
X1608299Y-1389400D01*
X1610699Y-1386900D01*
X1613400Y-1384600D01*
X1616300Y-1382800D01*
X1619399Y-1381300D01*
X1622700Y-1380199D01*
X1626099Y-1379600D01*
X1629499Y-1379400D01*
X1661199Y-1379400D01*
X1664600Y-1379600D01*
X1668000Y-1380199D01*
X1671300Y-1381300D01*
X1674399Y-1382800D01*
X1677299Y-1384600D01*
X1680000Y-1386900D01*
X1682399Y-1389400D01*
X1684399Y-1392199D01*
X1686099Y-1395199D01*
X1687399Y-1398499D01*
X1688199Y-1401799D01*
X1688699Y-1405300D01*
X1688699Y-1408699D01*
X1688199Y-1412199D01*
X1687399Y-1415500D01*
X1686099Y-1418800D01*
X1684399Y-1421799D01*
X1682399Y-1424600D01*
X1680000Y-1427100D01*
X1677299Y-1429400D01*
X1674399Y-1431199D01*
X1671300Y-1432699D01*
X1668000Y-1433800D01*
X1664600Y-1434400D01*
X1661199Y-1434600D01*
G37*
G36*
X459800Y-1334600D02*
G01*
X456399Y-1334400D01*
X453000Y-1333800D01*
X449699Y-1332699D01*
X446599Y-1331199D01*
X443699Y-1329400D01*
X440999Y-1327100D01*
X438600Y-1324600D01*
X436599Y-1321799D01*
X434899Y-1318800D01*
X433600Y-1315500D01*
X432800Y-1312199D01*
X432300Y-1308699D01*
X432300Y-1305300D01*
X432800Y-1301799D01*
X433600Y-1298499D01*
X434899Y-1295199D01*
X436599Y-1292199D01*
X438600Y-1289400D01*
X440999Y-1286900D01*
X443699Y-1284600D01*
X446599Y-1282800D01*
X449699Y-1281300D01*
X453000Y-1280199D01*
X456399Y-1279600D01*
X459800Y-1279400D01*
X491500Y-1279400D01*
X494899Y-1279600D01*
X498299Y-1280199D01*
X501599Y-1281300D01*
X504699Y-1282800D01*
X507600Y-1284600D01*
X510300Y-1286900D01*
X512699Y-1289400D01*
X514699Y-1292199D01*
X516399Y-1295199D01*
X517699Y-1298499D01*
X518499Y-1301799D01*
X519000Y-1305300D01*
X519000Y-1308699D01*
X518499Y-1312199D01*
X517699Y-1315500D01*
X516399Y-1318800D01*
X514699Y-1321799D01*
X512699Y-1324600D01*
X510300Y-1327100D01*
X507600Y-1329400D01*
X504699Y-1331199D01*
X501599Y-1332699D01*
X498299Y-1333800D01*
X494899Y-1334400D01*
X491500Y-1334600D01*
G37*
G36*
X1629499Y-1334600D02*
G01*
X1626099Y-1334400D01*
X1622700Y-1333800D01*
X1619399Y-1332699D01*
X1616300Y-1331199D01*
X1613400Y-1329400D01*
X1610699Y-1327100D01*
X1608299Y-1324600D01*
X1606300Y-1321799D01*
X1604600Y-1318800D01*
X1603299Y-1315500D01*
X1602500Y-1312199D01*
X1601999Y-1308699D01*
X1601999Y-1305300D01*
X1602500Y-1301799D01*
X1603299Y-1298499D01*
X1604600Y-1295199D01*
X1606300Y-1292199D01*
X1608299Y-1289400D01*
X1610699Y-1286900D01*
X1613400Y-1284600D01*
X1616300Y-1282800D01*
X1619399Y-1281300D01*
X1622700Y-1280199D01*
X1626099Y-1279600D01*
X1629499Y-1279400D01*
X1661199Y-1279400D01*
X1664600Y-1279600D01*
X1668000Y-1280199D01*
X1671300Y-1281300D01*
X1674399Y-1282800D01*
X1677299Y-1284600D01*
X1680000Y-1286900D01*
X1682399Y-1289400D01*
X1684399Y-1292199D01*
X1686099Y-1295199D01*
X1687399Y-1298499D01*
X1688199Y-1301799D01*
X1688699Y-1305300D01*
X1688699Y-1308699D01*
X1688199Y-1312199D01*
X1687399Y-1315500D01*
X1686099Y-1318800D01*
X1684399Y-1321799D01*
X1682399Y-1324600D01*
X1680000Y-1327100D01*
X1677299Y-1329400D01*
X1674399Y-1331199D01*
X1671300Y-1332699D01*
X1668000Y-1333800D01*
X1664600Y-1334400D01*
X1661199Y-1334600D01*
G37*
G36*
X459800Y-1234600D02*
G01*
X456399Y-1234400D01*
X453000Y-1233800D01*
X449699Y-1232699D01*
X446599Y-1231199D01*
X443699Y-1229400D01*
X440999Y-1227100D01*
X438600Y-1224600D01*
X436599Y-1221799D01*
X434899Y-1218800D01*
X433600Y-1215500D01*
X432800Y-1212199D01*
X432300Y-1208699D01*
X432300Y-1205300D01*
X432800Y-1201799D01*
X433600Y-1198499D01*
X434899Y-1195199D01*
X436599Y-1192199D01*
X438600Y-1189400D01*
X440999Y-1186900D01*
X443699Y-1184600D01*
X446599Y-1182800D01*
X449699Y-1181300D01*
X453000Y-1180199D01*
X456399Y-1179600D01*
X459800Y-1179400D01*
X491500Y-1179400D01*
X494899Y-1179600D01*
X498299Y-1180199D01*
X501599Y-1181300D01*
X504699Y-1182800D01*
X507600Y-1184600D01*
X510300Y-1186900D01*
X512699Y-1189400D01*
X514699Y-1192199D01*
X516399Y-1195199D01*
X517699Y-1198499D01*
X518499Y-1201799D01*
X519000Y-1205300D01*
X519000Y-1208699D01*
X518499Y-1212199D01*
X517699Y-1215500D01*
X516399Y-1218800D01*
X514699Y-1221799D01*
X512699Y-1224600D01*
X510300Y-1227100D01*
X507600Y-1229400D01*
X504699Y-1231199D01*
X501599Y-1232699D01*
X498299Y-1233800D01*
X494899Y-1234400D01*
X491500Y-1234600D01*
G37*
G36*
X1629499Y-1234600D02*
G01*
X1626099Y-1234400D01*
X1622700Y-1233800D01*
X1619399Y-1232699D01*
X1616300Y-1231199D01*
X1613400Y-1229400D01*
X1610699Y-1227100D01*
X1608299Y-1224600D01*
X1606300Y-1221799D01*
X1604600Y-1218800D01*
X1603299Y-1215500D01*
X1602500Y-1212199D01*
X1601999Y-1208699D01*
X1601999Y-1205300D01*
X1602500Y-1201799D01*
X1603299Y-1198499D01*
X1604600Y-1195199D01*
X1606300Y-1192199D01*
X1608299Y-1189400D01*
X1610699Y-1186900D01*
X1613400Y-1184600D01*
X1616300Y-1182800D01*
X1619399Y-1181300D01*
X1622700Y-1180199D01*
X1626099Y-1179600D01*
X1629499Y-1179400D01*
X1661199Y-1179400D01*
X1664600Y-1179600D01*
X1668000Y-1180199D01*
X1671300Y-1181300D01*
X1674399Y-1182800D01*
X1677299Y-1184600D01*
X1680000Y-1186900D01*
X1682399Y-1189400D01*
X1684399Y-1192199D01*
X1686099Y-1195199D01*
X1687399Y-1198499D01*
X1688199Y-1201799D01*
X1688699Y-1205300D01*
X1688699Y-1208699D01*
X1688199Y-1212199D01*
X1687399Y-1215500D01*
X1686099Y-1218800D01*
X1684399Y-1221799D01*
X1682399Y-1224600D01*
X1680000Y-1227100D01*
X1677299Y-1229400D01*
X1674399Y-1231199D01*
X1671300Y-1232699D01*
X1668000Y-1233800D01*
X1664600Y-1234400D01*
X1661199Y-1234600D01*
G37*
G36*
X459800Y-1134600D02*
G01*
X456399Y-1134400D01*
X453000Y-1133800D01*
X449699Y-1132699D01*
X446599Y-1131199D01*
X443699Y-1129400D01*
X440999Y-1127100D01*
X438600Y-1124600D01*
X436599Y-1121799D01*
X434899Y-1118800D01*
X433600Y-1115500D01*
X432800Y-1112199D01*
X432300Y-1108699D01*
X432300Y-1105300D01*
X432800Y-1101799D01*
X433600Y-1098499D01*
X434899Y-1095199D01*
X436599Y-1092199D01*
X438600Y-1089400D01*
X440999Y-1086900D01*
X443699Y-1084600D01*
X446599Y-1082800D01*
X449699Y-1081300D01*
X453000Y-1080199D01*
X456399Y-1079600D01*
X459800Y-1079400D01*
X491500Y-1079400D01*
X494899Y-1079600D01*
X498299Y-1080199D01*
X501599Y-1081300D01*
X504699Y-1082800D01*
X507600Y-1084600D01*
X510300Y-1086900D01*
X512699Y-1089400D01*
X514699Y-1092199D01*
X516399Y-1095199D01*
X517699Y-1098499D01*
X518499Y-1101799D01*
X519000Y-1105300D01*
X519000Y-1108699D01*
X518499Y-1112199D01*
X517699Y-1115500D01*
X516399Y-1118800D01*
X514699Y-1121799D01*
X512699Y-1124600D01*
X510300Y-1127100D01*
X507600Y-1129400D01*
X504699Y-1131199D01*
X501599Y-1132699D01*
X498299Y-1133800D01*
X494899Y-1134400D01*
X491500Y-1134600D01*
G37*
G36*
X1629499Y-1134600D02*
G01*
X1626099Y-1134400D01*
X1622700Y-1133800D01*
X1619399Y-1132699D01*
X1616300Y-1131199D01*
X1613400Y-1129400D01*
X1610699Y-1127100D01*
X1608299Y-1124600D01*
X1606300Y-1121799D01*
X1604600Y-1118800D01*
X1603299Y-1115500D01*
X1602500Y-1112199D01*
X1601999Y-1108699D01*
X1601999Y-1105300D01*
X1602500Y-1101799D01*
X1603299Y-1098499D01*
X1604600Y-1095199D01*
X1606300Y-1092199D01*
X1608299Y-1089400D01*
X1610699Y-1086900D01*
X1613400Y-1084600D01*
X1616300Y-1082800D01*
X1619399Y-1081300D01*
X1622700Y-1080199D01*
X1626099Y-1079600D01*
X1629499Y-1079400D01*
X1661199Y-1079400D01*
X1664600Y-1079600D01*
X1668000Y-1080199D01*
X1671300Y-1081300D01*
X1674399Y-1082800D01*
X1677299Y-1084600D01*
X1680000Y-1086900D01*
X1682399Y-1089400D01*
X1684399Y-1092199D01*
X1686099Y-1095199D01*
X1687399Y-1098499D01*
X1688199Y-1101799D01*
X1688699Y-1105300D01*
X1688699Y-1108699D01*
X1688199Y-1112199D01*
X1687399Y-1115500D01*
X1686099Y-1118800D01*
X1684399Y-1121799D01*
X1682399Y-1124600D01*
X1680000Y-1127100D01*
X1677299Y-1129400D01*
X1674399Y-1131199D01*
X1671300Y-1132699D01*
X1668000Y-1133800D01*
X1664600Y-1134400D01*
X1661199Y-1134600D01*
G37*
G36*
X459800Y-1034600D02*
G01*
X456399Y-1034400D01*
X453000Y-1033800D01*
X449699Y-1032699D01*
X446599Y-1031199D01*
X443699Y-1029400D01*
X440999Y-1027100D01*
X438600Y-1024600D01*
X436599Y-1021799D01*
X434899Y-1018800D01*
X433600Y-1015500D01*
X432800Y-1012199D01*
X432300Y-1008699D01*
X432300Y-1005300D01*
X432800Y-1001799D01*
X433600Y-998499D01*
X434899Y-995199D01*
X436599Y-992199D01*
X438600Y-989400D01*
X440999Y-986900D01*
X443699Y-984600D01*
X446599Y-982800D01*
X449699Y-981300D01*
X453000Y-980199D01*
X456399Y-979600D01*
X459800Y-979400D01*
X491500Y-979400D01*
X494899Y-979600D01*
X498299Y-980199D01*
X501599Y-981300D01*
X504699Y-982800D01*
X507600Y-984600D01*
X510300Y-986900D01*
X512699Y-989400D01*
X514699Y-992199D01*
X516399Y-995199D01*
X517699Y-998499D01*
X518499Y-1001799D01*
X519000Y-1005300D01*
X519000Y-1008699D01*
X518499Y-1012199D01*
X517699Y-1015500D01*
X516399Y-1018800D01*
X514699Y-1021799D01*
X512699Y-1024600D01*
X510300Y-1027100D01*
X507600Y-1029400D01*
X504699Y-1031199D01*
X501599Y-1032699D01*
X498299Y-1033800D01*
X494899Y-1034400D01*
X491500Y-1034600D01*
G37*
G36*
X761400Y-233499D02*
G01*
X761400Y-173499D01*
X791400Y-173499D01*
X791400Y-233499D01*
G37*
G36*
X724000Y-233499D02*
G01*
X724000Y-173499D01*
X754000Y-173499D01*
X754000Y-233499D01*
G37*
G36*
X686599Y-233499D02*
G01*
X686599Y-173499D01*
X716599Y-173499D01*
X716599Y-233499D01*
G37*
G36*
X686599Y-335500D02*
G01*
X686599Y-275500D01*
X716599Y-275500D01*
X716599Y-335500D01*
G37*
G36*
X761400Y-335500D02*
G01*
X761400Y-275500D01*
X791400Y-275500D01*
X791400Y-335500D01*
G37*
G36*
X605300Y-33499D02*
G01*
X605300Y-5799D01*
X644699Y-5799D01*
X644699Y-33499D01*
G37*
G36*
X605300Y5799D02*
G01*
X605300Y33499D01*
X644699Y33499D01*
X644699Y5799D01*
G37*
G36*
X605300Y-128499D02*
G01*
X605300Y-100799D01*
X644699Y-100799D01*
X644699Y-128499D01*
G37*
G36*
X605300Y-89200D02*
G01*
X605300Y-61500D01*
X644699Y-61500D01*
X644699Y-89200D01*
G37*
G36*
X605300Y-218499D02*
G01*
X605300Y-190799D01*
X644699Y-190799D01*
X644699Y-218499D01*
G37*
G36*
X605300Y-179200D02*
G01*
X605300Y-151500D01*
X644699Y-151500D01*
X644699Y-179200D01*
G37*
G36*
X515000Y-205399D02*
G01*
X515000Y-175399D01*
X574000Y-175399D01*
X574000Y-205399D01*
G37*
G36*
X515000Y-130599D02*
G01*
X515000Y-100599D01*
X574000Y-100599D01*
X574000Y-130599D01*
G37*
G36*
X434000Y-168000D02*
G01*
X434000Y-138000D01*
X493000Y-138000D01*
X493000Y-168000D01*
G37*
G36*
X741500Y-394699D02*
G01*
X741500Y-355300D01*
X769200Y-355300D01*
X769200Y-394699D01*
G37*
G36*
X780799Y-394699D02*
G01*
X780799Y-355300D01*
X808500Y-355300D01*
X808500Y-394699D01*
G37*
G36*
X980799Y-519699D02*
G01*
X980799Y-480199D01*
X1008500Y-480199D01*
X1008500Y-519699D01*
G37*
G36*
X941499Y-519699D02*
G01*
X941499Y-480199D01*
X969200Y-480199D01*
X969200Y-519699D01*
G37*
G36*
X870799Y-569699D02*
G01*
X870799Y-530300D01*
X898500Y-530300D01*
X898500Y-569699D01*
G37*
G36*
X831499Y-569699D02*
G01*
X831499Y-530300D01*
X859200Y-530300D01*
X859200Y-569699D01*
G37*
G36*
X600300Y-658499D02*
G01*
X600300Y-630799D01*
X639699Y-630799D01*
X639699Y-658499D01*
G37*
G36*
X600300Y-619200D02*
G01*
X600300Y-591500D01*
X639699Y-591500D01*
X639699Y-619200D01*
G37*
G36*
X855299Y5799D02*
G01*
X855299Y33499D01*
X894700Y33499D01*
X894700Y5799D01*
G37*
G36*
X855299Y-33499D02*
G01*
X855299Y-5799D01*
X894700Y-5799D01*
X894700Y-33499D01*
G37*
G36*
X680300Y-433499D02*
G01*
X680300Y-405799D01*
X719699Y-405799D01*
X719699Y-433499D01*
G37*
G36*
X680300Y-394200D02*
G01*
X680300Y-366500D01*
X719699Y-366500D01*
X719699Y-394200D01*
G37*
G36*
X951499Y-324699D02*
G01*
X951499Y-285300D01*
X979200Y-285300D01*
X979200Y-324699D01*
G37*
G36*
X990799Y-324699D02*
G01*
X990799Y-285300D01*
X1018500Y-285300D01*
X1018500Y-324699D01*
G37*
G36*
X825200Y-254200D02*
G01*
X825200Y-226500D01*
X864700Y-226500D01*
X864700Y-254200D01*
G37*
G36*
X825200Y-293499D02*
G01*
X825200Y-265799D01*
X864700Y-265799D01*
X864700Y-293499D01*
G37*
G36*
X777700Y76599D02*
G01*
X777700Y108200D01*
X836800Y108200D01*
X836800Y76599D01*
G37*
G36*
X683200Y39200D02*
G01*
X683200Y70799D01*
X742300Y70799D01*
X742300Y39200D01*
G37*
G36*
X777700Y1799D02*
G01*
X777700Y33400D01*
X836800Y33400D01*
X836800Y1799D01*
G37*
G36*
X592699Y-328400D02*
G01*
X592699Y-296799D01*
X651799Y-296799D01*
X651799Y-328400D01*
G37*
G36*
X498200Y-365799D02*
G01*
X498200Y-334200D01*
X557300Y-334200D01*
X557300Y-365799D01*
G37*
G36*
X592699Y-403200D02*
G01*
X592699Y-371599D01*
X651799Y-371599D01*
X651799Y-403200D01*
G37*
G36*
X592699Y-503400D02*
G01*
X592699Y-471799D01*
X651799Y-471799D01*
X651799Y-503400D01*
G37*
G36*
X498200Y-540799D02*
G01*
X498200Y-509200D01*
X557300Y-509200D01*
X557300Y-540799D01*
G37*
G36*
X592699Y-578200D02*
G01*
X592699Y-546599D01*
X651799Y-546599D01*
X651799Y-578200D01*
G37*
G36*
X2335299Y91500D02*
G01*
X2335299Y119200D01*
X2374700Y119200D01*
X2374700Y91500D01*
G37*
G36*
X2335299Y130799D02*
G01*
X2335299Y158499D01*
X2374700Y158499D01*
X2374700Y130799D01*
G37*
G36*
X2335299Y-469200D02*
G01*
X2335299Y-441500D01*
X2374700Y-441500D01*
X2374700Y-469200D01*
G37*
G36*
X2335299Y-508499D02*
G01*
X2335299Y-480799D01*
X2374700Y-480799D01*
X2374700Y-508499D01*
G37*
G36*
X2217600Y-690700D02*
G01*
X2217600Y-666900D01*
X2276800Y-666900D01*
X2276800Y-690700D01*
G37*
G36*
X2217600Y-716300D02*
G01*
X2217600Y-692500D01*
X2276800Y-692500D01*
X2276800Y-716300D01*
G37*
G36*
X2217700Y-741900D02*
G01*
X2217700Y-718099D01*
X2276800Y-718099D01*
X2276800Y-741900D01*
G37*
G36*
X2217600Y-767500D02*
G01*
X2217600Y-743699D01*
X2276800Y-743699D01*
X2276800Y-767500D01*
G37*
G36*
X2217600Y-793000D02*
G01*
X2217600Y-769299D01*
X2276800Y-769299D01*
X2276800Y-793000D01*
G37*
G36*
X2311400Y-791100D02*
G01*
X2311400Y-668899D01*
X2394200Y-668899D01*
X2394200Y-791100D01*
G37*
G36*
X2311300Y-852100D02*
G01*
X2311300Y-804699D01*
X2394099Y-804699D01*
X2394099Y-852100D01*
G37*
G36*
X2311300Y-655300D02*
G01*
X2311300Y-607899D01*
X2394099Y-607899D01*
X2394099Y-655300D01*
G37*
G36*
X975299Y-103499D02*
G01*
X975299Y-75799D01*
X1014700Y-75799D01*
X1014700Y-103499D01*
G37*
G36*
X975299Y-64200D02*
G01*
X975299Y-36500D01*
X1014700Y-36500D01*
X1014700Y-64200D01*
G37*
G36*
X741500Y-444699D02*
G01*
X741500Y-405300D01*
X769200Y-405300D01*
X769200Y-444699D01*
G37*
G36*
X780799Y-444699D02*
G01*
X780799Y-405300D01*
X808500Y-405300D01*
X808500Y-444699D01*
G37*
G36*
X931499Y300D02*
G01*
X931499Y39699D01*
X959200Y39699D01*
X959200Y300D01*
G37*
G36*
X970799Y300D02*
G01*
X970799Y39699D01*
X998500Y39699D01*
X998500Y300D01*
G37*
G36*
X2331499Y-341999D02*
G01*
X2331499Y-290999D01*
X2378500Y-290999D01*
X2378500Y-341999D01*
G37*
G36*
X2331499Y-409000D02*
G01*
X2331499Y-358000D01*
X2378500Y-358000D01*
X2378500Y-409000D01*
G37*
G36*
X2331499Y-59000D02*
G01*
X2331499Y-8000D01*
X2378500Y-8000D01*
X2378500Y-59000D01*
G37*
G36*
X2331499Y8000D02*
G01*
X2331499Y59000D01*
X2378500Y59000D01*
X2378500Y8000D01*
G37*
G36*
X2022500Y-1574099D02*
G01*
X2022500Y-1495300D01*
X2077700Y-1495300D01*
X2077700Y-1574099D01*
G37*
G36*
X2282299Y-1574099D02*
G01*
X2282299Y-1495300D01*
X2337500Y-1495300D01*
X2337500Y-1574099D01*
G37*
G36*
X2242899Y-1469800D02*
G01*
X2242899Y-1400799D01*
X2274600Y-1400799D01*
X2274600Y-1469800D01*
G37*
G36*
X2203599Y-1469800D02*
G01*
X2203599Y-1400799D01*
X2235200Y-1400799D01*
X2235200Y-1469800D01*
G37*
G36*
X2164200Y-1469800D02*
G01*
X2164200Y-1400799D01*
X2195799Y-1400799D01*
X2195799Y-1469800D01*
G37*
G36*
X2124799Y-1469800D02*
G01*
X2124799Y-1400799D01*
X2156400Y-1400799D01*
X2156400Y-1469800D01*
G37*
G36*
X2085399Y-1469800D02*
G01*
X2085399Y-1400799D01*
X2117100Y-1400799D01*
X2117100Y-1469800D01*
G37*
G36*
X686500Y-154800D02*
G01*
X686500Y-115300D01*
X714200Y-115300D01*
X714200Y-154800D01*
G37*
G36*
X725799Y-154800D02*
G01*
X725799Y-115300D01*
X753499Y-115300D01*
X753499Y-154800D01*
G37*
G36*
X979499Y-452800D02*
G01*
X979499Y-421199D01*
X1030799Y-421199D01*
X1030799Y-452800D01*
G37*
G36*
X979499Y-415799D02*
G01*
X979499Y-384200D01*
X1030799Y-384200D01*
X1030799Y-415799D01*
G37*
G36*
X979499Y-378800D02*
G01*
X979499Y-347199D01*
X1030799Y-347199D01*
X1030799Y-378800D01*
G37*
G36*
X869200Y-378800D02*
G01*
X869200Y-347199D01*
X920500Y-347199D01*
X920500Y-378800D01*
G37*
G36*
X869200Y-415799D02*
G01*
X869200Y-384200D01*
X920500Y-384200D01*
X920500Y-415799D01*
G37*
G36*
X869200Y-452800D02*
G01*
X869200Y-421199D01*
X920500Y-421199D01*
X920500Y-452800D01*
G37*
G36*
X649200Y-738800D02*
G01*
X649200Y-707199D01*
X700500Y-707199D01*
X700500Y-738800D01*
G37*
G36*
X649200Y-775799D02*
G01*
X649200Y-744200D01*
X700500Y-744200D01*
X700500Y-775799D01*
G37*
G36*
X649200Y-812800D02*
G01*
X649200Y-781199D01*
X700500Y-781199D01*
X700500Y-812800D01*
G37*
G36*
X759499Y-812800D02*
G01*
X759499Y-781199D01*
X810799Y-781199D01*
X810799Y-812800D01*
G37*
G36*
X759499Y-775799D02*
G01*
X759499Y-744200D01*
X810799Y-744200D01*
X810799Y-775799D01*
G37*
G36*
X759499Y-738800D02*
G01*
X759499Y-707199D01*
X810799Y-707199D01*
X810799Y-738800D01*
G37*
G36*
X2225299Y-1034200D02*
G01*
X2225299Y-1006500D01*
X2264700Y-1006500D01*
X2264700Y-1034200D01*
G37*
G36*
X2225299Y-1073499D02*
G01*
X2225299Y-1045799D01*
X2264700Y-1045799D01*
X2264700Y-1073499D01*
G37*
G36*
X2088299Y-1242199D02*
G01*
X2088299Y-1202699D01*
X2131700Y-1202699D01*
X2131700Y-1242199D01*
G37*
G36*
X2088299Y-1297300D02*
G01*
X2088299Y-1257800D01*
X2131700Y-1257800D01*
X2131700Y-1297300D01*
G37*
G36*
X1533299Y-592199D02*
G01*
X1533299Y-552699D01*
X1576700Y-552699D01*
X1576700Y-592199D01*
G37*
G36*
X1533299Y-647300D02*
G01*
X1533299Y-607800D01*
X1576700Y-607800D01*
X1576700Y-647300D01*
G37*
D78*
G01*
X902169Y-725000D03*
G36*
X500500Y-772300D02*
G01*
X500500Y-677699D01*
X595100Y-677699D01*
X595100Y-772300D01*
G37*
D80*
G01*
X1899369Y-1470000D03*
G01*
X1820630Y-1470000D03*
M02*
