G04 Layer: BottomLayer*
G04 EasyEDA v6.4.17, 2021-03-03T10:10:01+01:00*
G04 9d4de0552c0a465fbb9a068f9b96be7d,b771c775d4444e86a06a5321f8c966cb,10*
G04 Gerber Generator version 0.2*
G04 Scale: 100 percent, Rotated: No, Reflected: No *
G04 Dimensions in inches *
G04 leading zeros omitted , absolute positions ,3 integer and 6 decimal *
%FSLAX36Y36*%
%MOIN*%

%ADD10C,0.0100*%
%ADD13C,0.0200*%
%ADD16C,0.0240*%
%ADD17C,0.0480*%
%ADD18C,0.0360*%
%ADD43C,0.0866*%
%ADD45C,0.0630*%
%ADD46C,0.0472*%

%LPD*%
G36*
X414099Y-1589900D02*
G01*
X412560Y-1589600D01*
X411280Y-1588720D01*
X410400Y-1587440D01*
X410100Y-1585900D01*
X410100Y185900D01*
X410400Y187440D01*
X411280Y188720D01*
X412560Y189600D01*
X414099Y189899D01*
X459780Y189899D01*
X462239Y190180D01*
X464340Y190920D01*
X466760Y192480D01*
X468080Y193020D01*
X469480Y193080D01*
X470840Y192640D01*
X472640Y191680D01*
X476040Y190580D01*
X479580Y190100D01*
X483140Y190260D01*
X486620Y191040D01*
X489920Y192460D01*
X493100Y194560D01*
X494640Y195159D01*
X496320Y195080D01*
X497800Y194340D01*
X499020Y193359D01*
X502160Y191680D01*
X505560Y190580D01*
X509099Y190100D01*
X512680Y190260D01*
X516160Y191040D01*
X519440Y192460D01*
X522640Y194560D01*
X524180Y195159D01*
X525840Y195080D01*
X527320Y194340D01*
X528560Y193359D01*
X531700Y191680D01*
X535100Y190580D01*
X538640Y190100D01*
X542200Y190260D01*
X545680Y191040D01*
X548980Y192460D01*
X552160Y194560D01*
X553700Y195159D01*
X555380Y195080D01*
X556860Y194340D01*
X558080Y193359D01*
X561220Y191680D01*
X564620Y190580D01*
X568160Y190100D01*
X571740Y190260D01*
X575220Y191040D01*
X578500Y192460D01*
X581680Y194560D01*
X583240Y195159D01*
X584900Y195080D01*
X586380Y194340D01*
X587600Y193359D01*
X590740Y191680D01*
X594140Y190580D01*
X597680Y190100D01*
X601260Y190260D01*
X604740Y191040D01*
X608020Y192460D01*
X611220Y194560D01*
X612760Y195159D01*
X614420Y195080D01*
X615900Y194340D01*
X617140Y193359D01*
X620280Y191680D01*
X623680Y190580D01*
X627220Y190100D01*
X630780Y190260D01*
X634260Y191040D01*
X637560Y192460D01*
X640740Y194560D01*
X642280Y195159D01*
X643960Y195080D01*
X645440Y194340D01*
X646660Y193359D01*
X649800Y191680D01*
X653199Y190580D01*
X656740Y190100D01*
X660320Y190260D01*
X663800Y191040D01*
X665819Y191920D01*
X667060Y192220D01*
X668340Y192120D01*
X669520Y191620D01*
X670620Y190920D01*
X672760Y190180D01*
X675220Y189899D01*
X2124780Y189899D01*
X2127240Y190180D01*
X2129380Y190920D01*
X2131200Y191780D01*
X2132600Y191840D01*
X2134520Y191080D01*
X2137920Y189980D01*
X2141460Y189500D01*
X2145040Y189660D01*
X2148520Y190440D01*
X2151800Y191860D01*
X2155000Y193960D01*
X2156540Y194560D01*
X2158200Y194480D01*
X2159680Y193740D01*
X2160920Y192760D01*
X2164060Y191080D01*
X2167460Y189980D01*
X2171000Y189500D01*
X2174560Y189660D01*
X2178040Y190440D01*
X2181340Y191860D01*
X2184520Y193960D01*
X2186060Y194560D01*
X2187740Y194480D01*
X2189220Y193740D01*
X2190440Y192760D01*
X2193580Y191080D01*
X2196980Y189980D01*
X2200520Y189500D01*
X2204100Y189660D01*
X2207580Y190440D01*
X2210860Y191860D01*
X2214060Y193960D01*
X2215600Y194560D01*
X2217260Y194480D01*
X2218740Y193740D01*
X2219980Y192760D01*
X2223120Y191080D01*
X2226520Y189980D01*
X2230060Y189500D01*
X2233620Y189660D01*
X2237100Y190440D01*
X2240400Y191860D01*
X2243580Y193960D01*
X2245120Y194560D01*
X2246780Y194480D01*
X2248280Y193740D01*
X2249500Y192760D01*
X2252640Y191080D01*
X2256040Y189980D01*
X2259580Y189500D01*
X2263140Y189660D01*
X2266620Y190440D01*
X2269920Y191860D01*
X2273100Y193960D01*
X2274640Y194560D01*
X2276320Y194480D01*
X2277800Y193740D01*
X2279020Y192760D01*
X2282160Y191080D01*
X2285560Y189980D01*
X2289100Y189500D01*
X2292680Y189660D01*
X2296160Y190440D01*
X2299440Y191860D01*
X2302640Y193960D01*
X2304180Y194560D01*
X2305840Y194480D01*
X2307320Y193740D01*
X2308560Y192760D01*
X2311700Y191080D01*
X2315100Y189980D01*
X2318640Y189500D01*
X2322200Y189660D01*
X2325680Y190440D01*
X2330780Y192680D01*
X2332300Y192700D01*
X2333720Y192140D01*
X2335540Y190960D01*
X2337660Y190200D01*
X2340120Y189899D01*
X2385940Y189440D01*
X2387460Y189120D01*
X2388740Y188260D01*
X2389600Y186960D01*
X2389900Y185440D01*
X2389900Y-101620D01*
X2389560Y-103240D01*
X2388600Y-104580D01*
X2387180Y-105420D01*
X2385540Y-105620D01*
X2383960Y-105120D01*
X2382720Y-104040D01*
X2382020Y-102560D01*
X2381720Y-101320D01*
X2380020Y-97240D01*
X2377720Y-93500D01*
X2374860Y-90140D01*
X2371500Y-87280D01*
X2367760Y-84980D01*
X2363680Y-83280D01*
X2359880Y-82380D01*
X2358840Y-81960D01*
X2351380Y-77760D01*
X2350520Y-77100D01*
X2219280Y54160D01*
X2217920Y55400D01*
X2216520Y56460D01*
X2215040Y57400D01*
X2213500Y58220D01*
X2211880Y58880D01*
X2210200Y59420D01*
X2208480Y59800D01*
X2206760Y60020D01*
X2204920Y60100D01*
X1275180Y60100D01*
X1273960Y60000D01*
X1271540Y60000D01*
X1268100Y59400D01*
X1264820Y58200D01*
X1261780Y56460D01*
X1258960Y54080D01*
X1130840Y-74020D01*
X1130220Y-74720D01*
X1128960Y-75640D01*
X1127440Y-76000D01*
X1125900Y-75760D01*
X1124560Y-74960D01*
X1123640Y-73700D01*
X1123220Y-72780D01*
X1121000Y-69620D01*
X1118280Y-66900D01*
X1115140Y-64700D01*
X1111640Y-63060D01*
X1107920Y-62080D01*
X1104080Y-61740D01*
X1100260Y-62080D01*
X1096540Y-63060D01*
X1093040Y-64700D01*
X1089900Y-66900D01*
X1087180Y-69620D01*
X1084960Y-72780D01*
X1083340Y-76260D01*
X1082340Y-79980D01*
X1082000Y-83820D01*
X1082340Y-87660D01*
X1083340Y-91380D01*
X1084960Y-94860D01*
X1086420Y-97040D01*
X1088600Y-101620D01*
X1089000Y-103340D01*
X1089000Y-233000D01*
X1088680Y-234520D01*
X1087820Y-235820D01*
X1043120Y-280520D01*
X1041640Y-281460D01*
X1037200Y-283040D01*
X1032440Y-284240D01*
X1028960Y-285880D01*
X1025800Y-288080D01*
X1023080Y-290800D01*
X1020879Y-293960D01*
X1019240Y-297440D01*
X1018259Y-301160D01*
X1017920Y-305000D01*
X1018259Y-308840D01*
X1019240Y-312560D01*
X1020879Y-316040D01*
X1023080Y-319200D01*
X1025800Y-321920D01*
X1028960Y-324120D01*
X1032440Y-325760D01*
X1036160Y-326740D01*
X1040000Y-327080D01*
X1043840Y-326740D01*
X1047560Y-325760D01*
X1051040Y-324120D01*
X1054200Y-321920D01*
X1056920Y-319200D01*
X1059120Y-316040D01*
X1060760Y-312560D01*
X1061960Y-307800D01*
X1063540Y-303360D01*
X1064480Y-301880D01*
X1114620Y-251720D01*
X1115520Y-250640D01*
X1116680Y-249680D01*
X1118120Y-249220D01*
X1119640Y-249320D01*
X1121000Y-249980D01*
X1125140Y-254860D01*
X1127600Y-256960D01*
X1128620Y-258320D01*
X1129000Y-260000D01*
X1128620Y-261680D01*
X1127600Y-263040D01*
X1125140Y-265140D01*
X1122280Y-268500D01*
X1119980Y-272240D01*
X1118280Y-276320D01*
X1117260Y-280600D01*
X1116920Y-285000D01*
X1117260Y-289400D01*
X1118280Y-293680D01*
X1119980Y-297760D01*
X1122280Y-301500D01*
X1125140Y-304860D01*
X1128500Y-307720D01*
X1132240Y-310020D01*
X1136320Y-311720D01*
X1140600Y-312740D01*
X1145000Y-313080D01*
X1149400Y-312740D01*
X1153680Y-311720D01*
X1157760Y-310020D01*
X1161500Y-307720D01*
X1164860Y-304860D01*
X1167720Y-301500D01*
X1170020Y-297760D01*
X1171720Y-293680D01*
X1172620Y-289880D01*
X1173040Y-288840D01*
X1177240Y-281380D01*
X1177900Y-280520D01*
X1194160Y-264280D01*
X1195400Y-262920D01*
X1196460Y-261520D01*
X1197400Y-260040D01*
X1198220Y-258500D01*
X1198880Y-256880D01*
X1199420Y-255200D01*
X1199700Y-253900D01*
X1200320Y-252500D01*
X1201400Y-251439D01*
X1202820Y-250859D01*
X1204360Y-250840D01*
X1205780Y-251420D01*
X1206880Y-252480D01*
X1208080Y-254200D01*
X1210800Y-256920D01*
X1213960Y-259120D01*
X1217440Y-260760D01*
X1221160Y-261740D01*
X1225000Y-262079D01*
X1228840Y-261740D01*
X1232560Y-260760D01*
X1236040Y-259120D01*
X1238200Y-257680D01*
X1242800Y-255479D01*
X1244520Y-255100D01*
X1267080Y-255100D01*
X1268620Y-255400D01*
X1269920Y-256280D01*
X1330780Y-317140D01*
X1331699Y-318540D01*
X1331960Y-320180D01*
X1331519Y-321780D01*
X1330480Y-323080D01*
X1329000Y-323840D01*
X1327440Y-324240D01*
X1323959Y-325880D01*
X1320800Y-328080D01*
X1318080Y-330800D01*
X1315880Y-333960D01*
X1314240Y-337440D01*
X1313860Y-338880D01*
X1313060Y-340420D01*
X1311699Y-341460D01*
X1310000Y-341840D01*
X1308300Y-341460D01*
X1306940Y-340420D01*
X1306140Y-338880D01*
X1305760Y-337440D01*
X1304120Y-333960D01*
X1301920Y-330800D01*
X1299199Y-328080D01*
X1296040Y-325880D01*
X1292560Y-324240D01*
X1288839Y-323260D01*
X1285000Y-322920D01*
X1281160Y-323260D01*
X1277440Y-324240D01*
X1273960Y-325880D01*
X1270800Y-328080D01*
X1268080Y-330800D01*
X1265880Y-333960D01*
X1264240Y-337440D01*
X1263260Y-341160D01*
X1262920Y-345000D01*
X1263260Y-348840D01*
X1264240Y-352560D01*
X1265880Y-356040D01*
X1267320Y-358200D01*
X1269520Y-362800D01*
X1269900Y-364520D01*
X1269900Y-667080D01*
X1269600Y-668620D01*
X1268720Y-669920D01*
X847920Y-1090720D01*
X846620Y-1091600D01*
X845080Y-1091900D01*
X529380Y-1091860D01*
X522660Y-1090820D01*
X521060Y-1090200D01*
X519860Y-1088980D01*
X517860Y-1086120D01*
X516880Y-1084940D01*
X513920Y-1081900D01*
X511820Y-1080180D01*
X510600Y-1079300D01*
X508320Y-1077840D01*
X506960Y-1077100D01*
X504500Y-1075940D01*
X503120Y-1075400D01*
X500540Y-1074560D01*
X499060Y-1074180D01*
X496400Y-1073660D01*
X494860Y-1073480D01*
X491300Y-1073280D01*
X460020Y-1073280D01*
X456460Y-1073480D01*
X454920Y-1073660D01*
X452260Y-1074180D01*
X450800Y-1074560D01*
X448200Y-1075400D01*
X446800Y-1075960D01*
X444340Y-1077100D01*
X443000Y-1077840D01*
X440720Y-1079300D01*
X439500Y-1080180D01*
X437400Y-1081900D01*
X434440Y-1084940D01*
X433459Y-1086120D01*
X431860Y-1088320D01*
X431060Y-1089580D01*
X429739Y-1091960D01*
X428100Y-1095840D01*
X427620Y-1097340D01*
X426960Y-1099960D01*
X426680Y-1101440D01*
X426340Y-1104140D01*
X426240Y-1105640D01*
X426240Y-1108360D01*
X426340Y-1109860D01*
X426680Y-1112560D01*
X426960Y-1114040D01*
X427620Y-1116660D01*
X428100Y-1118160D01*
X429739Y-1122040D01*
X431060Y-1124420D01*
X431860Y-1125680D01*
X433459Y-1127880D01*
X434440Y-1129060D01*
X437400Y-1132100D01*
X439500Y-1133820D01*
X440720Y-1134700D01*
X443000Y-1136160D01*
X444340Y-1136900D01*
X446800Y-1138040D01*
X448200Y-1138600D01*
X450800Y-1139440D01*
X452280Y-1139820D01*
X454960Y-1140340D01*
X456420Y-1140520D01*
X460020Y-1140720D01*
X491300Y-1140720D01*
X494900Y-1140520D01*
X496360Y-1140340D01*
X499020Y-1139820D01*
X500540Y-1139440D01*
X503120Y-1138600D01*
X504500Y-1138060D01*
X506960Y-1136900D01*
X508320Y-1136160D01*
X510600Y-1134700D01*
X511820Y-1133820D01*
X513920Y-1132100D01*
X516880Y-1129060D01*
X517860Y-1127880D01*
X519860Y-1125020D01*
X521060Y-1123800D01*
X522660Y-1123180D01*
X529360Y-1122140D01*
X852800Y-1122100D01*
X855939Y-1121800D01*
X858780Y-1120940D01*
X861380Y-1119540D01*
X863820Y-1117540D01*
X1295540Y-685819D01*
X1297540Y-683379D01*
X1298940Y-680780D01*
X1299800Y-677940D01*
X1300100Y-674800D01*
X1300100Y-364520D01*
X1300480Y-362800D01*
X1302680Y-358200D01*
X1304120Y-356040D01*
X1305760Y-352560D01*
X1306140Y-351120D01*
X1306940Y-349580D01*
X1308300Y-348540D01*
X1310000Y-348160D01*
X1311699Y-348540D01*
X1313060Y-349580D01*
X1313860Y-351120D01*
X1314240Y-352560D01*
X1315880Y-356040D01*
X1317320Y-358200D01*
X1319520Y-362800D01*
X1319900Y-364520D01*
X1319900Y-692080D01*
X1319600Y-693620D01*
X1318720Y-694920D01*
X822920Y-1190720D01*
X821620Y-1191600D01*
X820080Y-1191900D01*
X529380Y-1191860D01*
X522660Y-1190820D01*
X521060Y-1190200D01*
X519860Y-1188980D01*
X517860Y-1186120D01*
X516880Y-1184940D01*
X513920Y-1181900D01*
X511820Y-1180180D01*
X510600Y-1179300D01*
X508320Y-1177840D01*
X506960Y-1177100D01*
X504500Y-1175940D01*
X503120Y-1175400D01*
X500540Y-1174560D01*
X499060Y-1174180D01*
X496400Y-1173660D01*
X494860Y-1173480D01*
X491300Y-1173280D01*
X460020Y-1173280D01*
X456460Y-1173480D01*
X454920Y-1173660D01*
X452260Y-1174180D01*
X450800Y-1174560D01*
X448200Y-1175400D01*
X446800Y-1175960D01*
X444340Y-1177100D01*
X443000Y-1177840D01*
X440720Y-1179300D01*
X439500Y-1180180D01*
X437400Y-1181900D01*
X434440Y-1184940D01*
X433459Y-1186120D01*
X431860Y-1188320D01*
X431060Y-1189580D01*
X429739Y-1191960D01*
X428100Y-1195840D01*
X427620Y-1197340D01*
X426960Y-1199960D01*
X426680Y-1201440D01*
X426340Y-1204140D01*
X426240Y-1205640D01*
X426240Y-1208360D01*
X426340Y-1209860D01*
X426940Y-1214020D01*
X427620Y-1216660D01*
X428100Y-1218160D01*
X429739Y-1222040D01*
X431060Y-1224420D01*
X431860Y-1225680D01*
X433459Y-1227880D01*
X434440Y-1229060D01*
X437400Y-1232100D01*
X439500Y-1233820D01*
X440720Y-1234700D01*
X443000Y-1236160D01*
X444340Y-1236900D01*
X446800Y-1238040D01*
X448200Y-1238600D01*
X450800Y-1239440D01*
X452280Y-1239820D01*
X454960Y-1240340D01*
X456420Y-1240520D01*
X460020Y-1240720D01*
X491300Y-1240720D01*
X494900Y-1240520D01*
X496360Y-1240340D01*
X499020Y-1239820D01*
X500540Y-1239440D01*
X503120Y-1238600D01*
X504500Y-1238060D01*
X506960Y-1236900D01*
X508320Y-1236160D01*
X510600Y-1234700D01*
X511820Y-1233820D01*
X513920Y-1232100D01*
X516880Y-1229060D01*
X517860Y-1227880D01*
X519860Y-1225020D01*
X521060Y-1223800D01*
X522660Y-1223180D01*
X529360Y-1222140D01*
X827800Y-1222100D01*
X830939Y-1221800D01*
X833780Y-1220940D01*
X836380Y-1219540D01*
X838820Y-1217540D01*
X1338080Y-718280D01*
X1339360Y-717420D01*
X1340900Y-717120D01*
X1342440Y-717420D01*
X1343720Y-718280D01*
X1344600Y-719580D01*
X1344900Y-721120D01*
X1344900Y-1014800D01*
X1345200Y-1017940D01*
X1346060Y-1020780D01*
X1347460Y-1023379D01*
X1349460Y-1025819D01*
X1494180Y-1170540D01*
X1496620Y-1172540D01*
X1499220Y-1173940D01*
X1502060Y-1174800D01*
X1505200Y-1175100D01*
X1604240Y-1175100D01*
X1605780Y-1175420D01*
X1607100Y-1176300D01*
X1607960Y-1177620D01*
X1608240Y-1179180D01*
X1607900Y-1180720D01*
X1606980Y-1182020D01*
X1605980Y-1182960D01*
X1604120Y-1184940D01*
X1603140Y-1186120D01*
X1601540Y-1188320D01*
X1600740Y-1189580D01*
X1599440Y-1191960D01*
X1598779Y-1193340D01*
X1597780Y-1195880D01*
X1597320Y-1197300D01*
X1596639Y-1199920D01*
X1596360Y-1201440D01*
X1596020Y-1204140D01*
X1595920Y-1205640D01*
X1595920Y-1208360D01*
X1596020Y-1209860D01*
X1596360Y-1212560D01*
X1596639Y-1214060D01*
X1597320Y-1216700D01*
X1597780Y-1218120D01*
X1598779Y-1220660D01*
X1599440Y-1222040D01*
X1600740Y-1224420D01*
X1601540Y-1225680D01*
X1603140Y-1227880D01*
X1604120Y-1229060D01*
X1607080Y-1232100D01*
X1609180Y-1233820D01*
X1610400Y-1234700D01*
X1612680Y-1236160D01*
X1614040Y-1236900D01*
X1616500Y-1238060D01*
X1617880Y-1238600D01*
X1620460Y-1239440D01*
X1621980Y-1239820D01*
X1624640Y-1240340D01*
X1626100Y-1240520D01*
X1629700Y-1240720D01*
X1660980Y-1240720D01*
X1664580Y-1240520D01*
X1666040Y-1240340D01*
X1668720Y-1239820D01*
X1670200Y-1239440D01*
X1672800Y-1238600D01*
X1674199Y-1238040D01*
X1676660Y-1236900D01*
X1678000Y-1236160D01*
X1680280Y-1234700D01*
X1681500Y-1233820D01*
X1683600Y-1232100D01*
X1686560Y-1229060D01*
X1687540Y-1227880D01*
X1689139Y-1225680D01*
X1689940Y-1224420D01*
X1691260Y-1222040D01*
X1692900Y-1218160D01*
X1693380Y-1216660D01*
X1694060Y-1214020D01*
X1694660Y-1209860D01*
X1694760Y-1208360D01*
X1694760Y-1205640D01*
X1694660Y-1204140D01*
X1694319Y-1201440D01*
X1694040Y-1199960D01*
X1693380Y-1197340D01*
X1692900Y-1195840D01*
X1691260Y-1191960D01*
X1689940Y-1189580D01*
X1689139Y-1188320D01*
X1687540Y-1186120D01*
X1686560Y-1184940D01*
X1684700Y-1182960D01*
X1683700Y-1182020D01*
X1682780Y-1180720D01*
X1682440Y-1179180D01*
X1682720Y-1177620D01*
X1683580Y-1176300D01*
X1684900Y-1175420D01*
X1686440Y-1175100D01*
X1720480Y-1175100D01*
X1722200Y-1175480D01*
X1726800Y-1177680D01*
X1728959Y-1179120D01*
X1732440Y-1180760D01*
X1736160Y-1181740D01*
X1740000Y-1182080D01*
X1743839Y-1181740D01*
X1747560Y-1180760D01*
X1751040Y-1179120D01*
X1754199Y-1176920D01*
X1756920Y-1174200D01*
X1759120Y-1171040D01*
X1760760Y-1167560D01*
X1761740Y-1163840D01*
X1762080Y-1160000D01*
X1761740Y-1156160D01*
X1760760Y-1152440D01*
X1759120Y-1148960D01*
X1756920Y-1145800D01*
X1754199Y-1143080D01*
X1751040Y-1140880D01*
X1747560Y-1139240D01*
X1743839Y-1138260D01*
X1740000Y-1137920D01*
X1736160Y-1138260D01*
X1732440Y-1139240D01*
X1728959Y-1140880D01*
X1726800Y-1142320D01*
X1722200Y-1144520D01*
X1720480Y-1144900D01*
X1677540Y-1144900D01*
X1675820Y-1144520D01*
X1674440Y-1143420D01*
X1673640Y-1141860D01*
X1673620Y-1140100D01*
X1674340Y-1138480D01*
X1675680Y-1137360D01*
X1678040Y-1136120D01*
X1680280Y-1134700D01*
X1681500Y-1133820D01*
X1683600Y-1132100D01*
X1686560Y-1129060D01*
X1687540Y-1127880D01*
X1689139Y-1125680D01*
X1689940Y-1124420D01*
X1691260Y-1122040D01*
X1692900Y-1118160D01*
X1693380Y-1116660D01*
X1694040Y-1114040D01*
X1694319Y-1112560D01*
X1694660Y-1109860D01*
X1694760Y-1108360D01*
X1694760Y-1105640D01*
X1694660Y-1104140D01*
X1694319Y-1101440D01*
X1694040Y-1099960D01*
X1693380Y-1097340D01*
X1692900Y-1095840D01*
X1691260Y-1091960D01*
X1689940Y-1089580D01*
X1689139Y-1088320D01*
X1687540Y-1086120D01*
X1686560Y-1084940D01*
X1683600Y-1081900D01*
X1681500Y-1080180D01*
X1680280Y-1079300D01*
X1678000Y-1077840D01*
X1676660Y-1077100D01*
X1674199Y-1075960D01*
X1672800Y-1075400D01*
X1670200Y-1074560D01*
X1668740Y-1074180D01*
X1666080Y-1073660D01*
X1664540Y-1073480D01*
X1660980Y-1073280D01*
X1629700Y-1073280D01*
X1626140Y-1073480D01*
X1624600Y-1073660D01*
X1621940Y-1074180D01*
X1620460Y-1074560D01*
X1617880Y-1075400D01*
X1616500Y-1075940D01*
X1614040Y-1077100D01*
X1612680Y-1077840D01*
X1610400Y-1079300D01*
X1609180Y-1080180D01*
X1607080Y-1081900D01*
X1604120Y-1084940D01*
X1603140Y-1086120D01*
X1601540Y-1088320D01*
X1600740Y-1089580D01*
X1599440Y-1091960D01*
X1598779Y-1093340D01*
X1597780Y-1095880D01*
X1597320Y-1097300D01*
X1596639Y-1099920D01*
X1596360Y-1101440D01*
X1596020Y-1104140D01*
X1595920Y-1105640D01*
X1595920Y-1108360D01*
X1596020Y-1109860D01*
X1596360Y-1112560D01*
X1596639Y-1114080D01*
X1597320Y-1116700D01*
X1597780Y-1118120D01*
X1598779Y-1120660D01*
X1599440Y-1122040D01*
X1600740Y-1124420D01*
X1601540Y-1125680D01*
X1603140Y-1127880D01*
X1604120Y-1129060D01*
X1607080Y-1132100D01*
X1609180Y-1133820D01*
X1610400Y-1134700D01*
X1612640Y-1136120D01*
X1615000Y-1137360D01*
X1616339Y-1138480D01*
X1617060Y-1140080D01*
X1617040Y-1141840D01*
X1616260Y-1143420D01*
X1614860Y-1144520D01*
X1613140Y-1144900D01*
X1512920Y-1144900D01*
X1511380Y-1144600D01*
X1510080Y-1143720D01*
X1423280Y-1056920D01*
X1422420Y-1055640D01*
X1422120Y-1054100D01*
X1422420Y-1052560D01*
X1423280Y-1051280D01*
X1424580Y-1050400D01*
X1426120Y-1050100D01*
X1690480Y-1050100D01*
X1692200Y-1050480D01*
X1696800Y-1052680D01*
X1698959Y-1054120D01*
X1702440Y-1055760D01*
X1706160Y-1056740D01*
X1710000Y-1057080D01*
X1713839Y-1056740D01*
X1717560Y-1055760D01*
X1721040Y-1054120D01*
X1724199Y-1051920D01*
X1726920Y-1049200D01*
X1729120Y-1046040D01*
X1730760Y-1042560D01*
X1731740Y-1038840D01*
X1732080Y-1035000D01*
X1731740Y-1031160D01*
X1730760Y-1027440D01*
X1729120Y-1023960D01*
X1726920Y-1020800D01*
X1724199Y-1018080D01*
X1721040Y-1015879D01*
X1717560Y-1014240D01*
X1713839Y-1013259D01*
X1710000Y-1012920D01*
X1706160Y-1013259D01*
X1702440Y-1014240D01*
X1698959Y-1015879D01*
X1696800Y-1017320D01*
X1692200Y-1019520D01*
X1690480Y-1019900D01*
X1412920Y-1019900D01*
X1411380Y-1019599D01*
X1410080Y-1018720D01*
X1396279Y-1004920D01*
X1395400Y-1003620D01*
X1395100Y-1002080D01*
X1395100Y-320200D01*
X1394800Y-317060D01*
X1393940Y-314220D01*
X1392540Y-311620D01*
X1390540Y-309180D01*
X1275820Y-194460D01*
X1273380Y-192460D01*
X1270780Y-191060D01*
X1267940Y-190200D01*
X1264800Y-189899D01*
X1244520Y-189899D01*
X1242800Y-189520D01*
X1238200Y-187320D01*
X1236040Y-185880D01*
X1232560Y-184240D01*
X1228840Y-183260D01*
X1225000Y-182920D01*
X1221160Y-183260D01*
X1217440Y-184240D01*
X1213960Y-185880D01*
X1210800Y-188080D01*
X1208080Y-190799D01*
X1207380Y-191820D01*
X1206160Y-192960D01*
X1204560Y-193500D01*
X1202900Y-193340D01*
X1201440Y-192500D01*
X1200460Y-191160D01*
X1200100Y-189520D01*
X1200100Y-109980D01*
X1200400Y-108460D01*
X1201280Y-107160D01*
X1292160Y-16279D01*
X1293460Y-15400D01*
X1294980Y-15100D01*
X1569400Y-15100D01*
X1571080Y-15480D01*
X1572460Y-16520D01*
X1573260Y-18060D01*
X1573340Y-19800D01*
X1572660Y-21400D01*
X1570880Y-23960D01*
X1569240Y-27440D01*
X1568040Y-32200D01*
X1566459Y-36640D01*
X1565520Y-38120D01*
X1554460Y-49180D01*
X1552460Y-51620D01*
X1551060Y-54220D01*
X1550200Y-57060D01*
X1549900Y-60199D01*
X1549900Y-259800D01*
X1550200Y-262940D01*
X1551060Y-265780D01*
X1552460Y-268380D01*
X1554460Y-270820D01*
X2028720Y-745080D01*
X2029600Y-746380D01*
X2029900Y-747920D01*
X2029900Y-1244800D01*
X2030200Y-1247940D01*
X2031060Y-1250780D01*
X2032460Y-1253380D01*
X2034460Y-1255820D01*
X2155520Y-1376879D01*
X2156460Y-1378360D01*
X2158040Y-1382800D01*
X2159240Y-1387560D01*
X2160880Y-1391040D01*
X2163080Y-1394199D01*
X2165800Y-1396920D01*
X2168960Y-1399120D01*
X2172440Y-1400760D01*
X2176160Y-1401740D01*
X2180000Y-1402080D01*
X2183840Y-1401740D01*
X2187560Y-1400760D01*
X2191040Y-1399120D01*
X2194200Y-1396920D01*
X2197180Y-1393940D01*
X2198480Y-1393080D01*
X2200020Y-1392780D01*
X2201540Y-1393080D01*
X2202840Y-1393940D01*
X2205800Y-1396920D01*
X2208960Y-1399120D01*
X2212440Y-1400760D01*
X2216160Y-1401740D01*
X2220000Y-1402080D01*
X2223840Y-1401740D01*
X2227560Y-1400760D01*
X2231040Y-1399120D01*
X2234200Y-1396920D01*
X2236920Y-1394199D01*
X2239120Y-1391040D01*
X2240760Y-1387560D01*
X2241740Y-1383839D01*
X2242080Y-1380000D01*
X2241740Y-1376160D01*
X2240760Y-1372440D01*
X2239120Y-1368959D01*
X2236920Y-1365800D01*
X2234200Y-1363080D01*
X2231040Y-1360880D01*
X2227560Y-1359240D01*
X2222800Y-1358040D01*
X2218360Y-1356459D01*
X2216880Y-1355520D01*
X2081279Y-1219920D01*
X2080400Y-1218620D01*
X2080100Y-1217080D01*
X2080100Y-730200D01*
X2079800Y-727060D01*
X2078940Y-724220D01*
X2077540Y-721620D01*
X2075540Y-719180D01*
X1666140Y-309780D01*
X1665220Y-308320D01*
X1664980Y-306620D01*
X1665500Y-304960D01*
X1666680Y-303680D01*
X1669199Y-301920D01*
X1671920Y-299200D01*
X1674120Y-296040D01*
X1675760Y-292560D01*
X1676960Y-287800D01*
X1678540Y-283360D01*
X1679480Y-281880D01*
X1730080Y-231280D01*
X1731380Y-230400D01*
X1732920Y-230100D01*
X1830480Y-230100D01*
X1832200Y-230479D01*
X1836800Y-232680D01*
X1838959Y-234120D01*
X1842440Y-235760D01*
X1846160Y-236740D01*
X1850000Y-237079D01*
X1853839Y-236740D01*
X1857560Y-235760D01*
X1861040Y-234120D01*
X1864199Y-231920D01*
X1866920Y-229200D01*
X1869120Y-226040D01*
X1870760Y-222560D01*
X1871740Y-218840D01*
X1872080Y-215000D01*
X1871740Y-211160D01*
X1870760Y-207440D01*
X1869120Y-203960D01*
X1866920Y-200799D01*
X1864199Y-198080D01*
X1861040Y-195880D01*
X1857560Y-194240D01*
X1853839Y-193260D01*
X1850000Y-192920D01*
X1846160Y-193260D01*
X1842440Y-194240D01*
X1838959Y-195880D01*
X1836800Y-197320D01*
X1832200Y-199520D01*
X1830480Y-199899D01*
X1725200Y-199899D01*
X1722060Y-200200D01*
X1719220Y-201060D01*
X1716620Y-202460D01*
X1714180Y-204460D01*
X1658120Y-260520D01*
X1656639Y-261460D01*
X1652200Y-263040D01*
X1647440Y-264240D01*
X1643959Y-265880D01*
X1640800Y-268080D01*
X1638080Y-270800D01*
X1636320Y-273320D01*
X1635040Y-274500D01*
X1633380Y-275020D01*
X1631680Y-274780D01*
X1630220Y-273860D01*
X1606279Y-249920D01*
X1605400Y-248619D01*
X1605100Y-247079D01*
X1605100Y-104520D01*
X1605480Y-102800D01*
X1607680Y-98200D01*
X1609120Y-96039D01*
X1610760Y-92560D01*
X1611740Y-88840D01*
X1612080Y-85000D01*
X1611740Y-81160D01*
X1610760Y-77440D01*
X1609120Y-73960D01*
X1606920Y-70800D01*
X1604199Y-68080D01*
X1601040Y-65880D01*
X1597560Y-64240D01*
X1596120Y-63860D01*
X1594580Y-63060D01*
X1593540Y-61700D01*
X1593160Y-60000D01*
X1593540Y-58300D01*
X1594580Y-56940D01*
X1596120Y-56140D01*
X1597560Y-55759D01*
X1601040Y-54120D01*
X1604199Y-51920D01*
X1606920Y-49200D01*
X1609120Y-46040D01*
X1610760Y-42560D01*
X1611740Y-38840D01*
X1612080Y-35000D01*
X1611740Y-31160D01*
X1610760Y-27440D01*
X1609120Y-23960D01*
X1607340Y-21400D01*
X1606660Y-19800D01*
X1606740Y-18060D01*
X1607540Y-16520D01*
X1608920Y-15480D01*
X1610600Y-15100D01*
X2180020Y-15100D01*
X2181540Y-15400D01*
X2182840Y-16279D01*
X2333720Y-167160D01*
X2334600Y-168460D01*
X2334900Y-169980D01*
X2334900Y-223580D01*
X2334760Y-224640D01*
X2332480Y-232860D01*
X2332040Y-233880D01*
X2329980Y-237240D01*
X2328280Y-241320D01*
X2327260Y-245600D01*
X2326920Y-250000D01*
X2327260Y-254400D01*
X2328280Y-258680D01*
X2329980Y-262760D01*
X2332280Y-266500D01*
X2335140Y-269860D01*
X2338500Y-272720D01*
X2342240Y-275020D01*
X2346320Y-276720D01*
X2350600Y-277740D01*
X2355000Y-278080D01*
X2359400Y-277740D01*
X2363680Y-276720D01*
X2367760Y-275020D01*
X2371500Y-272720D01*
X2374860Y-269860D01*
X2377720Y-266500D01*
X2380020Y-262760D01*
X2381720Y-258680D01*
X2382020Y-257440D01*
X2382720Y-255960D01*
X2383960Y-254880D01*
X2385540Y-254380D01*
X2387180Y-254579D01*
X2388600Y-255420D01*
X2389560Y-256759D01*
X2389900Y-258380D01*
X2389900Y-559920D01*
X2389560Y-561520D01*
X2388600Y-562860D01*
X2387200Y-563700D01*
X2385560Y-563900D01*
X2383980Y-563420D01*
X2380540Y-561540D01*
X2376020Y-559860D01*
X2373940Y-559400D01*
X2373940Y-577900D01*
X2385900Y-577900D01*
X2387440Y-578200D01*
X2388720Y-579060D01*
X2389600Y-580360D01*
X2389900Y-581900D01*
X2389900Y-602520D01*
X2389600Y-604040D01*
X2388720Y-605340D01*
X2387440Y-606220D01*
X2385900Y-606520D01*
X2373940Y-606520D01*
X2373940Y-625000D01*
X2376020Y-624540D01*
X2380540Y-622860D01*
X2383980Y-620980D01*
X2385560Y-620500D01*
X2387200Y-620700D01*
X2388600Y-621540D01*
X2389560Y-622880D01*
X2389900Y-624500D01*
X2389900Y-835500D01*
X2389560Y-837120D01*
X2388600Y-838460D01*
X2387200Y-839300D01*
X2385560Y-839500D01*
X2383980Y-839020D01*
X2380540Y-837140D01*
X2376020Y-835460D01*
X2373940Y-835000D01*
X2373940Y-853480D01*
X2385900Y-853480D01*
X2387440Y-853780D01*
X2388720Y-854659D01*
X2389600Y-855960D01*
X2389900Y-857480D01*
X2389900Y-878100D01*
X2389600Y-879640D01*
X2388720Y-880939D01*
X2387440Y-881800D01*
X2385900Y-882099D01*
X2373940Y-882099D01*
X2373940Y-900600D01*
X2376020Y-900140D01*
X2380540Y-898460D01*
X2383980Y-896580D01*
X2385560Y-896100D01*
X2387200Y-896300D01*
X2388600Y-897140D01*
X2389560Y-898480D01*
X2389900Y-900080D01*
X2389900Y-1585900D01*
X2389600Y-1587440D01*
X2388720Y-1588720D01*
X2387440Y-1589600D01*
X2385900Y-1589900D01*
G37*

%LPC*%
G36*
X2140000Y-1517080D02*
G01*
X2143840Y-1516740D01*
X2147560Y-1515760D01*
X2151040Y-1514120D01*
X2154200Y-1511920D01*
X2156920Y-1509199D01*
X2159120Y-1506040D01*
X2160760Y-1502560D01*
X2161740Y-1498839D01*
X2162080Y-1495000D01*
X2161740Y-1491160D01*
X2160760Y-1487440D01*
X2159120Y-1483959D01*
X2156920Y-1480800D01*
X2154200Y-1478080D01*
X2151040Y-1475880D01*
X2147560Y-1474240D01*
X2143840Y-1473260D01*
X2140000Y-1472920D01*
X2136160Y-1473260D01*
X2132440Y-1474240D01*
X2128960Y-1475880D01*
X2125800Y-1478080D01*
X2123080Y-1480800D01*
X2120880Y-1483959D01*
X2119240Y-1487440D01*
X2118260Y-1491160D01*
X2117920Y-1495000D01*
X2118260Y-1498839D01*
X2119240Y-1502560D01*
X2120880Y-1506040D01*
X2123080Y-1509199D01*
X2125800Y-1511920D01*
X2128960Y-1514120D01*
X2132440Y-1515760D01*
X2136160Y-1516740D01*
G37*
G36*
X1820640Y-1511579D02*
G01*
X1826060Y-1511240D01*
X1831399Y-1510180D01*
X1836540Y-1508420D01*
X1841420Y-1506020D01*
X1845940Y-1503000D01*
X1850040Y-1499400D01*
X1853620Y-1495320D01*
X1856680Y-1490760D01*
X1857780Y-1489640D01*
X1859220Y-1489060D01*
X1860780Y-1489060D01*
X1862220Y-1489640D01*
X1863320Y-1490760D01*
X1866380Y-1495320D01*
X1869960Y-1499400D01*
X1874060Y-1503000D01*
X1878580Y-1506020D01*
X1881120Y-1507280D01*
X1881120Y-1488240D01*
X1863839Y-1488240D01*
X1862360Y-1487960D01*
X1861080Y-1487140D01*
X1860200Y-1485920D01*
X1859840Y-1484460D01*
X1860060Y-1482960D01*
X1860800Y-1480760D01*
X1861860Y-1475420D01*
X1862220Y-1470000D01*
X1861860Y-1464580D01*
X1860800Y-1459240D01*
X1860060Y-1457040D01*
X1859840Y-1455540D01*
X1860200Y-1454079D01*
X1861080Y-1452860D01*
X1862360Y-1452040D01*
X1863839Y-1451759D01*
X1881120Y-1451759D01*
X1881120Y-1432720D01*
X1878580Y-1433980D01*
X1874060Y-1437000D01*
X1869960Y-1440600D01*
X1866380Y-1444680D01*
X1863320Y-1449240D01*
X1862220Y-1450360D01*
X1860780Y-1450940D01*
X1859220Y-1450940D01*
X1857780Y-1450360D01*
X1856680Y-1449240D01*
X1853620Y-1444680D01*
X1850040Y-1440600D01*
X1845940Y-1437000D01*
X1841420Y-1433980D01*
X1836540Y-1431579D01*
X1831399Y-1429820D01*
X1826060Y-1428760D01*
X1820640Y-1428420D01*
X1815200Y-1428760D01*
X1809860Y-1429820D01*
X1804720Y-1431579D01*
X1799840Y-1433980D01*
X1795320Y-1437000D01*
X1791220Y-1440600D01*
X1787640Y-1444680D01*
X1784620Y-1449199D01*
X1782200Y-1454079D01*
X1780460Y-1459240D01*
X1779400Y-1464580D01*
X1779040Y-1470000D01*
X1779400Y-1475420D01*
X1780460Y-1480760D01*
X1782200Y-1485920D01*
X1784620Y-1490800D01*
X1787640Y-1495320D01*
X1791220Y-1499400D01*
X1795320Y-1503000D01*
X1799840Y-1506020D01*
X1804720Y-1508420D01*
X1809860Y-1510180D01*
X1815200Y-1511240D01*
G37*
G36*
X1917620Y-1507280D02*
G01*
X1920160Y-1506020D01*
X1924680Y-1503000D01*
X1928779Y-1499400D01*
X1932360Y-1495320D01*
X1935380Y-1490800D01*
X1936639Y-1488240D01*
X1917620Y-1488240D01*
G37*
G36*
X1917620Y-1451759D02*
G01*
X1936639Y-1451759D01*
X1935380Y-1449199D01*
X1932360Y-1444680D01*
X1928779Y-1440600D01*
X1924680Y-1437000D01*
X1920160Y-1433980D01*
X1917620Y-1432720D01*
G37*
G36*
X460020Y-1440720D02*
G01*
X491300Y-1440720D01*
X494900Y-1440520D01*
X496360Y-1440340D01*
X499020Y-1439820D01*
X500540Y-1439440D01*
X503120Y-1438600D01*
X504500Y-1438060D01*
X506960Y-1436900D01*
X508320Y-1436160D01*
X510600Y-1434700D01*
X511820Y-1433820D01*
X513920Y-1432100D01*
X516880Y-1429060D01*
X517860Y-1427880D01*
X519460Y-1425680D01*
X520260Y-1424420D01*
X521560Y-1422040D01*
X522220Y-1420660D01*
X523220Y-1418120D01*
X523680Y-1416699D01*
X524360Y-1414060D01*
X524640Y-1412560D01*
X524980Y-1409860D01*
X525080Y-1408360D01*
X525080Y-1405640D01*
X524980Y-1404120D01*
X524640Y-1401440D01*
X524360Y-1399920D01*
X523680Y-1397300D01*
X523220Y-1395880D01*
X522220Y-1393340D01*
X521560Y-1391960D01*
X520260Y-1389580D01*
X519460Y-1388320D01*
X517860Y-1386120D01*
X516880Y-1384940D01*
X513920Y-1381900D01*
X511820Y-1380180D01*
X510600Y-1379300D01*
X508320Y-1377840D01*
X506980Y-1377120D01*
X504520Y-1375960D01*
X503080Y-1375380D01*
X500500Y-1374540D01*
X496400Y-1373660D01*
X494860Y-1373480D01*
X491300Y-1373280D01*
X460020Y-1373280D01*
X456460Y-1373480D01*
X454920Y-1373660D01*
X452260Y-1374180D01*
X450840Y-1374540D01*
X448240Y-1375380D01*
X446760Y-1375960D01*
X444320Y-1377120D01*
X443000Y-1377840D01*
X440720Y-1379300D01*
X439500Y-1380180D01*
X437400Y-1381900D01*
X434440Y-1384940D01*
X433459Y-1386120D01*
X431860Y-1388320D01*
X431060Y-1389580D01*
X429739Y-1391960D01*
X428100Y-1395840D01*
X427620Y-1397340D01*
X426960Y-1399960D01*
X426680Y-1401440D01*
X426340Y-1404120D01*
X426240Y-1405640D01*
X426240Y-1408360D01*
X426340Y-1409860D01*
X426940Y-1414019D01*
X427620Y-1416660D01*
X428100Y-1418160D01*
X429739Y-1422040D01*
X431060Y-1424420D01*
X431860Y-1425680D01*
X433459Y-1427880D01*
X434440Y-1429060D01*
X437400Y-1432100D01*
X439500Y-1433820D01*
X440720Y-1434700D01*
X443000Y-1436160D01*
X444340Y-1436900D01*
X446800Y-1438040D01*
X448200Y-1438600D01*
X450800Y-1439440D01*
X452280Y-1439820D01*
X454960Y-1440340D01*
X456420Y-1440520D01*
G37*
G36*
X1629660Y-1440720D02*
G01*
X1660980Y-1440720D01*
X1664580Y-1440520D01*
X1666040Y-1440340D01*
X1668720Y-1439820D01*
X1670200Y-1439440D01*
X1672800Y-1438600D01*
X1674199Y-1438040D01*
X1676660Y-1436900D01*
X1678000Y-1436160D01*
X1680280Y-1434700D01*
X1681500Y-1433820D01*
X1683600Y-1432100D01*
X1686560Y-1429060D01*
X1687540Y-1427880D01*
X1689139Y-1425680D01*
X1689940Y-1424420D01*
X1691260Y-1422040D01*
X1692900Y-1418160D01*
X1693380Y-1416660D01*
X1694060Y-1414019D01*
X1694660Y-1409860D01*
X1694760Y-1408360D01*
X1694760Y-1405640D01*
X1694660Y-1404120D01*
X1694319Y-1401440D01*
X1694040Y-1399960D01*
X1693380Y-1397340D01*
X1692900Y-1395840D01*
X1691260Y-1391960D01*
X1689940Y-1389580D01*
X1689139Y-1388320D01*
X1687540Y-1386120D01*
X1686560Y-1384940D01*
X1683600Y-1381900D01*
X1681500Y-1380180D01*
X1680280Y-1379300D01*
X1678000Y-1377840D01*
X1676680Y-1377120D01*
X1674240Y-1375960D01*
X1672760Y-1375380D01*
X1670160Y-1374540D01*
X1668740Y-1374180D01*
X1666080Y-1373660D01*
X1664540Y-1373480D01*
X1660980Y-1373280D01*
X1629700Y-1373280D01*
X1626140Y-1373480D01*
X1624600Y-1373660D01*
X1620500Y-1374540D01*
X1617920Y-1375380D01*
X1616480Y-1375960D01*
X1614019Y-1377120D01*
X1612680Y-1377840D01*
X1610400Y-1379300D01*
X1609180Y-1380180D01*
X1607080Y-1381900D01*
X1604120Y-1384940D01*
X1603140Y-1386120D01*
X1601540Y-1388320D01*
X1600740Y-1389580D01*
X1599440Y-1391960D01*
X1598779Y-1393340D01*
X1597780Y-1395880D01*
X1597320Y-1397300D01*
X1596639Y-1399920D01*
X1596360Y-1401440D01*
X1596020Y-1404120D01*
X1595920Y-1405640D01*
X1595920Y-1408360D01*
X1596020Y-1409860D01*
X1596360Y-1412560D01*
X1596639Y-1414060D01*
X1597320Y-1416699D01*
X1597780Y-1418120D01*
X1598779Y-1420660D01*
X1599440Y-1422040D01*
X1600740Y-1424420D01*
X1601540Y-1425680D01*
X1603140Y-1427880D01*
X1604120Y-1429060D01*
X1607080Y-1432100D01*
X1609180Y-1433820D01*
X1610400Y-1434700D01*
X1612680Y-1436160D01*
X1614040Y-1436900D01*
X1616500Y-1438060D01*
X1617880Y-1438600D01*
X1620460Y-1439440D01*
X1621980Y-1439820D01*
X1624640Y-1440340D01*
X1626100Y-1440520D01*
G37*
G36*
X1629700Y-1340720D02*
G01*
X1631020Y-1340720D01*
X1631020Y-1329160D01*
X1604199Y-1329160D01*
X1607080Y-1332100D01*
X1609180Y-1333820D01*
X1610400Y-1334700D01*
X1612680Y-1336160D01*
X1614040Y-1336900D01*
X1616500Y-1338060D01*
X1617880Y-1338600D01*
X1620460Y-1339440D01*
X1621980Y-1339820D01*
X1624640Y-1340340D01*
X1626100Y-1340520D01*
G37*
G36*
X460020Y-1340720D02*
G01*
X491300Y-1340720D01*
X494900Y-1340520D01*
X496360Y-1340340D01*
X499020Y-1339820D01*
X500540Y-1339440D01*
X503120Y-1338600D01*
X504500Y-1338060D01*
X506960Y-1336900D01*
X508320Y-1336160D01*
X510600Y-1334700D01*
X511820Y-1333820D01*
X513920Y-1332100D01*
X516880Y-1329060D01*
X517860Y-1327880D01*
X519460Y-1325680D01*
X520260Y-1324420D01*
X521560Y-1322040D01*
X522220Y-1320660D01*
X523220Y-1318120D01*
X523680Y-1316699D01*
X524360Y-1314060D01*
X524640Y-1312560D01*
X524980Y-1309860D01*
X525080Y-1308360D01*
X525080Y-1305640D01*
X524980Y-1304139D01*
X524640Y-1301440D01*
X524360Y-1299920D01*
X523680Y-1297300D01*
X523220Y-1295880D01*
X522220Y-1293340D01*
X521560Y-1291960D01*
X520260Y-1289580D01*
X519460Y-1288320D01*
X517860Y-1286120D01*
X516880Y-1284940D01*
X513920Y-1281900D01*
X511820Y-1280180D01*
X510600Y-1279300D01*
X508320Y-1277840D01*
X506960Y-1277100D01*
X504500Y-1275940D01*
X503120Y-1275400D01*
X500540Y-1274560D01*
X499060Y-1274180D01*
X496400Y-1273660D01*
X494860Y-1273480D01*
X491300Y-1273280D01*
X460020Y-1273280D01*
X456460Y-1273480D01*
X454920Y-1273660D01*
X452260Y-1274180D01*
X450800Y-1274560D01*
X448200Y-1275400D01*
X446800Y-1275960D01*
X444340Y-1277100D01*
X443000Y-1277840D01*
X440720Y-1279300D01*
X439500Y-1280180D01*
X437400Y-1281900D01*
X434440Y-1284940D01*
X433459Y-1286120D01*
X431860Y-1288320D01*
X431060Y-1289580D01*
X429739Y-1291960D01*
X428100Y-1295840D01*
X427620Y-1297340D01*
X426960Y-1299960D01*
X426680Y-1301440D01*
X426340Y-1304139D01*
X426240Y-1305640D01*
X426240Y-1308360D01*
X426340Y-1309860D01*
X426940Y-1314019D01*
X427620Y-1316660D01*
X428100Y-1318160D01*
X429739Y-1322040D01*
X431060Y-1324420D01*
X431860Y-1325680D01*
X433459Y-1327880D01*
X434440Y-1329060D01*
X437400Y-1332100D01*
X439500Y-1333820D01*
X440720Y-1334700D01*
X443000Y-1336160D01*
X444340Y-1336900D01*
X446800Y-1338040D01*
X448200Y-1338600D01*
X450800Y-1339440D01*
X452280Y-1339820D01*
X454960Y-1340340D01*
X456420Y-1340520D01*
G37*
G36*
X1659660Y-1340700D02*
G01*
X1661860Y-1340700D01*
X1664580Y-1340520D01*
X1666040Y-1340340D01*
X1668720Y-1339820D01*
X1670200Y-1339440D01*
X1672800Y-1338600D01*
X1674199Y-1338040D01*
X1676660Y-1336900D01*
X1678000Y-1336160D01*
X1680280Y-1334700D01*
X1681500Y-1333820D01*
X1683600Y-1332100D01*
X1686480Y-1329160D01*
X1659660Y-1329160D01*
G37*
G36*
X1604199Y-1284840D02*
G01*
X1631020Y-1284840D01*
X1631020Y-1273300D01*
X1628860Y-1273300D01*
X1624600Y-1273660D01*
X1621940Y-1274180D01*
X1620460Y-1274560D01*
X1617880Y-1275400D01*
X1616500Y-1275940D01*
X1614040Y-1277100D01*
X1612680Y-1277840D01*
X1610400Y-1279300D01*
X1609180Y-1280180D01*
X1607080Y-1281900D01*
G37*
G36*
X1659660Y-1284840D02*
G01*
X1686480Y-1284840D01*
X1683600Y-1281900D01*
X1681500Y-1280180D01*
X1680280Y-1279300D01*
X1678000Y-1277840D01*
X1676660Y-1277100D01*
X1674199Y-1275960D01*
X1672800Y-1275400D01*
X1670200Y-1274560D01*
X1668740Y-1274180D01*
X1666080Y-1273660D01*
X1664540Y-1273480D01*
X1660980Y-1273280D01*
X1659660Y-1273280D01*
G37*
G36*
X2225000Y-1222080D02*
G01*
X2228840Y-1221740D01*
X2232560Y-1220760D01*
X2233140Y-1220480D01*
X2234840Y-1220100D01*
X2274920Y-1220100D01*
X2276760Y-1220020D01*
X2278480Y-1219800D01*
X2280200Y-1219420D01*
X2281880Y-1218880D01*
X2283500Y-1218220D01*
X2285040Y-1217400D01*
X2286520Y-1216460D01*
X2287920Y-1215400D01*
X2289280Y-1214160D01*
X2370760Y-1132680D01*
X2372300Y-1130740D01*
X2373340Y-1128540D01*
X2374420Y-1125200D01*
X2374800Y-1123480D01*
X2375020Y-1121760D01*
X2375100Y-1119920D01*
X2375100Y-1114840D01*
X2375480Y-1113140D01*
X2375760Y-1112560D01*
X2376740Y-1108840D01*
X2377080Y-1105000D01*
X2376740Y-1101160D01*
X2375760Y-1097440D01*
X2374120Y-1093960D01*
X2371920Y-1090800D01*
X2369200Y-1088080D01*
X2366040Y-1085880D01*
X2362560Y-1084240D01*
X2358840Y-1083260D01*
X2355000Y-1082920D01*
X2351160Y-1083260D01*
X2347440Y-1084240D01*
X2343960Y-1085880D01*
X2340800Y-1088080D01*
X2338080Y-1090800D01*
X2335880Y-1093960D01*
X2334240Y-1097440D01*
X2333260Y-1101160D01*
X2332920Y-1105000D01*
X2333260Y-1108840D01*
X2333600Y-1110140D01*
X2333720Y-1111520D01*
X2333360Y-1112880D01*
X2332560Y-1114000D01*
X2267840Y-1178720D01*
X2266540Y-1179600D01*
X2265020Y-1179900D01*
X2234840Y-1179900D01*
X2233140Y-1179520D01*
X2232560Y-1179240D01*
X2228840Y-1178260D01*
X2225000Y-1177920D01*
X2221160Y-1178260D01*
X2217440Y-1179240D01*
X2213960Y-1180880D01*
X2210800Y-1183080D01*
X2208080Y-1185800D01*
X2205880Y-1188960D01*
X2204240Y-1192440D01*
X2203260Y-1196160D01*
X2202920Y-1200000D01*
X2203260Y-1203840D01*
X2204240Y-1207560D01*
X2205880Y-1211040D01*
X2208080Y-1214200D01*
X2210800Y-1216920D01*
X2213960Y-1219120D01*
X2217440Y-1220760D01*
X2221160Y-1221740D01*
G37*
G36*
X459980Y-1040720D02*
G01*
X491300Y-1040720D01*
X494900Y-1040520D01*
X496360Y-1040340D01*
X499020Y-1039820D01*
X500540Y-1039440D01*
X503120Y-1038600D01*
X504500Y-1038060D01*
X506960Y-1036900D01*
X508320Y-1036160D01*
X510600Y-1034700D01*
X511820Y-1033820D01*
X513920Y-1032099D01*
X516880Y-1029060D01*
X517860Y-1027880D01*
X519460Y-1025680D01*
X520260Y-1024419D01*
X521560Y-1022039D01*
X522220Y-1020660D01*
X523220Y-1018120D01*
X523680Y-1016700D01*
X524360Y-1014080D01*
X524640Y-1012560D01*
X524980Y-1009860D01*
X525080Y-1008360D01*
X525080Y-1005639D01*
X524980Y-1004140D01*
X524640Y-1001440D01*
X524360Y-999920D01*
X523680Y-997300D01*
X523220Y-995879D01*
X522220Y-993340D01*
X521560Y-991960D01*
X520260Y-989580D01*
X519460Y-988319D01*
X517860Y-986120D01*
X516880Y-984940D01*
X513920Y-981900D01*
X511820Y-980180D01*
X510600Y-979300D01*
X508320Y-977840D01*
X506960Y-977099D01*
X504500Y-975939D01*
X503120Y-975400D01*
X500540Y-974560D01*
X499060Y-974180D01*
X496400Y-973660D01*
X494860Y-973480D01*
X491300Y-973280D01*
X460020Y-973280D01*
X456460Y-973480D01*
X454920Y-973660D01*
X452260Y-974180D01*
X450800Y-974560D01*
X448200Y-975400D01*
X446800Y-975960D01*
X444340Y-977099D01*
X443000Y-977840D01*
X440720Y-979300D01*
X439500Y-980180D01*
X437400Y-981900D01*
X434440Y-984940D01*
X433459Y-986120D01*
X431860Y-988319D01*
X431060Y-989580D01*
X429739Y-991960D01*
X428100Y-995840D01*
X427620Y-997340D01*
X426960Y-999960D01*
X426680Y-1001440D01*
X426340Y-1004140D01*
X426240Y-1005639D01*
X426240Y-1008360D01*
X426340Y-1009860D01*
X426680Y-1012560D01*
X426960Y-1014040D01*
X427620Y-1016660D01*
X428100Y-1018160D01*
X429739Y-1022039D01*
X431060Y-1024419D01*
X431860Y-1025680D01*
X433459Y-1027880D01*
X434440Y-1029060D01*
X437400Y-1032099D01*
X439500Y-1033820D01*
X440720Y-1034700D01*
X443000Y-1036160D01*
X444340Y-1036900D01*
X446800Y-1038040D01*
X448200Y-1038600D01*
X450800Y-1039440D01*
X452280Y-1039820D01*
X454960Y-1040340D01*
X456420Y-1040520D01*
G37*
G36*
X2331540Y-900600D02*
G01*
X2331540Y-882099D01*
X2308460Y-882099D01*
X2310600Y-886020D01*
X2313480Y-889880D01*
X2316880Y-893280D01*
X2320740Y-896160D01*
X2324960Y-898460D01*
X2329460Y-900140D01*
G37*
G36*
X1985000Y-862080D02*
G01*
X1988839Y-861740D01*
X1992560Y-860759D01*
X1996040Y-859120D01*
X1999199Y-856919D01*
X2001920Y-854200D01*
X2004120Y-851040D01*
X2005760Y-847560D01*
X2006740Y-843840D01*
X2007080Y-840000D01*
X2006740Y-836160D01*
X2005760Y-832440D01*
X2004120Y-828960D01*
X2001920Y-825800D01*
X1999199Y-823080D01*
X1996040Y-820879D01*
X1992560Y-819240D01*
X1988839Y-818259D01*
X1985000Y-817920D01*
X1981160Y-818259D01*
X1977440Y-819240D01*
X1973959Y-820879D01*
X1970800Y-823080D01*
X1968080Y-825800D01*
X1965880Y-828960D01*
X1964240Y-832440D01*
X1963260Y-836160D01*
X1962920Y-840000D01*
X1963260Y-843840D01*
X1964240Y-847560D01*
X1965880Y-851040D01*
X1968080Y-854200D01*
X1970800Y-856919D01*
X1973959Y-859120D01*
X1977440Y-860759D01*
X1981160Y-861740D01*
G37*
G36*
X2265500Y-860420D02*
G01*
X2269120Y-859060D01*
X2273340Y-856760D01*
X2277200Y-853880D01*
X2280600Y-850480D01*
X2283480Y-846620D01*
X2285620Y-842720D01*
X2265500Y-842720D01*
G37*
G36*
X2229000Y-860420D02*
G01*
X2229000Y-842720D01*
X2208880Y-842720D01*
X2211020Y-846620D01*
X2213900Y-850480D01*
X2217300Y-853880D01*
X2221140Y-856760D01*
X2225360Y-859060D01*
G37*
G36*
X2308460Y-853480D02*
G01*
X2331540Y-853480D01*
X2331540Y-835000D01*
X2329460Y-835460D01*
X2324960Y-837140D01*
X2320740Y-839440D01*
X2316880Y-842320D01*
X2313480Y-845720D01*
X2310600Y-849580D01*
G37*
G36*
X2265500Y-814100D02*
G01*
X2285620Y-814100D01*
X2283480Y-810180D01*
X2280600Y-806320D01*
X2277200Y-802920D01*
X2273340Y-800040D01*
X2269120Y-797740D01*
X2265500Y-796380D01*
G37*
G36*
X2208880Y-814100D02*
G01*
X2229000Y-814100D01*
X2229000Y-796380D01*
X2225360Y-797740D01*
X2221140Y-800040D01*
X2217300Y-802920D01*
X2213900Y-806320D01*
X2211020Y-810180D01*
G37*
G36*
X504760Y-778400D02*
G01*
X590920Y-778400D01*
X593380Y-778120D01*
X595520Y-777380D01*
X597420Y-776180D01*
X599020Y-774580D01*
X600220Y-772680D01*
X600960Y-770540D01*
X601240Y-768080D01*
X601240Y-681919D01*
X600960Y-679460D01*
X600220Y-677320D01*
X599020Y-675420D01*
X597420Y-673820D01*
X595520Y-672620D01*
X593380Y-671880D01*
X590920Y-671600D01*
X504760Y-671600D01*
X502280Y-671880D01*
X500160Y-672620D01*
X498240Y-673820D01*
X496659Y-675420D01*
X495460Y-677320D01*
X494700Y-679460D01*
X494440Y-681919D01*
X494440Y-768080D01*
X494700Y-770540D01*
X495460Y-772680D01*
X496659Y-774580D01*
X498240Y-776180D01*
X500160Y-777380D01*
X502280Y-778120D01*
G37*
G36*
X926320Y-772520D02*
G01*
X928860Y-771240D01*
X934060Y-767840D01*
X938800Y-763840D01*
X943080Y-759320D01*
X946780Y-754340D01*
X949780Y-749160D01*
X926320Y-749160D01*
G37*
G36*
X878020Y-772520D02*
G01*
X878020Y-749160D01*
X854560Y-749160D01*
X857560Y-754340D01*
X861260Y-759320D01*
X865520Y-763840D01*
X870280Y-767840D01*
X875460Y-771240D01*
G37*
G36*
X1560000Y-739080D02*
G01*
X1564860Y-738740D01*
X1569600Y-737700D01*
X1574160Y-736000D01*
X1578440Y-733680D01*
X1582320Y-730759D01*
X1585760Y-727320D01*
X1588680Y-723439D01*
X1591000Y-719160D01*
X1592700Y-714599D01*
X1593740Y-709860D01*
X1594079Y-705000D01*
X1593740Y-700140D01*
X1592700Y-695400D01*
X1591000Y-690840D01*
X1588680Y-686560D01*
X1585760Y-682680D01*
X1582320Y-679240D01*
X1578440Y-676320D01*
X1574160Y-674000D01*
X1569600Y-672300D01*
X1564860Y-671260D01*
X1560000Y-670920D01*
X1555140Y-671260D01*
X1550400Y-672300D01*
X1545840Y-674000D01*
X1541560Y-676320D01*
X1537680Y-679240D01*
X1534240Y-682680D01*
X1531320Y-686560D01*
X1529000Y-690840D01*
X1527300Y-695400D01*
X1526260Y-700140D01*
X1525920Y-705000D01*
X1526260Y-709860D01*
X1527300Y-714599D01*
X1529000Y-719160D01*
X1531320Y-723439D01*
X1534240Y-727320D01*
X1537680Y-730759D01*
X1541560Y-733680D01*
X1545840Y-736000D01*
X1550400Y-737700D01*
X1555140Y-738740D01*
G37*
G36*
X926320Y-700840D02*
G01*
X949780Y-700840D01*
X946780Y-695660D01*
X943080Y-690680D01*
X938800Y-686160D01*
X934060Y-682159D01*
X928860Y-678760D01*
X926320Y-677480D01*
G37*
G36*
X854560Y-700840D02*
G01*
X878020Y-700840D01*
X878020Y-677480D01*
X875460Y-678760D01*
X870280Y-682159D01*
X865520Y-686160D01*
X861260Y-690680D01*
X857560Y-695660D01*
G37*
G36*
X2265500Y-663620D02*
G01*
X2269120Y-662260D01*
X2273340Y-659960D01*
X2277200Y-657080D01*
X2280600Y-653680D01*
X2283480Y-649820D01*
X2285620Y-645920D01*
X2265500Y-645920D01*
G37*
G36*
X2229000Y-663620D02*
G01*
X2229000Y-645920D01*
X2208880Y-645920D01*
X2211020Y-649820D01*
X2213900Y-653680D01*
X2217300Y-657080D01*
X2221140Y-659960D01*
X2225360Y-662260D01*
G37*
G36*
X2331540Y-625000D02*
G01*
X2331540Y-606520D01*
X2308460Y-606520D01*
X2310600Y-610420D01*
X2313480Y-614280D01*
X2316880Y-617680D01*
X2320740Y-620560D01*
X2324960Y-622860D01*
X2329460Y-624540D01*
G37*
G36*
X2265500Y-617300D02*
G01*
X2285620Y-617300D01*
X2283480Y-613380D01*
X2280600Y-609520D01*
X2277200Y-606120D01*
X2273340Y-603240D01*
X2269120Y-600940D01*
X2265500Y-599580D01*
G37*
G36*
X2208880Y-617300D02*
G01*
X2229000Y-617300D01*
X2229000Y-599580D01*
X2225360Y-600940D01*
X2221140Y-603240D01*
X2217300Y-606120D01*
X2213900Y-609520D01*
X2211020Y-613380D01*
G37*
G36*
X575000Y-582080D02*
G01*
X578840Y-581740D01*
X582560Y-580760D01*
X586040Y-579120D01*
X589200Y-576920D01*
X591920Y-574200D01*
X594120Y-571040D01*
X595760Y-567560D01*
X596740Y-563840D01*
X597080Y-560000D01*
X596740Y-556160D01*
X595760Y-552440D01*
X594120Y-548960D01*
X592680Y-546800D01*
X590480Y-542200D01*
X590100Y-540480D01*
X590100Y-402920D01*
X590400Y-401380D01*
X591280Y-400080D01*
X763080Y-228280D01*
X764360Y-227420D01*
X765900Y-227120D01*
X767440Y-227420D01*
X768720Y-228280D01*
X769599Y-229579D01*
X769900Y-231119D01*
X769900Y-450480D01*
X769520Y-452200D01*
X767320Y-456800D01*
X765879Y-458960D01*
X764240Y-462440D01*
X763259Y-466160D01*
X762920Y-470000D01*
X763259Y-473840D01*
X764240Y-477560D01*
X765879Y-481040D01*
X768080Y-484200D01*
X770800Y-486920D01*
X773960Y-489120D01*
X777440Y-490760D01*
X781160Y-491740D01*
X785000Y-492080D01*
X788840Y-491740D01*
X792560Y-490760D01*
X796040Y-489120D01*
X799200Y-486920D01*
X801919Y-484200D01*
X804120Y-481040D01*
X805759Y-477560D01*
X806740Y-473840D01*
X807080Y-470000D01*
X806740Y-466160D01*
X805759Y-462440D01*
X804120Y-458960D01*
X802680Y-456800D01*
X800480Y-452200D01*
X800100Y-450480D01*
X800100Y-227920D01*
X800400Y-226380D01*
X801280Y-225080D01*
X806880Y-219480D01*
X808360Y-218540D01*
X812800Y-216960D01*
X817560Y-215760D01*
X821040Y-214120D01*
X824200Y-211920D01*
X826919Y-209200D01*
X829120Y-206040D01*
X830759Y-202560D01*
X831740Y-198840D01*
X832080Y-195000D01*
X831740Y-191160D01*
X831480Y-190140D01*
X831360Y-188680D01*
X831780Y-187280D01*
X832660Y-186119D01*
X833900Y-185360D01*
X835340Y-185100D01*
X869800Y-185100D01*
X872940Y-184800D01*
X875780Y-183939D01*
X878379Y-182540D01*
X880819Y-180539D01*
X883080Y-178280D01*
X884360Y-177420D01*
X885900Y-177120D01*
X887440Y-177420D01*
X888720Y-178280D01*
X889599Y-179579D01*
X889900Y-181119D01*
X889900Y-281400D01*
X889580Y-282960D01*
X888680Y-284280D01*
X887340Y-285120D01*
X885759Y-285400D01*
X884200Y-285020D01*
X882560Y-284240D01*
X878840Y-283260D01*
X875000Y-282920D01*
X871160Y-283260D01*
X867440Y-284240D01*
X863960Y-285880D01*
X860800Y-288080D01*
X858080Y-290800D01*
X855879Y-293960D01*
X854240Y-297440D01*
X853259Y-301160D01*
X852920Y-305000D01*
X853259Y-308840D01*
X854240Y-312560D01*
X855879Y-316040D01*
X858080Y-319200D01*
X860800Y-321920D01*
X863960Y-324120D01*
X867440Y-325760D01*
X871160Y-326740D01*
X875000Y-327080D01*
X878840Y-326740D01*
X882560Y-325760D01*
X884200Y-324980D01*
X885759Y-324600D01*
X887340Y-324880D01*
X888680Y-325720D01*
X889580Y-327040D01*
X889900Y-328600D01*
X889900Y-452080D01*
X889599Y-453620D01*
X888720Y-454920D01*
X878880Y-464780D01*
X877440Y-465700D01*
X875759Y-465940D01*
X874120Y-465460D01*
X872840Y-464340D01*
X872140Y-462800D01*
X872140Y-461100D01*
X872840Y-459540D01*
X873680Y-458440D01*
X876000Y-454159D01*
X877700Y-449600D01*
X878740Y-444860D01*
X879080Y-440000D01*
X878740Y-435140D01*
X877700Y-430400D01*
X876000Y-425840D01*
X873680Y-421560D01*
X870759Y-417680D01*
X867320Y-414240D01*
X863439Y-411320D01*
X859160Y-409000D01*
X854599Y-407299D01*
X849860Y-406260D01*
X845000Y-405920D01*
X840140Y-406260D01*
X835400Y-407299D01*
X830840Y-409000D01*
X826560Y-411320D01*
X822680Y-414240D01*
X819240Y-417680D01*
X816320Y-421560D01*
X814000Y-425840D01*
X812300Y-430400D01*
X811260Y-435140D01*
X810920Y-440000D01*
X811260Y-444860D01*
X812300Y-449600D01*
X814000Y-454159D01*
X816320Y-458440D01*
X819240Y-462320D01*
X822680Y-465760D01*
X826560Y-468680D01*
X830840Y-471000D01*
X835400Y-472700D01*
X840140Y-473740D01*
X845000Y-474080D01*
X850240Y-473700D01*
X851840Y-473900D01*
X853220Y-474720D01*
X854180Y-476019D01*
X854539Y-477580D01*
X854260Y-479180D01*
X850879Y-483960D01*
X849240Y-487440D01*
X848259Y-491160D01*
X847920Y-495000D01*
X848259Y-498840D01*
X849240Y-502560D01*
X850879Y-506040D01*
X853080Y-509200D01*
X855800Y-511920D01*
X858960Y-514120D01*
X862440Y-515760D01*
X866160Y-516740D01*
X870000Y-517080D01*
X873840Y-516740D01*
X877560Y-515760D01*
X881040Y-514120D01*
X884200Y-511920D01*
X886919Y-509200D01*
X889120Y-506040D01*
X890759Y-502560D01*
X891960Y-497800D01*
X893540Y-493360D01*
X894479Y-491880D01*
X915540Y-470820D01*
X917540Y-468380D01*
X918940Y-465780D01*
X919800Y-462939D01*
X920100Y-459799D01*
X920100Y-182920D01*
X920400Y-181380D01*
X921280Y-180080D01*
X1171880Y70520D01*
X1173360Y71460D01*
X1177800Y73040D01*
X1182560Y74240D01*
X1186040Y75880D01*
X1189200Y78080D01*
X1191920Y80800D01*
X1194120Y83960D01*
X1195760Y87440D01*
X1196740Y91160D01*
X1197080Y95000D01*
X1196740Y98840D01*
X1195760Y102560D01*
X1194120Y106039D01*
X1191920Y109200D01*
X1189200Y111920D01*
X1186040Y114120D01*
X1182560Y115760D01*
X1178840Y116740D01*
X1176940Y116920D01*
X1175280Y117440D01*
X1174740Y117440D01*
X1173080Y116920D01*
X1170760Y116700D01*
X1169380Y116820D01*
X1168100Y117400D01*
X1167120Y118379D01*
X1166480Y119860D01*
X1166360Y121320D01*
X1166780Y122720D01*
X1167660Y123880D01*
X1168900Y124640D01*
X1170340Y124900D01*
X1172720Y124900D01*
X1174400Y124520D01*
X1175000Y124060D01*
X1175600Y124520D01*
X1177280Y124900D01*
X1547080Y124900D01*
X1548620Y124600D01*
X1549920Y123720D01*
X1555520Y118120D01*
X1556459Y116640D01*
X1558040Y112200D01*
X1559240Y107440D01*
X1560880Y103960D01*
X1563080Y100800D01*
X1565800Y98080D01*
X1568959Y95879D01*
X1572440Y94240D01*
X1576160Y93260D01*
X1580000Y92920D01*
X1583839Y93260D01*
X1587560Y94240D01*
X1591040Y95879D01*
X1594199Y98080D01*
X1596920Y100800D01*
X1599120Y103960D01*
X1600760Y107440D01*
X1601740Y111160D01*
X1602080Y115000D01*
X1601740Y118840D01*
X1600760Y122560D01*
X1599120Y126039D01*
X1596920Y129200D01*
X1594199Y131920D01*
X1591040Y134120D01*
X1587560Y135760D01*
X1582800Y136960D01*
X1578360Y138540D01*
X1576879Y139480D01*
X1565820Y150540D01*
X1563380Y152540D01*
X1560780Y153940D01*
X1557940Y154800D01*
X1554800Y155100D01*
X1015200Y155100D01*
X1012060Y154800D01*
X1009220Y153940D01*
X1006620Y152540D01*
X1004180Y150540D01*
X988120Y134480D01*
X986640Y133540D01*
X982200Y131960D01*
X977440Y130760D01*
X973960Y129120D01*
X970800Y126920D01*
X968080Y124200D01*
X965879Y121039D01*
X964240Y117560D01*
X963259Y113840D01*
X962920Y110000D01*
X963259Y106160D01*
X964240Y102440D01*
X965879Y98960D01*
X968080Y95800D01*
X970800Y93080D01*
X973960Y90879D01*
X977440Y89240D01*
X981160Y88260D01*
X985000Y87920D01*
X988840Y88260D01*
X992560Y89240D01*
X996040Y90879D01*
X999200Y93080D01*
X1001919Y95800D01*
X1004120Y98960D01*
X1005759Y102440D01*
X1006960Y107200D01*
X1008540Y111640D01*
X1009479Y113120D01*
X1020080Y123720D01*
X1021380Y124600D01*
X1022920Y124900D01*
X1088880Y124900D01*
X1090420Y124600D01*
X1091720Y123720D01*
X1092580Y122440D01*
X1092880Y120900D01*
X1092580Y119360D01*
X1091720Y118080D01*
X889920Y-83720D01*
X888620Y-84600D01*
X887080Y-84900D01*
X775200Y-84900D01*
X772060Y-85200D01*
X769220Y-86060D01*
X767099Y-87200D01*
X765740Y-87640D01*
X764320Y-87560D01*
X763000Y-87000D01*
X761979Y-86000D01*
X761360Y-84700D01*
X760759Y-82440D01*
X759120Y-78960D01*
X756919Y-75800D01*
X754200Y-73080D01*
X751040Y-70880D01*
X747560Y-69240D01*
X743840Y-68260D01*
X740000Y-67920D01*
X736160Y-68260D01*
X732440Y-69240D01*
X728960Y-70880D01*
X725800Y-73080D01*
X723080Y-75800D01*
X720879Y-78960D01*
X719240Y-82440D01*
X718259Y-86160D01*
X717920Y-90000D01*
X718259Y-93840D01*
X719240Y-97560D01*
X720879Y-101039D01*
X723080Y-104200D01*
X725800Y-106920D01*
X728960Y-109120D01*
X732440Y-110760D01*
X734000Y-111160D01*
X735480Y-111920D01*
X736520Y-113219D01*
X736960Y-114820D01*
X736700Y-116460D01*
X735780Y-117860D01*
X594920Y-258720D01*
X593620Y-259600D01*
X592080Y-259899D01*
X514520Y-259899D01*
X512800Y-259520D01*
X508200Y-257320D01*
X506040Y-255880D01*
X502560Y-254240D01*
X498840Y-253260D01*
X495000Y-252920D01*
X491160Y-253260D01*
X487440Y-254240D01*
X483960Y-255880D01*
X480800Y-258080D01*
X478080Y-260799D01*
X475880Y-263960D01*
X474240Y-267440D01*
X473260Y-271160D01*
X472920Y-275000D01*
X473260Y-278840D01*
X474240Y-282560D01*
X475880Y-286040D01*
X478080Y-289200D01*
X480800Y-291920D01*
X483960Y-294120D01*
X487440Y-295760D01*
X491160Y-296740D01*
X495000Y-297080D01*
X498840Y-296740D01*
X499780Y-296500D01*
X501260Y-296380D01*
X502700Y-296840D01*
X503860Y-297800D01*
X504600Y-299100D01*
X504799Y-300600D01*
X503260Y-306160D01*
X502920Y-310000D01*
X503260Y-313840D01*
X504240Y-317560D01*
X505880Y-321040D01*
X508080Y-324200D01*
X510800Y-326920D01*
X513960Y-329120D01*
X517440Y-330760D01*
X521160Y-331740D01*
X525000Y-332080D01*
X528840Y-331740D01*
X532560Y-330760D01*
X536040Y-329120D01*
X538200Y-327680D01*
X542800Y-325480D01*
X544520Y-325100D01*
X613880Y-325100D01*
X615420Y-325400D01*
X616720Y-326280D01*
X617580Y-327560D01*
X617880Y-329099D01*
X617580Y-330640D01*
X616720Y-331920D01*
X564460Y-384180D01*
X562460Y-386620D01*
X561060Y-389219D01*
X560200Y-392060D01*
X559900Y-395200D01*
X559900Y-540480D01*
X559520Y-542200D01*
X557320Y-546800D01*
X555880Y-548960D01*
X554240Y-552440D01*
X553260Y-556160D01*
X552920Y-560000D01*
X553260Y-563840D01*
X554240Y-567560D01*
X555880Y-571040D01*
X558080Y-574200D01*
X560800Y-576920D01*
X563960Y-579120D01*
X567440Y-580760D01*
X571160Y-581740D01*
G37*
G36*
X2308460Y-577900D02*
G01*
X2331540Y-577900D01*
X2331540Y-559400D01*
X2329460Y-559860D01*
X2324960Y-561540D01*
X2320740Y-563840D01*
X2316880Y-566720D01*
X2313480Y-570120D01*
X2310600Y-573980D01*
G37*
G36*
X1055000Y-504080D02*
G01*
X1059860Y-503740D01*
X1064600Y-502700D01*
X1069160Y-501000D01*
X1073440Y-498680D01*
X1077320Y-495760D01*
X1080760Y-492320D01*
X1083680Y-488440D01*
X1086000Y-484159D01*
X1087700Y-479600D01*
X1088740Y-474860D01*
X1089080Y-470000D01*
X1088740Y-465140D01*
X1087700Y-460400D01*
X1086000Y-455840D01*
X1083680Y-451560D01*
X1080760Y-447680D01*
X1077320Y-444240D01*
X1073440Y-441320D01*
X1069160Y-439000D01*
X1064600Y-437299D01*
X1059860Y-436260D01*
X1055000Y-435920D01*
X1050140Y-436260D01*
X1045400Y-437299D01*
X1040840Y-439000D01*
X1036560Y-441320D01*
X1032680Y-444240D01*
X1029240Y-447680D01*
X1026320Y-451560D01*
X1024000Y-455840D01*
X1022300Y-460400D01*
X1021260Y-465140D01*
X1020920Y-470000D01*
X1021260Y-474860D01*
X1022300Y-479600D01*
X1024000Y-484159D01*
X1026320Y-488440D01*
X1029240Y-492320D01*
X1032680Y-495760D01*
X1036560Y-498680D01*
X1040840Y-501000D01*
X1045400Y-502700D01*
X1050140Y-503740D01*
G37*
G36*
X1435000Y-493080D02*
G01*
X1439400Y-492740D01*
X1443680Y-491719D01*
X1447760Y-490020D01*
X1451500Y-487720D01*
X1454860Y-484860D01*
X1457720Y-481500D01*
X1460020Y-477760D01*
X1461720Y-473680D01*
X1462740Y-469400D01*
X1463080Y-465000D01*
X1462740Y-460600D01*
X1461720Y-456320D01*
X1460020Y-452239D01*
X1457720Y-448500D01*
X1454860Y-445140D01*
X1451500Y-442280D01*
X1447760Y-439980D01*
X1443680Y-438280D01*
X1439400Y-437260D01*
X1435000Y-436920D01*
X1430600Y-437260D01*
X1426320Y-438280D01*
X1422240Y-439980D01*
X1418500Y-442280D01*
X1415140Y-445140D01*
X1412280Y-448500D01*
X1409980Y-452239D01*
X1408280Y-456320D01*
X1407260Y-460600D01*
X1406920Y-465000D01*
X1407260Y-469400D01*
X1408280Y-473680D01*
X1409980Y-477760D01*
X1412280Y-481500D01*
X1415140Y-484860D01*
X1418500Y-487720D01*
X1422240Y-490020D01*
X1426320Y-491719D01*
X1430600Y-492740D01*
G37*
G36*
X565000Y-182079D02*
G01*
X568840Y-181740D01*
X572560Y-180760D01*
X576040Y-179120D01*
X579200Y-176920D01*
X581920Y-174200D01*
X584120Y-171040D01*
X585760Y-167560D01*
X586740Y-163840D01*
X587080Y-160000D01*
X586740Y-156160D01*
X585760Y-152440D01*
X584120Y-148960D01*
X581920Y-145800D01*
X579200Y-143080D01*
X576040Y-140880D01*
X572560Y-139240D01*
X568840Y-138260D01*
X565000Y-137920D01*
X561160Y-138260D01*
X557440Y-139240D01*
X553960Y-140880D01*
X550800Y-143080D01*
X548080Y-145800D01*
X545880Y-148960D01*
X544240Y-152440D01*
X543260Y-156160D01*
X542920Y-160000D01*
X543260Y-163840D01*
X544240Y-167560D01*
X545880Y-171040D01*
X548080Y-174200D01*
X550800Y-176920D01*
X553960Y-179120D01*
X557440Y-180760D01*
X561160Y-181740D01*
G37*
G36*
X2000000Y-178080D02*
G01*
X2004400Y-177740D01*
X2008680Y-176720D01*
X2012760Y-175020D01*
X2016500Y-172719D01*
X2019860Y-169860D01*
X2022720Y-166500D01*
X2025020Y-162760D01*
X2026720Y-158680D01*
X2027740Y-154400D01*
X2028080Y-150000D01*
X2027740Y-145600D01*
X2026720Y-141320D01*
X2025020Y-137240D01*
X2022720Y-133500D01*
X2019860Y-130140D01*
X2016500Y-127280D01*
X2012760Y-124980D01*
X2008680Y-123280D01*
X2004400Y-122260D01*
X2000000Y-121920D01*
X1995600Y-122260D01*
X1991320Y-123280D01*
X1987240Y-124980D01*
X1983500Y-127280D01*
X1980140Y-130140D01*
X1977280Y-133500D01*
X1974980Y-137240D01*
X1973280Y-141320D01*
X1972260Y-145600D01*
X1971920Y-150000D01*
X1972260Y-154400D01*
X1973280Y-158680D01*
X1974980Y-162760D01*
X1977280Y-166500D01*
X1980140Y-169860D01*
X1983500Y-172719D01*
X1987240Y-175020D01*
X1991320Y-176720D01*
X1995600Y-177740D01*
G37*
G36*
X625000Y37920D02*
G01*
X628840Y38260D01*
X632560Y39240D01*
X636040Y40880D01*
X639200Y43080D01*
X641919Y45800D01*
X644120Y48960D01*
X645759Y52440D01*
X646740Y56160D01*
X647080Y60000D01*
X646740Y63840D01*
X645759Y67560D01*
X644120Y71040D01*
X641919Y74200D01*
X639200Y76920D01*
X636040Y79120D01*
X632560Y80760D01*
X628840Y81740D01*
X625000Y82080D01*
X621160Y81740D01*
X617440Y80760D01*
X613960Y79120D01*
X610800Y76920D01*
X608080Y74200D01*
X605880Y71040D01*
X604240Y67560D01*
X603260Y63840D01*
X602920Y60000D01*
X603260Y56160D01*
X604240Y52440D01*
X605880Y48960D01*
X608080Y45800D01*
X610800Y43080D01*
X613960Y40880D01*
X617440Y39240D01*
X621160Y38260D01*
G37*
G36*
X820000Y107920D02*
G01*
X823840Y108260D01*
X827560Y109240D01*
X831040Y110879D01*
X834200Y113080D01*
X836919Y115800D01*
X839120Y118960D01*
X840759Y122440D01*
X841740Y126160D01*
X842080Y130000D01*
X841740Y133840D01*
X840759Y137560D01*
X839120Y141040D01*
X836919Y144200D01*
X834200Y146920D01*
X831040Y149120D01*
X827560Y150760D01*
X823840Y151740D01*
X820000Y152080D01*
X816160Y151740D01*
X812440Y150760D01*
X808960Y149120D01*
X805800Y146920D01*
X803080Y144200D01*
X800879Y141040D01*
X799240Y137560D01*
X798259Y133840D01*
X797920Y130000D01*
X798259Y126160D01*
X799240Y122440D01*
X800879Y118960D01*
X803080Y115800D01*
X805800Y113080D01*
X808960Y110879D01*
X812440Y109240D01*
X816160Y108260D01*
G37*

%LPD*%
G36*
X780000Y-453660D02*
G01*
X776000Y-462060D01*
X794000Y-462060D01*
X790000Y-453660D01*
G37*
G36*
X798020Y-194240D02*
G01*
X794920Y-203020D01*
X801979Y-210080D01*
X810759Y-206980D01*
G37*
G36*
X2344740Y-85600D02*
G01*
X2330600Y-99740D01*
X2337040Y-111120D01*
X2356120Y-92040D01*
G37*
G36*
X1135000Y-210500D02*
G01*
X1131500Y-223100D01*
X1158500Y-223100D01*
X1155000Y-210500D01*
G37*
G36*
X1155260Y-260600D02*
G01*
X1143880Y-267040D01*
X1162960Y-286120D01*
X1169400Y-274740D01*
G37*
G36*
X2345000Y-225500D02*
G01*
X2341500Y-238100D01*
X2368500Y-238100D01*
X2365000Y-225500D01*
G37*
G36*
X1095100Y-91760D02*
G01*
X1099100Y-100160D01*
X1109100Y-100160D01*
X1113100Y-91760D01*
G37*
G36*
X1048020Y-289920D02*
G01*
X1039240Y-293020D01*
X1051980Y-305760D01*
X1055080Y-296980D01*
G37*
G36*
X938020Y-89240D02*
G01*
X934920Y-98020D01*
X941979Y-105079D01*
X950759Y-101980D01*
G37*
G36*
X570000Y-543660D02*
G01*
X566000Y-552060D01*
X584000Y-552060D01*
X580000Y-543660D01*
G37*
G36*
X778020Y-134240D02*
G01*
X774920Y-143020D01*
X781979Y-150080D01*
X790759Y-146980D01*
G37*
G36*
X532940Y-301000D02*
G01*
X532940Y-319000D01*
X541340Y-315000D01*
X541340Y-305000D01*
G37*
G36*
X2171980Y-1364920D02*
G01*
X2164920Y-1371980D01*
X2168020Y-1380760D01*
X2180760Y-1368020D01*
G37*
G36*
X1578020Y-34240D02*
G01*
X1574920Y-43019D01*
X1581980Y-50080D01*
X1590760Y-46980D01*
G37*
G36*
X1581000Y-92940D02*
G01*
X1585000Y-101340D01*
X1595000Y-101340D01*
X1599000Y-92940D01*
G37*
G36*
X2211980Y-1364920D02*
G01*
X2204920Y-1371980D01*
X2208020Y-1380760D01*
X2220760Y-1368020D01*
G37*
G36*
X1732060Y-1151000D02*
G01*
X1723660Y-1155000D01*
X1723660Y-1165000D01*
X1732060Y-1169000D01*
G37*
G36*
X993020Y125079D02*
G01*
X984240Y121980D01*
X996979Y109240D01*
X1000080Y118020D01*
G37*
G36*
X1571980Y130079D02*
G01*
X1564920Y123020D01*
X1568020Y114240D01*
X1580760Y126980D01*
G37*
G36*
X513900Y-1099700D02*
G01*
X513900Y-1114300D01*
X528900Y-1112000D01*
X528900Y-1102000D01*
G37*
G36*
X1276000Y-352939D02*
G01*
X1280000Y-361340D01*
X1290000Y-361340D01*
X1294000Y-352939D01*
G37*
G36*
X1326000Y-352939D02*
G01*
X1330000Y-361340D01*
X1340000Y-361340D01*
X1344000Y-352939D01*
G37*
G36*
X513900Y-1199700D02*
G01*
X513900Y-1214300D01*
X528900Y-1212000D01*
X528900Y-1202000D01*
G37*
G36*
X2241340Y-1190000D02*
G01*
X2232940Y-1191000D01*
X2232940Y-1209000D01*
X2241340Y-1210000D01*
G37*
G36*
X2347540Y-1110820D02*
G01*
X2342800Y-1118060D01*
X2363760Y-1125380D01*
X2364540Y-1116760D01*
G37*
G36*
X2241340Y-1190000D02*
G01*
X2232940Y-1191000D01*
X2232940Y-1209000D01*
X2241340Y-1210000D01*
G37*
G36*
X1232940Y-231000D02*
G01*
X1232940Y-249000D01*
X1241340Y-245000D01*
X1241340Y-235000D01*
G37*
G36*
X1702060Y-1026000D02*
G01*
X1693660Y-1030000D01*
X1693660Y-1040000D01*
X1702060Y-1044000D01*
G37*
G36*
X1232940Y-196000D02*
G01*
X1232940Y-214000D01*
X1241340Y-210000D01*
X1241340Y-200000D01*
G37*
G36*
X1163020Y95760D02*
G01*
X1159920Y86980D01*
X1166980Y79920D01*
X1175760Y83020D01*
G37*
G36*
X878020Y-479920D02*
G01*
X869240Y-483020D01*
X881979Y-495760D01*
X885080Y-486980D01*
G37*
G36*
X1137060Y124000D02*
G01*
X1128660Y120000D01*
X1128660Y110000D01*
X1137060Y106000D01*
G37*
G36*
X502939Y-266000D02*
G01*
X502939Y-284000D01*
X511340Y-280000D01*
X511340Y-270000D01*
G37*
G36*
X1663020Y-269920D02*
G01*
X1654240Y-273020D01*
X1666980Y-285760D01*
X1670080Y-276980D01*
G37*
G36*
X1842060Y-206000D02*
G01*
X1833660Y-210000D01*
X1833660Y-220000D01*
X1842060Y-224000D01*
G37*
D10*
X1145000Y115000D02*
G01*
X1110000Y115000D01*
X895000Y-100000D01*
X775000Y-100000D01*
X600000Y-275000D01*
X495000Y-275000D01*
X1175000Y95000D02*
G01*
X905000Y-175000D01*
X905000Y-460000D01*
X870000Y-495000D01*
X1710000Y-1035000D02*
G01*
X1405000Y-1035000D01*
X1380000Y-1010000D01*
X1380000Y-320000D01*
X1265000Y-205000D01*
X1225000Y-205000D01*
D13*
X1145000Y-285000D02*
G01*
X1180000Y-250000D01*
X1180000Y-100000D01*
X1285000Y5000D01*
X2190000Y5000D01*
X2355000Y-160000D01*
X2355000Y-250000D01*
D10*
X1225000Y-240000D02*
G01*
X1275000Y-240000D01*
X1360000Y-325000D01*
X1360000Y-775000D01*
X985000Y110000D02*
G01*
X1015000Y140000D01*
X1555000Y140000D01*
X1580000Y115000D01*
X1285000Y-345000D02*
G01*
X1285000Y-675000D01*
X853000Y-1106999D01*
X475700Y-1106999D01*
X1335000Y-345000D02*
G01*
X1335000Y-700000D01*
X828000Y-1206999D01*
X475700Y-1206999D01*
X1740000Y-1160000D02*
G01*
X1505000Y-1160000D01*
X1360000Y-1015000D01*
X1360000Y-768288D01*
X1590000Y-85000D02*
G01*
X1590000Y-255000D01*
X2065000Y-730000D01*
X2065000Y-1225000D01*
X2220000Y-1380000D01*
X1590000Y-35000D02*
G01*
X1565000Y-60000D01*
X1565000Y-260000D01*
X2045000Y-740000D01*
X2045000Y-1245000D01*
X2180000Y-1380000D02*
G01*
X2045000Y-1245000D01*
X790000Y-135000D02*
G01*
X615000Y-310000D01*
X525000Y-310000D01*
X950000Y-90000D02*
G01*
X870000Y-170000D01*
X800000Y-170000D01*
X575000Y-395000D01*
X575000Y-560000D01*
X1040000Y-305000D02*
G01*
X1104089Y-240909D01*
X1104089Y-83820D01*
X1655000Y-285000D02*
G01*
X1725000Y-215000D01*
X1850000Y-215000D01*
D13*
X1145000Y-235000D02*
G01*
X1145000Y-88299D01*
X1273299Y40000D01*
X1275000Y40000D02*
G01*
X2205000Y40000D01*
X2355000Y-110000D01*
D10*
X785000Y-470000D02*
G01*
X785000Y-220000D01*
X810000Y-195000D01*
D13*
X2225000Y-1200000D02*
G01*
X2275000Y-1200000D01*
X2355000Y-1120000D01*
X2355000Y-1105000D01*
G36*
X491410Y-1383380D02*
G01*
X494369Y-1383560D01*
X497280Y-1384119D01*
X500100Y-1385030D01*
X502789Y-1386300D01*
X505289Y-1387890D01*
X507579Y-1389780D01*
X509609Y-1391939D01*
X511350Y-1394340D01*
X512779Y-1396939D01*
X513870Y-1399699D01*
X514609Y-1402570D01*
X514980Y-1405509D01*
X514980Y-1408479D01*
X514609Y-1411419D01*
X513870Y-1414299D01*
X512779Y-1417060D01*
X511350Y-1419659D01*
X509609Y-1422060D01*
X507579Y-1424220D01*
X505289Y-1426109D01*
X502789Y-1427699D01*
X500100Y-1428960D01*
X497280Y-1429879D01*
X494369Y-1430430D01*
X491410Y-1430619D01*
X459909Y-1430619D01*
X456950Y-1430430D01*
X454039Y-1429879D01*
X451210Y-1428960D01*
X448530Y-1427699D01*
X446030Y-1426109D01*
X443739Y-1424220D01*
X441709Y-1422060D01*
X439969Y-1419659D01*
X438539Y-1417060D01*
X437440Y-1414299D01*
X436709Y-1411419D01*
X436340Y-1408479D01*
X436340Y-1405509D01*
X436709Y-1402570D01*
X437440Y-1399699D01*
X438539Y-1396939D01*
X439969Y-1394340D01*
X441709Y-1391939D01*
X443739Y-1389780D01*
X446030Y-1387890D01*
X448530Y-1386300D01*
X451210Y-1385030D01*
X454039Y-1384119D01*
X456950Y-1383560D01*
X459909Y-1383380D01*
G37*
G36*
X1661090Y-1383380D02*
G01*
X1664049Y-1383560D01*
X1666959Y-1384119D01*
X1669790Y-1385030D01*
X1672470Y-1386300D01*
X1674970Y-1387890D01*
X1677259Y-1389780D01*
X1679290Y-1391939D01*
X1681030Y-1394340D01*
X1682460Y-1396939D01*
X1683559Y-1399699D01*
X1684290Y-1402570D01*
X1684660Y-1405509D01*
X1684660Y-1408479D01*
X1684290Y-1411419D01*
X1683559Y-1414299D01*
X1682460Y-1417060D01*
X1681030Y-1419659D01*
X1679290Y-1422060D01*
X1677259Y-1424220D01*
X1674970Y-1426109D01*
X1672470Y-1427699D01*
X1669790Y-1428960D01*
X1666959Y-1429879D01*
X1664049Y-1430430D01*
X1661090Y-1430619D01*
X1629589Y-1430619D01*
X1626629Y-1430430D01*
X1623720Y-1429879D01*
X1620900Y-1428960D01*
X1618209Y-1427699D01*
X1615709Y-1426109D01*
X1613419Y-1424220D01*
X1611390Y-1422060D01*
X1609650Y-1419659D01*
X1608220Y-1417060D01*
X1607129Y-1414299D01*
X1606390Y-1411419D01*
X1606019Y-1408479D01*
X1606019Y-1405509D01*
X1606390Y-1402570D01*
X1607129Y-1399699D01*
X1608220Y-1396939D01*
X1609650Y-1394340D01*
X1611390Y-1391939D01*
X1613419Y-1389780D01*
X1615709Y-1387890D01*
X1618209Y-1386300D01*
X1620900Y-1385030D01*
X1623720Y-1384119D01*
X1626629Y-1383560D01*
X1629589Y-1383380D01*
G37*
G36*
X491410Y-1283380D02*
G01*
X494369Y-1283560D01*
X497280Y-1284119D01*
X500100Y-1285039D01*
X502789Y-1286300D01*
X505289Y-1287890D01*
X507579Y-1289780D01*
X509609Y-1291939D01*
X511350Y-1294340D01*
X512779Y-1296939D01*
X513870Y-1299699D01*
X514609Y-1302570D01*
X514980Y-1305520D01*
X514980Y-1308479D01*
X514609Y-1311419D01*
X513870Y-1314299D01*
X512779Y-1317060D01*
X511350Y-1319659D01*
X509609Y-1322060D01*
X507579Y-1324220D01*
X505289Y-1326109D01*
X502789Y-1327699D01*
X500100Y-1328960D01*
X497280Y-1329879D01*
X494369Y-1330430D01*
X491410Y-1330619D01*
X459909Y-1330619D01*
X456950Y-1330430D01*
X454039Y-1329879D01*
X451210Y-1328960D01*
X448530Y-1327699D01*
X446030Y-1326109D01*
X443739Y-1324220D01*
X441709Y-1322060D01*
X439969Y-1319659D01*
X438539Y-1317060D01*
X437440Y-1314299D01*
X436709Y-1311419D01*
X436340Y-1308479D01*
X436340Y-1305520D01*
X436709Y-1302570D01*
X437440Y-1299699D01*
X438539Y-1296939D01*
X439969Y-1294340D01*
X441709Y-1291939D01*
X443739Y-1289780D01*
X446030Y-1287890D01*
X448530Y-1286300D01*
X451210Y-1285039D01*
X454039Y-1284119D01*
X456950Y-1283560D01*
X459909Y-1283380D01*
G37*
G36*
X1661090Y-1283380D02*
G01*
X1664049Y-1283560D01*
X1666959Y-1284119D01*
X1669790Y-1285039D01*
X1672470Y-1286300D01*
X1674970Y-1287890D01*
X1677259Y-1289780D01*
X1679290Y-1291939D01*
X1681030Y-1294340D01*
X1682460Y-1296939D01*
X1683559Y-1299699D01*
X1684290Y-1302570D01*
X1684660Y-1305520D01*
X1684660Y-1308479D01*
X1684290Y-1311419D01*
X1683559Y-1314299D01*
X1682460Y-1317060D01*
X1681030Y-1319659D01*
X1679290Y-1322060D01*
X1677259Y-1324220D01*
X1674970Y-1326109D01*
X1672470Y-1327699D01*
X1669790Y-1328960D01*
X1666959Y-1329879D01*
X1664049Y-1330430D01*
X1661090Y-1330619D01*
X1629589Y-1330619D01*
X1626629Y-1330430D01*
X1623720Y-1329879D01*
X1620900Y-1328960D01*
X1618209Y-1327699D01*
X1615709Y-1326109D01*
X1613419Y-1324220D01*
X1611390Y-1322060D01*
X1609650Y-1319659D01*
X1608220Y-1317060D01*
X1607129Y-1314299D01*
X1606390Y-1311419D01*
X1606019Y-1308479D01*
X1606019Y-1305520D01*
X1606390Y-1302570D01*
X1607129Y-1299699D01*
X1608220Y-1296939D01*
X1609650Y-1294340D01*
X1611390Y-1291939D01*
X1613419Y-1289780D01*
X1615709Y-1287890D01*
X1618209Y-1286300D01*
X1620900Y-1285039D01*
X1623720Y-1284119D01*
X1626629Y-1283560D01*
X1629589Y-1283380D01*
G37*
G36*
X491410Y-1183380D02*
G01*
X494369Y-1183560D01*
X497280Y-1184119D01*
X500100Y-1185039D01*
X502789Y-1186300D01*
X505289Y-1187890D01*
X507579Y-1189780D01*
X509609Y-1191939D01*
X511350Y-1194340D01*
X512779Y-1196939D01*
X513870Y-1199699D01*
X514609Y-1202570D01*
X514980Y-1205520D01*
X514980Y-1208479D01*
X514609Y-1211419D01*
X513870Y-1214299D01*
X512779Y-1217060D01*
X511350Y-1219659D01*
X509609Y-1222060D01*
X507579Y-1224220D01*
X505289Y-1226109D01*
X502789Y-1227699D01*
X500100Y-1228960D01*
X497280Y-1229879D01*
X494369Y-1230430D01*
X491410Y-1230619D01*
X459909Y-1230619D01*
X456950Y-1230430D01*
X454039Y-1229879D01*
X451210Y-1228960D01*
X448530Y-1227699D01*
X446030Y-1226109D01*
X443739Y-1224220D01*
X441709Y-1222060D01*
X439969Y-1219659D01*
X438539Y-1217060D01*
X437440Y-1214299D01*
X436709Y-1211419D01*
X436340Y-1208479D01*
X436340Y-1205520D01*
X436709Y-1202570D01*
X437440Y-1199699D01*
X438539Y-1196939D01*
X439969Y-1194340D01*
X441709Y-1191939D01*
X443739Y-1189780D01*
X446030Y-1187890D01*
X448530Y-1186300D01*
X451210Y-1185039D01*
X454039Y-1184119D01*
X456950Y-1183560D01*
X459909Y-1183380D01*
G37*
G36*
X1661090Y-1183380D02*
G01*
X1664049Y-1183560D01*
X1666959Y-1184119D01*
X1669790Y-1185039D01*
X1672470Y-1186300D01*
X1674970Y-1187890D01*
X1677259Y-1189780D01*
X1679290Y-1191939D01*
X1681030Y-1194340D01*
X1682460Y-1196939D01*
X1683559Y-1199699D01*
X1684290Y-1202570D01*
X1684660Y-1205520D01*
X1684660Y-1208479D01*
X1684290Y-1211419D01*
X1683559Y-1214299D01*
X1682460Y-1217060D01*
X1681030Y-1219659D01*
X1679290Y-1222060D01*
X1677259Y-1224220D01*
X1674970Y-1226109D01*
X1672470Y-1227699D01*
X1669790Y-1228960D01*
X1666959Y-1229879D01*
X1664049Y-1230430D01*
X1661090Y-1230619D01*
X1629589Y-1230619D01*
X1626629Y-1230430D01*
X1623720Y-1229879D01*
X1620900Y-1228960D01*
X1618209Y-1227699D01*
X1615709Y-1226109D01*
X1613419Y-1224220D01*
X1611390Y-1222060D01*
X1609650Y-1219659D01*
X1608220Y-1217060D01*
X1607129Y-1214299D01*
X1606390Y-1211419D01*
X1606019Y-1208479D01*
X1606019Y-1205520D01*
X1606390Y-1202570D01*
X1607129Y-1199699D01*
X1608220Y-1196939D01*
X1609650Y-1194340D01*
X1611390Y-1191939D01*
X1613419Y-1189780D01*
X1615709Y-1187890D01*
X1618209Y-1186300D01*
X1620900Y-1185039D01*
X1623720Y-1184119D01*
X1626629Y-1183560D01*
X1629589Y-1183380D01*
G37*
G36*
X491410Y-1083380D02*
G01*
X494369Y-1083560D01*
X497280Y-1084119D01*
X500100Y-1085039D01*
X502789Y-1086300D01*
X505289Y-1087890D01*
X507579Y-1089780D01*
X509609Y-1091939D01*
X511350Y-1094340D01*
X512779Y-1096939D01*
X513870Y-1099699D01*
X514609Y-1102570D01*
X514980Y-1105520D01*
X514980Y-1108479D01*
X514609Y-1111430D01*
X513870Y-1114299D01*
X512779Y-1117060D01*
X511350Y-1119659D01*
X509609Y-1122060D01*
X507579Y-1124220D01*
X505289Y-1126109D01*
X502789Y-1127699D01*
X500100Y-1128960D01*
X497280Y-1129879D01*
X494369Y-1130430D01*
X491410Y-1130619D01*
X459909Y-1130619D01*
X456950Y-1130430D01*
X454039Y-1129879D01*
X451210Y-1128960D01*
X448530Y-1127699D01*
X446030Y-1126109D01*
X443739Y-1124220D01*
X441709Y-1122060D01*
X439969Y-1119659D01*
X438539Y-1117060D01*
X437440Y-1114299D01*
X436709Y-1111430D01*
X436340Y-1108479D01*
X436340Y-1105520D01*
X436709Y-1102570D01*
X437440Y-1099699D01*
X438539Y-1096939D01*
X439969Y-1094340D01*
X441709Y-1091939D01*
X443739Y-1089780D01*
X446030Y-1087890D01*
X448530Y-1086300D01*
X451210Y-1085039D01*
X454039Y-1084119D01*
X456950Y-1083560D01*
X459909Y-1083380D01*
G37*
G36*
X1661090Y-1083380D02*
G01*
X1664049Y-1083560D01*
X1666959Y-1084119D01*
X1669790Y-1085039D01*
X1672470Y-1086300D01*
X1674970Y-1087890D01*
X1677259Y-1089780D01*
X1679290Y-1091939D01*
X1681030Y-1094340D01*
X1682460Y-1096939D01*
X1683559Y-1099699D01*
X1684290Y-1102570D01*
X1684660Y-1105520D01*
X1684660Y-1108479D01*
X1684290Y-1111430D01*
X1683559Y-1114299D01*
X1682460Y-1117060D01*
X1681030Y-1119659D01*
X1679290Y-1122060D01*
X1677259Y-1124220D01*
X1674970Y-1126109D01*
X1672470Y-1127699D01*
X1669790Y-1128960D01*
X1666959Y-1129879D01*
X1664049Y-1130430D01*
X1661090Y-1130619D01*
X1629589Y-1130619D01*
X1626629Y-1130430D01*
X1623720Y-1129879D01*
X1620900Y-1128960D01*
X1618209Y-1127699D01*
X1615709Y-1126109D01*
X1613419Y-1124220D01*
X1611390Y-1122060D01*
X1609650Y-1119659D01*
X1608220Y-1117060D01*
X1607129Y-1114299D01*
X1606390Y-1111430D01*
X1606019Y-1108479D01*
X1606019Y-1105520D01*
X1606390Y-1102570D01*
X1607129Y-1099699D01*
X1608220Y-1096939D01*
X1609650Y-1094340D01*
X1611390Y-1091939D01*
X1613419Y-1089780D01*
X1615709Y-1087890D01*
X1618209Y-1086300D01*
X1620900Y-1085039D01*
X1623720Y-1084119D01*
X1626629Y-1083560D01*
X1629589Y-1083380D01*
G37*
G36*
X491410Y-983380D02*
G01*
X494369Y-983560D01*
X497280Y-984119D01*
X500100Y-985039D01*
X502789Y-986300D01*
X505289Y-987890D01*
X507579Y-989780D01*
X509609Y-991939D01*
X511350Y-994340D01*
X512779Y-996939D01*
X513870Y-999699D01*
X514609Y-1002570D01*
X514980Y-1005520D01*
X514980Y-1008479D01*
X514609Y-1011430D01*
X513870Y-1014299D01*
X512779Y-1017060D01*
X511350Y-1019659D01*
X509609Y-1022060D01*
X507579Y-1024220D01*
X505289Y-1026109D01*
X502789Y-1027699D01*
X500100Y-1028960D01*
X497280Y-1029879D01*
X494369Y-1030430D01*
X491410Y-1030619D01*
X459909Y-1030619D01*
X456950Y-1030430D01*
X454039Y-1029879D01*
X451210Y-1028960D01*
X448530Y-1027699D01*
X446030Y-1026109D01*
X443739Y-1024220D01*
X441709Y-1022060D01*
X439969Y-1019659D01*
X438539Y-1017060D01*
X437440Y-1014299D01*
X436709Y-1011430D01*
X436340Y-1008479D01*
X436340Y-1005520D01*
X436709Y-1002570D01*
X437440Y-999699D01*
X438539Y-996939D01*
X439969Y-994340D01*
X441709Y-991939D01*
X443739Y-989780D01*
X446030Y-987890D01*
X448530Y-986300D01*
X451210Y-985039D01*
X454039Y-984119D01*
X456950Y-983560D01*
X459909Y-983380D01*
G37*
D43*
G01*
X902169Y-725000D03*
G36*
X504529Y-681694D02*
G01*
X591140Y-681694D01*
X591140Y-768305D01*
X504529Y-768305D01*
G37*
D45*
G01*
X1899369Y-1470000D03*
G01*
X1820630Y-1470000D03*
D16*
G01*
X1260000Y-650000D03*
G01*
X1160000Y-650000D03*
G01*
X875000Y-305000D03*
G01*
X785000Y-470000D03*
G01*
X810000Y-195000D03*
G01*
X860000Y-205000D03*
G01*
X930000Y-305000D03*
G01*
X1050000Y-400000D03*
D17*
G01*
X1055000Y-470000D03*
D16*
G01*
X740000Y-90000D03*
G01*
X565000Y-160000D03*
G01*
X625000Y60000D03*
G01*
X820000Y130000D03*
D17*
G01*
X845000Y-440000D03*
D16*
G01*
X875000Y-55000D03*
D17*
G01*
X1555000Y-510000D03*
G01*
X1560000Y-705000D03*
D16*
G01*
X1985000Y-840000D03*
D17*
G01*
X2000000Y-980000D03*
D16*
G01*
X2140000Y-1495000D03*
D17*
G01*
X2110000Y-1540000D03*
G01*
X2250000Y-1540000D03*
G01*
X2110000Y-1165000D03*
D16*
G01*
X2355000Y-1105000D03*
G01*
X2225000Y-1200000D03*
G01*
X2155000Y-1130000D03*
D18*
G01*
X1435000Y-350000D03*
G01*
X1435000Y-465000D03*
G01*
X2000000Y-150000D03*
G01*
X2000000Y-100000D03*
G01*
X2260000Y135000D03*
G01*
X2255000Y-485000D03*
G01*
X1145000Y-235000D03*
G01*
X1145000Y-285000D03*
G01*
X2355000Y-250000D03*
G01*
X2355000Y-110000D03*
D16*
G01*
X985000Y110000D03*
G01*
X1580000Y115000D03*
G01*
X1590000Y-35000D03*
G01*
X1590000Y-85000D03*
G01*
X1655000Y-285000D03*
G01*
X1850000Y-215000D03*
G01*
X1285000Y-345000D03*
G01*
X1335000Y-345000D03*
G01*
X1104089Y-83820D03*
G01*
X1040000Y-305000D03*
G01*
X870000Y-495000D03*
G01*
X950000Y-90000D03*
G01*
X575000Y-560000D03*
G01*
X790000Y-135000D03*
G01*
X525000Y-310000D03*
G01*
X1145000Y115000D03*
G01*
X495000Y-275000D03*
G01*
X1225000Y-240000D03*
G01*
X1740000Y-1160000D03*
G01*
X1225000Y-205000D03*
G01*
X1710000Y-1035000D03*
G01*
X1755000Y-955000D03*
G01*
X2220000Y-1380000D03*
G01*
X2180000Y-1380000D03*
G01*
X1175000Y95000D03*
D46*
X2239373Y-828400D02*
G01*
X2255126Y-828400D01*
X2239373Y-631599D02*
G01*
X2255126Y-631599D01*
X2338968Y-592199D02*
G01*
X2366531Y-592199D01*
X2338968Y-867800D02*
G01*
X2366531Y-867800D01*
M02*
