G04 Layer: TopPasteMaskLayer*
G04 EasyEDA v6.4.17, 2021-03-03T10:10:01+01:00*
G04 9d4de0552c0a465fbb9a068f9b96be7d,b771c775d4444e86a06a5321f8c966cb,10*
G04 Gerber Generator version 0.2*
G04 Scale: 100 percent, Rotated: No, Reflected: No *
G04 Dimensions in inches *
G04 leading zeros omitted , absolute positions ,3 integer and 6 decimal *
%FSLAX36Y36*%
%MOIN*%

%ADD19R,0.0906X0.0295*%
%ADD20R,0.0197X0.0315*%
%ADD21R,0.0394X0.0709*%
%ADD22R,0.0315X0.0197*%
%ADD23R,0.0709X0.0787*%
%ADD24R,0.0236X0.0512*%
%ADD25R,0.0591X0.0866*%
%ADD26R,0.0390X0.0430*%
%ADD27R,0.0394X0.0217*%
%ADD28R,0.0354X0.0551*%
%ADD30R,0.0315X0.0472*%
%ADD32R,0.0787X0.0315*%
%ADD33R,0.0315X0.0787*%
%ADD34R,0.0220X0.0520*%
%ADD35R,0.0512X0.0236*%
%ADD36R,0.0512X0.0157*%
%ADD37R,0.0748X0.1142*%
%ADD41R,0.0433X0.0236*%
%ADD42R,0.0354X0.0315*%

%LPD*%
D19*
G01*
X1925039Y-150000D03*
G01*
X1767579Y-150000D03*
G01*
X1925039Y-100000D03*
G01*
X1767579Y-100000D03*
G01*
X1925039Y-50000D03*
G01*
X1767579Y-50000D03*
G01*
X1925039Y0D03*
G01*
X1767579Y0D03*
G01*
X1925039Y50000D03*
G01*
X1767579Y50000D03*
D20*
G01*
X2055309Y-715000D03*
G01*
X2094679Y-715000D03*
G01*
X2055309Y-770000D03*
G01*
X2094679Y-770000D03*
D21*
G01*
X1160789Y-490000D03*
G01*
X1259210Y-490000D03*
D20*
G01*
X2110309Y-895000D03*
G01*
X2149679Y-895000D03*
D22*
G01*
X1755000Y-995309D03*
G01*
X1755000Y-1034679D03*
G01*
X1755000Y-1080309D03*
G01*
X1755000Y-1119679D03*
G36*
X1809841Y-1309038D02*
G01*
X1829526Y-1309038D01*
X1829526Y-1340534D01*
X1809841Y-1340534D01*
G37*
G36*
X1770471Y-1309038D02*
G01*
X1790156Y-1309038D01*
X1790156Y-1340534D01*
X1770471Y-1340534D01*
G37*
D23*
G01*
X2057680Y-1075000D03*
G01*
X1892319Y-1075000D03*
D24*
G01*
X1947600Y-1210760D03*
G01*
X1985000Y-1305239D03*
G01*
X2022399Y-1210760D03*
G01*
X1837399Y-1267240D03*
G01*
X1800000Y-1172759D03*
G01*
X1762600Y-1267240D03*
D20*
G01*
X1949679Y-980000D03*
G01*
X1910309Y-980000D03*
D25*
G01*
X1848270Y-705000D03*
G01*
X1631729Y-705000D03*
D26*
G01*
X2355000Y-981500D03*
G01*
X2355000Y-1048499D03*
D27*
G01*
X2299059Y-1197600D03*
G01*
X2299059Y-1272399D03*
G01*
X2180950Y-1272399D03*
G01*
X2180950Y-1235000D03*
G01*
X2180950Y-1197600D03*
G36*
X2219843Y-1114252D02*
G01*
X2239528Y-1114252D01*
X2239528Y-1145747D01*
X2219843Y-1145747D01*
G37*
G36*
X2180473Y-1114252D02*
G01*
X2200158Y-1114252D01*
X2200158Y-1145747D01*
X2180473Y-1145747D01*
G37*
D28*
G01*
X2090940Y-483859D03*
G01*
X2090940Y-216140D03*
G01*
X2209049Y-483859D03*
G01*
X2209049Y-216140D03*
G01*
X2090940Y-133859D03*
G01*
X2090940Y133859D03*
G01*
X2209049Y-133859D03*
G01*
X2209049Y133859D03*
G36*
X1901772Y-781255D02*
G01*
X1923424Y-781255D01*
X1923424Y-820625D01*
X1901772Y-820625D01*
G37*
G36*
X1976575Y-781255D02*
G01*
X1998227Y-781255D01*
X1998227Y-820625D01*
X1976575Y-820625D01*
G37*
G36*
X1976575Y-899364D02*
G01*
X1998227Y-899364D01*
X1998227Y-938735D01*
X1976575Y-938735D01*
G37*
G36*
X1939173Y-899364D02*
G01*
X1960826Y-899364D01*
X1960826Y-938735D01*
X1939173Y-938735D01*
G37*
G36*
X1901772Y-899364D02*
G01*
X1923424Y-899364D01*
X1923424Y-938735D01*
X1901772Y-938735D01*
G37*
D22*
G01*
X1260000Y-609679D03*
G01*
X1260000Y-570309D03*
G01*
X1160000Y-609679D03*
G01*
X1160000Y-570309D03*
D30*
G01*
X1460020Y-295630D03*
G01*
X1410020Y-295630D03*
G01*
X1360020Y-295630D03*
G01*
X1310020Y-295630D03*
G01*
X1260020Y-295630D03*
G01*
X1210020Y-295630D03*
G01*
X1510010Y-295630D03*
G36*
X1501734Y-93069D02*
G01*
X1548975Y-93069D01*
X1548975Y-124570D01*
X1501734Y-124570D01*
G37*
G36*
X1501734Y-43069D02*
G01*
X1548975Y-43069D01*
X1548975Y-74570D01*
X1501734Y-74570D01*
G37*
G36*
X1501734Y6930D02*
G01*
X1548975Y6930D01*
X1548975Y-24570D01*
X1501734Y-24570D01*
G37*
G36*
X1501734Y56930D02*
G01*
X1548975Y56930D01*
X1548975Y25429D01*
X1501734Y25429D01*
G37*
G36*
X1501734Y106930D02*
G01*
X1548975Y106930D01*
X1548975Y75429D01*
X1501734Y75429D01*
G37*
G36*
X1501734Y156930D02*
G01*
X1548975Y156930D01*
X1548975Y125430D01*
X1501734Y125430D01*
G37*
G36*
X1501734Y-143069D02*
G01*
X1548975Y-143069D01*
X1548975Y-174570D01*
X1501734Y-174570D01*
G37*
G36*
X1501734Y-193069D02*
G01*
X1548975Y-193069D01*
X1548975Y-224570D01*
X1501734Y-224570D01*
G37*
G36*
X1064714Y-218069D02*
G01*
X1143455Y-218069D01*
X1143455Y-249569D01*
X1064714Y-249569D01*
G37*
G36*
X1064724Y-268069D02*
G01*
X1143464Y-268069D01*
X1143464Y-299570D01*
X1064724Y-299570D01*
G37*
G36*
X1064724Y-168069D02*
G01*
X1143464Y-168069D01*
X1143464Y-199570D01*
X1064724Y-199570D01*
G37*
G36*
X1064724Y-118069D02*
G01*
X1143464Y-118069D01*
X1143464Y-149570D01*
X1064724Y-149570D01*
G37*
G36*
X1064724Y-68069D02*
G01*
X1143464Y-68069D01*
X1143464Y-99570D01*
X1064724Y-99570D01*
G37*
G36*
X1064724Y-18069D02*
G01*
X1143464Y-18069D01*
X1143464Y-49570D01*
X1064724Y-49570D01*
G37*
G36*
X1064724Y31930D02*
G01*
X1143464Y31930D01*
X1143464Y429D01*
X1064724Y429D01*
G37*
G36*
X1064724Y81930D02*
G01*
X1143464Y81930D01*
X1143464Y50429D01*
X1064724Y50429D01*
G37*
G36*
X1064724Y131930D02*
G01*
X1143464Y131930D01*
X1143464Y100429D01*
X1064724Y100429D01*
G37*
G36*
X1064724Y181930D02*
G01*
X1143464Y181930D01*
X1143464Y150429D01*
X1064724Y150429D01*
G37*
D32*
G01*
X1615919Y116179D03*
G01*
X1615910Y166179D03*
G01*
X1615910Y66179D03*
G01*
X1615910Y16179D03*
G01*
X1615910Y-33820D03*
G01*
X1615910Y-83820D03*
G01*
X1615910Y-133820D03*
G01*
X1615910Y-183820D03*
G01*
X1615910Y-233820D03*
G01*
X1615910Y-283820D03*
D33*
G01*
X1185010Y-386179D03*
G01*
X1235010Y-386179D03*
G01*
X1285010Y-386179D03*
G01*
X1335010Y-386179D03*
G01*
X1385010Y-386179D03*
G01*
X1435010Y-386179D03*
G01*
X1485010Y-386179D03*
G01*
X1535010Y-386179D03*
D34*
G01*
X776400Y-203499D03*
G01*
X739000Y-203499D03*
G01*
X701599Y-203499D03*
G01*
X701599Y-305500D03*
G01*
X776400Y-305500D03*
D22*
G01*
X625000Y-19690D03*
G01*
X625000Y19679D03*
G01*
X625000Y-114690D03*
G01*
X625000Y-75320D03*
G01*
X625000Y-204690D03*
G01*
X625000Y-165320D03*
G36*
X519000Y-201399D02*
G01*
X519000Y-179400D01*
X570000Y-179400D01*
X570000Y-201399D01*
G37*
G36*
X519000Y-126599D02*
G01*
X519000Y-104600D01*
X570000Y-104600D01*
X570000Y-126599D01*
G37*
G36*
X438000Y-164000D02*
G01*
X438000Y-141999D01*
X489000Y-141999D01*
X489000Y-164000D01*
G37*
D20*
G01*
X755309Y-375000D03*
G01*
X794679Y-375000D03*
G01*
X994679Y-500000D03*
G01*
X955309Y-500000D03*
G36*
X874843Y-534252D02*
G01*
X894528Y-534252D01*
X894528Y-565747D01*
X874843Y-565747D01*
G37*
G36*
X835473Y-534252D02*
G01*
X855158Y-534252D01*
X855158Y-565747D01*
X835473Y-565747D01*
G37*
D22*
G01*
X620000Y-644690D03*
G01*
X620000Y-605320D03*
G01*
X875000Y19690D03*
G01*
X875000Y-19679D03*
G01*
X700000Y-419690D03*
G01*
X700000Y-380320D03*
D20*
G01*
X965309Y-305000D03*
G01*
X1004679Y-305000D03*
D22*
G01*
X845000Y-240320D03*
G01*
X845000Y-279690D03*
D35*
G01*
X807240Y92399D03*
G01*
X712759Y55000D03*
G01*
X807240Y17600D03*
G01*
X622240Y-312600D03*
G01*
X527759Y-350000D03*
G01*
X622240Y-387399D03*
G01*
X622240Y-487600D03*
G01*
X527759Y-525000D03*
G01*
X622240Y-562399D03*
D22*
G01*
X2355000Y105309D03*
G01*
X2355000Y144679D03*
G01*
X2355000Y-455309D03*
G01*
X2355000Y-494679D03*
G36*
X2221644Y-686700D02*
G01*
X2221644Y-670900D01*
X2272844Y-670900D01*
X2272844Y-686700D01*
G37*
G36*
X2221644Y-712300D02*
G01*
X2221644Y-696500D01*
X2272844Y-696500D01*
X2272844Y-712300D01*
G37*
D36*
G01*
X2247250Y-730000D03*
G36*
X2221644Y-763499D02*
G01*
X2221644Y-747699D01*
X2272844Y-747699D01*
X2272844Y-763499D01*
G37*
G36*
X2221644Y-789000D02*
G01*
X2221644Y-773299D01*
X2272844Y-773299D01*
X2272844Y-789000D01*
G37*
D37*
G01*
X2352759Y-730000D03*
G36*
X2315344Y-848114D02*
G01*
X2315344Y-808715D01*
X2390145Y-808715D01*
X2390145Y-848114D01*
G37*
G36*
X2315344Y-651275D02*
G01*
X2315344Y-611875D01*
X2390145Y-611875D01*
X2390145Y-651275D01*
G37*
D22*
G01*
X995000Y-89690D03*
G01*
X995000Y-50320D03*
D20*
G01*
X755309Y-425000D03*
G01*
X794679Y-425000D03*
G01*
X945309Y20000D03*
G01*
X984679Y20000D03*
D26*
G01*
X2355000Y-316500D03*
G01*
X2355000Y-383499D03*
G36*
X2335500Y-11999D02*
G01*
X2374499Y-11999D01*
X2374499Y-55000D01*
X2335500Y-55000D01*
G37*
G36*
X2335500Y55000D02*
G01*
X2374499Y55000D01*
X2374499Y11999D01*
X2335500Y11999D01*
G37*
G36*
X2026457Y-1499270D02*
G01*
X2073701Y-1499270D01*
X2073701Y-1570136D01*
X2026457Y-1570136D01*
G37*
G36*
X2286298Y-1499270D02*
G01*
X2333542Y-1499270D01*
X2333542Y-1570136D01*
X2286298Y-1570136D01*
G37*
G36*
X2246929Y-1404783D02*
G01*
X2270550Y-1404783D01*
X2270550Y-1465806D01*
X2246929Y-1465806D01*
G37*
G36*
X2207559Y-1404783D02*
G01*
X2231180Y-1404783D01*
X2231180Y-1465806D01*
X2207559Y-1465806D01*
G37*
G36*
X2168189Y-1404783D02*
G01*
X2191810Y-1404783D01*
X2191810Y-1465806D01*
X2168189Y-1465806D01*
G37*
G36*
X2128819Y-1404783D02*
G01*
X2152440Y-1404783D01*
X2152440Y-1465806D01*
X2128819Y-1465806D01*
G37*
G36*
X2089449Y-1404783D02*
G01*
X2113071Y-1404783D01*
X2113071Y-1465806D01*
X2089449Y-1465806D01*
G37*
G36*
X690475Y-119254D02*
G01*
X710160Y-119254D01*
X710160Y-150751D01*
X690475Y-150751D01*
G37*
G36*
X729845Y-119254D02*
G01*
X749531Y-119254D01*
X749531Y-150751D01*
X729845Y-150751D01*
G37*
D41*
G01*
X1005119Y-436999D03*
G01*
X1005119Y-400000D03*
G01*
X1005119Y-363000D03*
G01*
X894880Y-363000D03*
G01*
X894880Y-400000D03*
G01*
X894880Y-436999D03*
G36*
X653227Y-711188D02*
G01*
X696534Y-711188D01*
X696534Y-734810D01*
X653227Y-734810D01*
G37*
G36*
X653227Y-748189D02*
G01*
X696534Y-748189D01*
X696534Y-771810D01*
X653227Y-771810D01*
G37*
G36*
X653227Y-785189D02*
G01*
X696534Y-785189D01*
X696534Y-808811D01*
X653227Y-808811D01*
G37*
G36*
X763464Y-785189D02*
G01*
X806772Y-785189D01*
X806772Y-808811D01*
X763464Y-808811D01*
G37*
G36*
X763464Y-748189D02*
G01*
X806772Y-748189D01*
X806772Y-771810D01*
X763464Y-771810D01*
G37*
G36*
X763464Y-711188D02*
G01*
X806772Y-711188D01*
X806772Y-734810D01*
X763464Y-734810D01*
G37*
D22*
G01*
X2245000Y-1020309D03*
G01*
X2245000Y-1059679D03*
D42*
G01*
X2110000Y-1222440D03*
G01*
X2110000Y-1277559D03*
G01*
X1555000Y-572440D03*
G01*
X1555000Y-627559D03*
M02*
