G04 Layer: TopSilkLayer*
G04 EasyEDA v6.4.17, 2021-03-03T10:10:01+01:00*
G04 9d4de0552c0a465fbb9a068f9b96be7d,b771c775d4444e86a06a5321f8c966cb,10*
G04 Gerber Generator version 0.2*
G04 Scale: 100 percent, Rotated: No, Reflected: No *
G04 Dimensions in inches *
G04 leading zeros omitted , absolute positions ,3 integer and 6 decimal *
%FSLAX36Y36*%
%MOIN*%

%ADD10C,0.0100*%
%ADD47C,0.0059*%
%ADD48C,0.0050*%
%ADD49C,0.0080*%
%ADD50C,0.0059*%
%ADD51C,0.0060*%
%ADD52C,0.0197*%

%LPD*%
D51*
X1840500Y-189600D02*
G01*
X1840500Y-222300D01*
X1838400Y-228499D01*
X1836400Y-230500D01*
X1832299Y-232500D01*
X1828199Y-232500D01*
X1824099Y-230500D01*
X1821999Y-228499D01*
X1820000Y-222300D01*
X1820000Y-218200D01*
X1853999Y-197800D02*
G01*
X1858000Y-195700D01*
X1864200Y-189600D01*
X1864200Y-232500D01*
X2100000Y-639600D02*
G01*
X2100000Y-682500D01*
X2100000Y-639600D02*
G01*
X2118400Y-639600D01*
X2124499Y-641599D01*
X2126599Y-643699D01*
X2128599Y-647800D01*
X2128599Y-651900D01*
X2126599Y-655999D01*
X2124499Y-658000D01*
X2118400Y-660000D01*
X2100000Y-660000D01*
X2114300Y-660000D02*
G01*
X2128599Y-682500D01*
X2142100Y-647800D02*
G01*
X2146199Y-645700D01*
X2152399Y-639600D01*
X2152399Y-682500D01*
X1960000Y-739600D02*
G01*
X1960000Y-782500D01*
X1960000Y-739600D02*
G01*
X1978400Y-739600D01*
X1984499Y-741599D01*
X1986599Y-743699D01*
X1988599Y-747800D01*
X1988599Y-751900D01*
X1986599Y-755999D01*
X1984499Y-758000D01*
X1978400Y-760000D01*
X1960000Y-760000D01*
X1974300Y-760000D02*
G01*
X1988599Y-782500D01*
X2004200Y-749800D02*
G01*
X2004200Y-747800D01*
X2006199Y-743699D01*
X2008299Y-741599D01*
X2012399Y-739600D01*
X2020500Y-739600D01*
X2024600Y-741599D01*
X2026700Y-743699D01*
X2028699Y-747800D01*
X2028699Y-751900D01*
X2026700Y-755999D01*
X2022600Y-762100D01*
X2002100Y-782500D01*
X2030799Y-782500D01*
X1289994Y-469594D02*
G01*
X1318594Y-512494D01*
X1318594Y-469594D02*
G01*
X1289994Y-512494D01*
X1332094Y-477795D02*
G01*
X1336194Y-475695D01*
X1342394Y-469594D01*
X1342394Y-512494D01*
X2094997Y-819603D02*
G01*
X2094997Y-862503D01*
X2094997Y-819603D02*
G01*
X2113397Y-819603D01*
X2119497Y-821603D01*
X2121597Y-823703D01*
X2123596Y-827802D01*
X2123596Y-831903D01*
X2121597Y-836003D01*
X2119497Y-838002D01*
X2113397Y-840003D01*
X2094997Y-840003D01*
X2109296Y-840003D02*
G01*
X2123596Y-862503D01*
X2161697Y-819603D02*
G01*
X2141197Y-819603D01*
X2139197Y-838002D01*
X2141197Y-836003D01*
X2147397Y-833903D01*
X2153496Y-833903D01*
X2159597Y-836003D01*
X2163697Y-840003D01*
X2165797Y-846203D01*
X2165797Y-850302D01*
X2163697Y-856403D01*
X2159597Y-860502D01*
X2153496Y-862503D01*
X2147397Y-862503D01*
X2141197Y-860502D01*
X2139197Y-858503D01*
X2137097Y-854403D01*
X1720399Y-940003D02*
G01*
X1677500Y-940003D01*
X1720399Y-940003D02*
G01*
X1720399Y-958402D01*
X1718400Y-964502D01*
X1716300Y-966603D01*
X1712200Y-968602D01*
X1708100Y-968602D01*
X1703999Y-966603D01*
X1701999Y-964502D01*
X1700000Y-958402D01*
X1700000Y-940003D01*
X1700000Y-954302D02*
G01*
X1677500Y-968602D01*
X1720399Y-992402D02*
G01*
X1718400Y-986203D01*
X1714300Y-984203D01*
X1710200Y-984203D01*
X1706099Y-986203D01*
X1703999Y-990302D01*
X1701999Y-998503D01*
X1700000Y-1004603D01*
X1695900Y-1008703D01*
X1691800Y-1010803D01*
X1685600Y-1010803D01*
X1681499Y-1008703D01*
X1679499Y-1006703D01*
X1677500Y-1000502D01*
X1677500Y-992402D01*
X1679499Y-986203D01*
X1681499Y-984203D01*
X1685600Y-982103D01*
X1691800Y-982103D01*
X1695900Y-984203D01*
X1700000Y-988303D01*
X1701999Y-994403D01*
X1703999Y-1002602D01*
X1706099Y-1006703D01*
X1710200Y-1008703D01*
X1714300Y-1008703D01*
X1718400Y-1006703D01*
X1720399Y-1000502D01*
X1720399Y-992402D01*
X1830399Y-1055003D02*
G01*
X1787500Y-1055003D01*
X1830399Y-1055003D02*
G01*
X1830399Y-1073402D01*
X1828400Y-1079502D01*
X1826300Y-1081603D01*
X1822200Y-1083602D01*
X1818100Y-1083602D01*
X1813999Y-1081603D01*
X1811999Y-1079502D01*
X1810000Y-1073402D01*
X1810000Y-1055003D01*
X1810000Y-1069303D02*
G01*
X1787500Y-1083602D01*
X1830399Y-1125803D02*
G01*
X1787500Y-1105302D01*
X1830399Y-1097103D02*
G01*
X1830399Y-1125803D01*
X1765002Y-1354600D02*
G01*
X1765002Y-1397500D01*
X1765002Y-1354600D02*
G01*
X1783402Y-1354600D01*
X1789503Y-1356599D01*
X1791602Y-1358699D01*
X1793603Y-1362800D01*
X1793603Y-1366900D01*
X1791602Y-1370999D01*
X1789503Y-1373000D01*
X1783402Y-1375000D01*
X1765002Y-1375000D01*
X1779303Y-1375000D02*
G01*
X1793603Y-1397500D01*
X1831702Y-1360700D02*
G01*
X1829602Y-1356599D01*
X1823503Y-1354600D01*
X1819403Y-1354600D01*
X1813302Y-1356599D01*
X1809202Y-1362800D01*
X1807102Y-1373000D01*
X1807102Y-1383200D01*
X1809202Y-1391399D01*
X1813302Y-1395500D01*
X1819403Y-1397500D01*
X1821503Y-1397500D01*
X1827602Y-1395500D01*
X1831702Y-1391399D01*
X1833702Y-1385300D01*
X1833702Y-1383200D01*
X1831702Y-1377100D01*
X1827602Y-1373000D01*
X1821503Y-1370999D01*
X1819403Y-1370999D01*
X1813302Y-1373000D01*
X1809202Y-1377100D01*
X1807102Y-1383200D01*
X1955000Y-1139600D02*
G01*
X1955000Y-1182500D01*
X1955000Y-1139600D02*
G01*
X1969300Y-1139600D01*
X1975500Y-1141599D01*
X1979499Y-1145700D01*
X1981599Y-1149800D01*
X1983599Y-1155999D01*
X1983599Y-1166199D01*
X1981599Y-1172300D01*
X1979499Y-1176399D01*
X1975500Y-1180500D01*
X1969300Y-1182500D01*
X1955000Y-1182500D01*
X1997100Y-1147800D02*
G01*
X2001199Y-1145700D01*
X2007399Y-1139600D01*
X2007399Y-1182500D01*
X1902304Y-1304598D02*
G01*
X1898203Y-1306597D01*
X1894103Y-1310698D01*
X1892003Y-1314798D01*
X1890003Y-1320997D01*
X1890003Y-1331197D01*
X1892003Y-1337298D01*
X1894103Y-1341397D01*
X1898203Y-1345497D01*
X1902304Y-1347498D01*
X1910504Y-1347498D01*
X1914503Y-1345497D01*
X1918603Y-1341397D01*
X1920703Y-1337298D01*
X1922704Y-1331197D01*
X1922704Y-1320997D01*
X1920703Y-1314798D01*
X1918603Y-1310698D01*
X1914503Y-1306597D01*
X1910504Y-1304598D01*
X1902304Y-1304598D01*
X1908404Y-1339398D02*
G01*
X1920703Y-1351597D01*
X1936203Y-1312797D02*
G01*
X1940303Y-1310698D01*
X1946504Y-1304598D01*
X1946504Y-1347498D01*
X1837300Y-1139598D02*
G01*
X1833200Y-1141599D01*
X1829101Y-1145698D01*
X1827001Y-1149798D01*
X1825001Y-1155999D01*
X1825001Y-1166199D01*
X1827001Y-1172298D01*
X1829101Y-1176399D01*
X1833200Y-1180498D01*
X1837300Y-1182498D01*
X1845501Y-1182498D01*
X1849501Y-1180498D01*
X1853600Y-1176399D01*
X1855700Y-1172298D01*
X1857700Y-1166199D01*
X1857700Y-1155999D01*
X1855700Y-1149798D01*
X1853600Y-1145698D01*
X1849501Y-1141599D01*
X1845501Y-1139598D01*
X1837300Y-1139598D01*
X1843401Y-1174398D02*
G01*
X1855700Y-1186599D01*
X1873301Y-1149798D02*
G01*
X1873301Y-1147799D01*
X1875300Y-1143699D01*
X1877400Y-1141599D01*
X1881500Y-1139598D01*
X1889601Y-1139598D01*
X1893701Y-1141599D01*
X1895801Y-1143699D01*
X1897800Y-1147799D01*
X1897800Y-1151898D01*
X1895801Y-1155999D01*
X1891701Y-1162098D01*
X1871201Y-1182498D01*
X1899900Y-1182498D01*
X1840704Y-969800D02*
G01*
X1838604Y-965700D01*
X1834504Y-961599D01*
X1830505Y-959600D01*
X1822304Y-959600D01*
X1818204Y-961599D01*
X1814104Y-965700D01*
X1812004Y-969800D01*
X1810005Y-975999D01*
X1810005Y-986199D01*
X1812004Y-992300D01*
X1814104Y-996399D01*
X1818204Y-1000500D01*
X1822304Y-1002500D01*
X1830505Y-1002500D01*
X1834504Y-1000500D01*
X1838604Y-996399D01*
X1840704Y-992300D01*
X1858305Y-959600D02*
G01*
X1880805Y-959600D01*
X1868504Y-975999D01*
X1874605Y-975999D01*
X1878705Y-978000D01*
X1880805Y-980000D01*
X1882804Y-986199D01*
X1882804Y-990300D01*
X1880805Y-996399D01*
X1876705Y-1000500D01*
X1870505Y-1002500D01*
X1864404Y-1002500D01*
X1858305Y-1000500D01*
X1856205Y-998499D01*
X1854205Y-994400D01*
X1704998Y-529600D02*
G01*
X1704998Y-572500D01*
X1704998Y-572500D02*
G01*
X1729498Y-572500D01*
X1742998Y-537800D02*
G01*
X1747098Y-535700D01*
X1753298Y-529600D01*
X1753298Y-572500D01*
X2175000Y-934600D02*
G01*
X2175000Y-977500D01*
X2175000Y-977500D02*
G01*
X2199499Y-977500D01*
X2213000Y-934600D02*
G01*
X2213000Y-977500D01*
X2213000Y-934600D02*
G01*
X2239600Y-934600D01*
X2213000Y-955000D02*
G01*
X2229399Y-955000D01*
X2213000Y-977500D02*
G01*
X2239600Y-977500D01*
X2253100Y-934600D02*
G01*
X2253100Y-977500D01*
X2253100Y-934600D02*
G01*
X2267500Y-934600D01*
X2273599Y-936599D01*
X2277700Y-940700D01*
X2279700Y-944800D01*
X2281800Y-950999D01*
X2281800Y-961199D01*
X2279700Y-967300D01*
X2277700Y-971399D01*
X2273599Y-975500D01*
X2267500Y-977500D01*
X2253100Y-977500D01*
X2295299Y-942800D02*
G01*
X2299399Y-940700D01*
X2305500Y-934600D01*
X2305500Y-977500D01*
X2210002Y-1309596D02*
G01*
X2210002Y-1340297D01*
X2212002Y-1346397D01*
X2216102Y-1350497D01*
X2222301Y-1352496D01*
X2226401Y-1352496D01*
X2232502Y-1350497D01*
X2236602Y-1346397D01*
X2238602Y-1340297D01*
X2238602Y-1309596D01*
X2252102Y-1317797D02*
G01*
X2256202Y-1315697D01*
X2262402Y-1309596D01*
X2262402Y-1352496D01*
X2260000Y-1109600D02*
G01*
X2260000Y-1152500D01*
X2260000Y-1109600D02*
G01*
X2278400Y-1109600D01*
X2284499Y-1111599D01*
X2286599Y-1113699D01*
X2288599Y-1117800D01*
X2288599Y-1121900D01*
X2286599Y-1125999D01*
X2284499Y-1128000D01*
X2278400Y-1130000D01*
X2260000Y-1130000D01*
X2274300Y-1130000D02*
G01*
X2288599Y-1152500D01*
X2322600Y-1109600D02*
G01*
X2302100Y-1138200D01*
X2332799Y-1138200D01*
X2322600Y-1109600D02*
G01*
X2322600Y-1152500D01*
X2010704Y-371399D02*
G01*
X2006604Y-375500D01*
X2004605Y-381599D01*
X2004605Y-389800D01*
X2006604Y-395900D01*
X2010704Y-400000D01*
X2014804Y-400000D01*
X2018905Y-398000D01*
X2021004Y-395900D01*
X2023005Y-391799D01*
X2027105Y-379499D01*
X2029104Y-375500D01*
X2031205Y-373400D01*
X2035304Y-371399D01*
X2041405Y-371399D01*
X2045505Y-375500D01*
X2047505Y-381599D01*
X2047505Y-389800D01*
X2045505Y-395900D01*
X2041405Y-400000D01*
X2004605Y-357899D02*
G01*
X2047505Y-347600D01*
X2004605Y-337399D02*
G01*
X2047505Y-347600D01*
X2004605Y-337399D02*
G01*
X2047505Y-327199D01*
X2004605Y-316999D02*
G01*
X2047505Y-327199D01*
X2012804Y-303499D02*
G01*
X2010704Y-299400D01*
X2004605Y-293200D01*
X2047505Y-293200D01*
X2012704Y-33400D02*
G01*
X2008604Y-37500D01*
X2006604Y-43600D01*
X2006604Y-51799D01*
X2008604Y-57899D01*
X2012704Y-61999D01*
X2016805Y-61999D01*
X2020905Y-60000D01*
X2023005Y-57899D01*
X2025005Y-53800D01*
X2029104Y-41500D01*
X2031104Y-37500D01*
X2033204Y-35399D01*
X2037304Y-33400D01*
X2043405Y-33400D01*
X2047505Y-37500D01*
X2049504Y-43600D01*
X2049504Y-51799D01*
X2047505Y-57899D01*
X2043405Y-61999D01*
X2006604Y-19899D02*
G01*
X2049504Y-9600D01*
X2006604Y599D02*
G01*
X2049504Y-9600D01*
X2006604Y599D02*
G01*
X2049504Y10799D01*
X2006604Y20999D02*
G01*
X2049504Y10799D01*
X2016805Y36599D02*
G01*
X2014804Y36599D01*
X2010704Y38600D01*
X2008604Y40700D01*
X2006604Y44800D01*
X2006604Y53000D01*
X2008604Y56999D01*
X2010704Y59099D01*
X2014804Y61100D01*
X2018905Y61100D01*
X2023005Y59099D01*
X2029104Y55000D01*
X2049504Y34499D01*
X2049504Y63200D01*
X2030600Y-894000D02*
G01*
X2061300Y-894000D01*
X2067399Y-891999D01*
X2071499Y-887899D01*
X2073500Y-881700D01*
X2073500Y-877600D01*
X2071499Y-871500D01*
X2067399Y-867399D01*
X2061300Y-865399D01*
X2030600Y-865399D01*
X2040799Y-849800D02*
G01*
X2038800Y-849800D01*
X2034700Y-847800D01*
X2032600Y-845700D01*
X2030600Y-841599D01*
X2030600Y-833499D01*
X2032600Y-829400D01*
X2034700Y-827300D01*
X2038800Y-825300D01*
X2042899Y-825300D01*
X2046999Y-827300D01*
X2053100Y-831399D01*
X2073500Y-851900D01*
X2073500Y-823200D01*
X1330200Y-585695D02*
G01*
X1334300Y-583595D01*
X1338400Y-579495D01*
X1340399Y-575495D01*
X1340399Y-567294D01*
X1338400Y-563195D01*
X1334300Y-559095D01*
X1330200Y-556995D01*
X1323999Y-554994D01*
X1313800Y-554994D01*
X1307700Y-556995D01*
X1303599Y-559095D01*
X1299499Y-563195D01*
X1297500Y-567294D01*
X1297500Y-575495D01*
X1299499Y-579495D01*
X1303599Y-583595D01*
X1307700Y-585695D01*
X1340399Y-623694D02*
G01*
X1340399Y-603294D01*
X1321999Y-601194D01*
X1323999Y-603294D01*
X1326099Y-609394D01*
X1326099Y-615495D01*
X1323999Y-621694D01*
X1320000Y-625794D01*
X1313800Y-627795D01*
X1309700Y-627795D01*
X1303599Y-625794D01*
X1299499Y-621694D01*
X1297500Y-615495D01*
X1297500Y-609394D01*
X1299499Y-603294D01*
X1301499Y-601194D01*
X1305600Y-599194D01*
X1089799Y-599295D02*
G01*
X1085699Y-601395D01*
X1081599Y-605495D01*
X1079600Y-609495D01*
X1079600Y-617694D01*
X1081599Y-621795D01*
X1085699Y-625895D01*
X1089799Y-627995D01*
X1096000Y-629994D01*
X1106199Y-629994D01*
X1112299Y-627995D01*
X1116400Y-625895D01*
X1120500Y-621795D01*
X1122500Y-617694D01*
X1122500Y-609495D01*
X1120500Y-605495D01*
X1116400Y-601395D01*
X1112299Y-599295D01*
X1079600Y-565394D02*
G01*
X1108199Y-585794D01*
X1108199Y-555095D01*
X1079600Y-565394D02*
G01*
X1122500Y-565394D01*
X1294994Y-9600D02*
G01*
X1294994Y-40300D01*
X1296994Y-46399D01*
X1301094Y-50500D01*
X1307295Y-52500D01*
X1311395Y-52500D01*
X1317494Y-50500D01*
X1321594Y-46399D01*
X1323594Y-40300D01*
X1323594Y-9600D01*
X1341194Y-9600D02*
G01*
X1363694Y-9600D01*
X1351495Y-25999D01*
X1357595Y-25999D01*
X1361694Y-28000D01*
X1363694Y-30000D01*
X1365794Y-36199D01*
X1365794Y-40300D01*
X1363694Y-46399D01*
X1359594Y-50500D01*
X1353495Y-52500D01*
X1347394Y-52500D01*
X1341194Y-50500D01*
X1339194Y-48499D01*
X1337094Y-44400D01*
X1501400Y-864600D02*
G01*
X1485000Y-907500D01*
X1501400Y-864600D02*
G01*
X1517700Y-907500D01*
X1491099Y-893200D02*
G01*
X1511599Y-893200D01*
X1531199Y-872800D02*
G01*
X1535299Y-870700D01*
X1541499Y-864600D01*
X1541499Y-907500D01*
X805000Y-159600D02*
G01*
X805000Y-190300D01*
X806999Y-196399D01*
X811099Y-200500D01*
X817299Y-202500D01*
X821400Y-202500D01*
X827500Y-200500D01*
X831599Y-196399D01*
X833599Y-190300D01*
X833599Y-159600D01*
X871700Y-165700D02*
G01*
X869600Y-161599D01*
X863500Y-159600D01*
X859399Y-159600D01*
X853299Y-161599D01*
X849200Y-167800D01*
X847100Y-178000D01*
X847100Y-188200D01*
X849200Y-196399D01*
X853299Y-200500D01*
X859399Y-202500D01*
X861499Y-202500D01*
X867600Y-200500D01*
X871700Y-196399D01*
X873699Y-190300D01*
X873699Y-188200D01*
X871700Y-182100D01*
X867600Y-178000D01*
X861499Y-175999D01*
X859399Y-175999D01*
X853299Y-178000D01*
X849200Y-182100D01*
X847100Y-188200D01*
X575000Y90399D02*
G01*
X575000Y47500D01*
X575000Y90399D02*
G01*
X593400Y90399D01*
X599499Y88400D01*
X601599Y86300D01*
X603600Y82199D01*
X603600Y78099D01*
X601599Y74000D01*
X599499Y71999D01*
X593400Y70000D01*
X575000Y70000D01*
X589299Y70000D02*
G01*
X603600Y47500D01*
X617100Y82199D02*
G01*
X621199Y84299D01*
X627399Y90399D01*
X627399Y47500D01*
X667500Y76100D02*
G01*
X665399Y70000D01*
X661300Y65900D01*
X655199Y63800D01*
X653099Y63800D01*
X646999Y65900D01*
X642899Y70000D01*
X640900Y76100D01*
X640900Y78099D01*
X642899Y84299D01*
X646999Y88400D01*
X653099Y90399D01*
X655199Y90399D01*
X661300Y88400D01*
X665399Y84299D01*
X667500Y76100D01*
X667500Y65900D01*
X665399Y55599D01*
X661300Y49499D01*
X655199Y47500D01*
X651100Y47500D01*
X645000Y49499D01*
X642899Y53600D01*
X549600Y-90000D02*
G01*
X592500Y-90000D01*
X549600Y-90000D02*
G01*
X549600Y-71599D01*
X551599Y-65500D01*
X553699Y-63400D01*
X557800Y-61399D01*
X561900Y-61399D01*
X565999Y-63400D01*
X568000Y-65500D01*
X570000Y-71599D01*
X570000Y-90000D01*
X570000Y-75700D02*
G01*
X592500Y-61399D01*
X559800Y-45799D02*
G01*
X557800Y-45799D01*
X553699Y-43800D01*
X551599Y-41700D01*
X549600Y-37600D01*
X549600Y-29499D01*
X551599Y-25399D01*
X553699Y-23299D01*
X557800Y-21300D01*
X561900Y-21300D01*
X565999Y-23299D01*
X572100Y-27399D01*
X592500Y-47899D01*
X592500Y-19200D01*
X549600Y6500D02*
G01*
X551599Y399D01*
X557800Y-3699D01*
X568000Y-5700D01*
X574099Y-5700D01*
X584400Y-3699D01*
X590500Y399D01*
X592500Y6500D01*
X592500Y10599D01*
X590500Y16799D01*
X584400Y20900D01*
X574099Y22899D01*
X568000Y22899D01*
X557800Y20900D01*
X551599Y16799D01*
X549600Y10599D01*
X549600Y6500D01*
X550000Y-234600D02*
G01*
X550000Y-277500D01*
X550000Y-234600D02*
G01*
X568400Y-234600D01*
X574499Y-236599D01*
X576599Y-238699D01*
X578600Y-242800D01*
X578600Y-246900D01*
X576599Y-250999D01*
X574499Y-253000D01*
X568400Y-255000D01*
X550000Y-255000D01*
X564299Y-255000D02*
G01*
X578600Y-277500D01*
X594200Y-244800D02*
G01*
X594200Y-242800D01*
X596199Y-238699D01*
X598299Y-236599D01*
X602399Y-234600D01*
X610500Y-234600D01*
X614600Y-236599D01*
X616700Y-238699D01*
X618699Y-242800D01*
X618699Y-246900D01*
X616700Y-250999D01*
X612600Y-257100D01*
X592100Y-277500D01*
X620799Y-277500D01*
X634299Y-242800D02*
G01*
X638400Y-240700D01*
X644499Y-234600D01*
X644499Y-277500D01*
X435000Y-29600D02*
G01*
X435000Y-60300D01*
X436999Y-66399D01*
X441100Y-70500D01*
X447300Y-72500D01*
X451399Y-72500D01*
X457500Y-70500D01*
X461599Y-66399D01*
X463600Y-60300D01*
X463600Y-29600D01*
X505799Y-29600D02*
G01*
X485300Y-72500D01*
X477100Y-29600D02*
G01*
X505799Y-29600D01*
X865399Y-315000D02*
G01*
X822500Y-315000D01*
X865399Y-315000D02*
G01*
X865399Y-333400D01*
X863400Y-339499D01*
X861300Y-341599D01*
X857200Y-343600D01*
X853100Y-343600D01*
X848999Y-341599D01*
X846999Y-339499D01*
X845000Y-333400D01*
X845000Y-315000D01*
X845000Y-329299D02*
G01*
X822500Y-343600D01*
X857200Y-357100D02*
G01*
X859300Y-361199D01*
X865399Y-367399D01*
X822500Y-367399D01*
X865399Y-409499D02*
G01*
X822500Y-389000D01*
X865399Y-380900D02*
G01*
X865399Y-409499D01*
X975699Y-554800D02*
G01*
X973599Y-550700D01*
X969499Y-546599D01*
X965500Y-544600D01*
X957299Y-544600D01*
X953199Y-546599D01*
X949099Y-550700D01*
X946999Y-554800D01*
X945000Y-560999D01*
X945000Y-571199D01*
X946999Y-577300D01*
X949099Y-581399D01*
X953199Y-585500D01*
X957299Y-587500D01*
X965500Y-587500D01*
X969499Y-585500D01*
X973599Y-581399D01*
X975699Y-577300D01*
X1013699Y-550700D02*
G01*
X1011700Y-546599D01*
X1005500Y-544600D01*
X1001499Y-544600D01*
X995299Y-546599D01*
X991199Y-552800D01*
X989200Y-563000D01*
X989200Y-573200D01*
X991199Y-581399D01*
X995299Y-585500D01*
X1001499Y-587500D01*
X1003500Y-587500D01*
X1009600Y-585500D01*
X1013699Y-581399D01*
X1015799Y-575300D01*
X1015799Y-573200D01*
X1013699Y-567100D01*
X1009600Y-563000D01*
X1003500Y-560999D01*
X1001499Y-560999D01*
X995299Y-563000D01*
X991199Y-567100D01*
X989200Y-573200D01*
X820000Y-584600D02*
G01*
X820000Y-627500D01*
X820000Y-584600D02*
G01*
X838400Y-584600D01*
X844499Y-586599D01*
X846599Y-588699D01*
X848599Y-592800D01*
X848599Y-596900D01*
X846599Y-600999D01*
X844499Y-603000D01*
X838400Y-605000D01*
X820000Y-605000D01*
X834300Y-605000D02*
G01*
X848599Y-627500D01*
X862100Y-592800D02*
G01*
X866199Y-590700D01*
X872399Y-584600D01*
X872399Y-627500D01*
X890000Y-584600D02*
G01*
X912500Y-584600D01*
X900200Y-600999D01*
X906300Y-600999D01*
X910399Y-603000D01*
X912500Y-605000D01*
X914499Y-611199D01*
X914499Y-615300D01*
X912500Y-621399D01*
X908400Y-625500D01*
X902200Y-627500D01*
X896099Y-627500D01*
X890000Y-625500D01*
X887899Y-623499D01*
X885900Y-619400D01*
X700399Y-590000D02*
G01*
X657500Y-590000D01*
X700399Y-590000D02*
G01*
X700399Y-608400D01*
X698400Y-614499D01*
X696300Y-616599D01*
X692199Y-618600D01*
X688099Y-618600D01*
X684000Y-616599D01*
X681999Y-614499D01*
X680000Y-608400D01*
X680000Y-590000D01*
X680000Y-604299D02*
G01*
X657500Y-618600D01*
X692199Y-632100D02*
G01*
X694299Y-636199D01*
X700399Y-642399D01*
X657500Y-642399D01*
X694299Y-680399D02*
G01*
X698400Y-678400D01*
X700399Y-672199D01*
X700399Y-668099D01*
X698400Y-661999D01*
X692199Y-657899D01*
X681999Y-655900D01*
X671799Y-655900D01*
X663600Y-657899D01*
X659499Y-661999D01*
X657500Y-668099D01*
X657500Y-670199D01*
X659499Y-676300D01*
X663600Y-680399D01*
X669699Y-682500D01*
X671799Y-682500D01*
X677899Y-680399D01*
X681999Y-676300D01*
X684000Y-670199D01*
X684000Y-668099D01*
X681999Y-661999D01*
X677899Y-657899D01*
X671799Y-655900D01*
X895399Y150000D02*
G01*
X852500Y150000D01*
X895399Y150000D02*
G01*
X895399Y131599D01*
X893400Y125500D01*
X891300Y123400D01*
X887200Y121399D01*
X883100Y121399D01*
X878999Y123400D01*
X876999Y125500D01*
X875000Y131599D01*
X875000Y150000D01*
X875000Y135700D02*
G01*
X852500Y121399D01*
X887200Y107899D02*
G01*
X889300Y103800D01*
X895399Y97600D01*
X852500Y97600D01*
X885200Y82100D02*
G01*
X887200Y82100D01*
X891300Y80000D01*
X893400Y78000D01*
X895399Y73899D01*
X895399Y65700D01*
X893400Y61599D01*
X891300Y59600D01*
X887200Y57500D01*
X883100Y57500D01*
X878999Y59600D01*
X872899Y63699D01*
X852500Y84099D01*
X852500Y55500D01*
X575000Y-414600D02*
G01*
X575000Y-457500D01*
X575000Y-414600D02*
G01*
X593400Y-414600D01*
X599499Y-416599D01*
X601599Y-418699D01*
X603600Y-422800D01*
X603600Y-426900D01*
X601599Y-430999D01*
X599499Y-433000D01*
X593400Y-435000D01*
X575000Y-435000D01*
X589299Y-435000D02*
G01*
X603600Y-457500D01*
X617100Y-422800D02*
G01*
X621199Y-420700D01*
X627399Y-414600D01*
X627399Y-457500D01*
X653099Y-414600D02*
G01*
X646999Y-416599D01*
X642899Y-422800D01*
X640900Y-433000D01*
X640900Y-439099D01*
X642899Y-449400D01*
X646999Y-455500D01*
X653099Y-457500D01*
X657199Y-457500D01*
X663400Y-455500D01*
X667500Y-449400D01*
X669499Y-439099D01*
X669499Y-433000D01*
X667500Y-422800D01*
X663400Y-416599D01*
X657199Y-414600D01*
X653099Y-414600D01*
X950000Y-229600D02*
G01*
X950000Y-272500D01*
X950000Y-229600D02*
G01*
X968400Y-229600D01*
X974499Y-231599D01*
X976599Y-233699D01*
X978599Y-237800D01*
X978599Y-241900D01*
X976599Y-245999D01*
X974499Y-248000D01*
X968400Y-250000D01*
X950000Y-250000D01*
X964300Y-250000D02*
G01*
X978599Y-272500D01*
X992100Y-237800D02*
G01*
X996199Y-235700D01*
X1002399Y-229600D01*
X1002399Y-272500D01*
X1036300Y-229600D02*
G01*
X1015900Y-258200D01*
X1046499Y-258200D01*
X1036300Y-229600D02*
G01*
X1036300Y-272500D01*
X910200Y-265700D02*
G01*
X914300Y-263600D01*
X918400Y-259499D01*
X920399Y-255500D01*
X920399Y-247300D01*
X918400Y-243200D01*
X914300Y-239099D01*
X910200Y-236999D01*
X903999Y-235000D01*
X893800Y-235000D01*
X887700Y-236999D01*
X883599Y-239099D01*
X879499Y-243200D01*
X877500Y-247300D01*
X877500Y-255500D01*
X879499Y-259499D01*
X883599Y-263600D01*
X887700Y-265700D01*
X920399Y-289400D02*
G01*
X918400Y-283299D01*
X914300Y-281199D01*
X910200Y-281199D01*
X906099Y-283299D01*
X903999Y-287399D01*
X901999Y-295500D01*
X900000Y-301700D01*
X895900Y-305799D01*
X891800Y-307800D01*
X885600Y-307800D01*
X881499Y-305799D01*
X879499Y-303699D01*
X877500Y-297600D01*
X877500Y-289400D01*
X879499Y-283299D01*
X881499Y-281199D01*
X885600Y-279200D01*
X891800Y-279200D01*
X895900Y-281199D01*
X900000Y-285300D01*
X901999Y-291500D01*
X903999Y-299600D01*
X906099Y-303699D01*
X910200Y-305799D01*
X914300Y-305799D01*
X918400Y-303699D01*
X920399Y-297600D01*
X920399Y-289400D01*
X727303Y170401D02*
G01*
X723204Y168402D01*
X719104Y164301D01*
X717004Y160201D01*
X715003Y154002D01*
X715003Y143802D01*
X717004Y137701D01*
X719104Y133602D01*
X723204Y129502D01*
X727303Y127501D01*
X735504Y127501D01*
X739504Y129502D01*
X743604Y133602D01*
X745704Y137701D01*
X747703Y143802D01*
X747703Y154002D01*
X745704Y160201D01*
X743604Y164301D01*
X739504Y168402D01*
X735504Y170401D01*
X727303Y170401D01*
X733404Y135601D02*
G01*
X745704Y123402D01*
X765303Y170401D02*
G01*
X787803Y170401D01*
X775504Y154002D01*
X781703Y154002D01*
X785803Y152002D01*
X787803Y150001D01*
X789903Y143802D01*
X789903Y139702D01*
X787803Y133602D01*
X783703Y129502D01*
X777604Y127501D01*
X771504Y127501D01*
X765303Y129502D01*
X763303Y131502D01*
X761203Y135601D01*
X467300Y-384600D02*
G01*
X463200Y-386599D01*
X459099Y-390700D01*
X456999Y-394800D01*
X455000Y-400999D01*
X455000Y-411199D01*
X456999Y-417300D01*
X459099Y-421399D01*
X463200Y-425500D01*
X467300Y-427500D01*
X475500Y-427500D01*
X479499Y-425500D01*
X483600Y-421399D01*
X485700Y-417300D01*
X487699Y-411199D01*
X487699Y-400999D01*
X485700Y-394800D01*
X483600Y-390700D01*
X479499Y-386599D01*
X475500Y-384600D01*
X467300Y-384600D01*
X473400Y-419400D02*
G01*
X485700Y-431599D01*
X525799Y-384600D02*
G01*
X505300Y-384600D01*
X503299Y-403000D01*
X505300Y-400999D01*
X511500Y-398899D01*
X517600Y-398899D01*
X523699Y-400999D01*
X527800Y-405000D01*
X529899Y-411199D01*
X529899Y-415300D01*
X527800Y-421399D01*
X523699Y-425500D01*
X517600Y-427500D01*
X511500Y-427500D01*
X505300Y-425500D01*
X503299Y-423499D01*
X501199Y-419400D01*
X467300Y-554600D02*
G01*
X463200Y-556599D01*
X459099Y-560700D01*
X456999Y-564800D01*
X455000Y-570999D01*
X455000Y-581199D01*
X456999Y-587300D01*
X459099Y-591399D01*
X463200Y-595500D01*
X467300Y-597500D01*
X475500Y-597500D01*
X479499Y-595500D01*
X483600Y-591399D01*
X485700Y-587300D01*
X487699Y-581199D01*
X487699Y-570999D01*
X485700Y-564800D01*
X483600Y-560700D01*
X479499Y-556599D01*
X475500Y-554600D01*
X467300Y-554600D01*
X473400Y-589400D02*
G01*
X485700Y-601599D01*
X521700Y-554600D02*
G01*
X501199Y-583200D01*
X531900Y-583200D01*
X521700Y-554600D02*
G01*
X521700Y-597500D01*
X2279596Y95000D02*
G01*
X2322496Y95000D01*
X2279596Y95000D02*
G01*
X2279596Y113400D01*
X2281595Y119499D01*
X2283696Y121599D01*
X2287795Y123600D01*
X2291895Y123600D01*
X2295995Y121599D01*
X2297996Y119499D01*
X2299996Y113400D01*
X2299996Y95000D01*
X2299996Y109299D02*
G01*
X2322496Y123600D01*
X2293896Y163699D02*
G01*
X2299996Y161700D01*
X2304095Y157600D01*
X2306196Y151500D01*
X2306196Y149400D01*
X2304095Y143299D01*
X2299996Y139200D01*
X2293896Y137100D01*
X2291895Y137100D01*
X2285695Y139200D01*
X2281595Y143299D01*
X2279596Y149400D01*
X2279596Y151500D01*
X2281595Y157600D01*
X2285695Y161700D01*
X2293896Y163699D01*
X2304095Y163699D01*
X2314395Y161700D01*
X2320496Y157600D01*
X2322496Y151500D01*
X2322496Y147399D01*
X2320496Y141199D01*
X2316396Y139200D01*
X2279596Y-555000D02*
G01*
X2322496Y-555000D01*
X2279596Y-555000D02*
G01*
X2279596Y-536599D01*
X2281595Y-530500D01*
X2283696Y-528400D01*
X2287795Y-526399D01*
X2291895Y-526399D01*
X2295995Y-528400D01*
X2297996Y-530500D01*
X2299996Y-536599D01*
X2299996Y-555000D01*
X2299996Y-540700D02*
G01*
X2322496Y-526399D01*
X2289795Y-510799D02*
G01*
X2287795Y-510799D01*
X2283696Y-508800D01*
X2281595Y-506700D01*
X2279596Y-502600D01*
X2279596Y-494499D01*
X2281595Y-490399D01*
X2283696Y-488299D01*
X2287795Y-486300D01*
X2291895Y-486300D01*
X2295995Y-488299D01*
X2302096Y-492399D01*
X2322496Y-512899D01*
X2322496Y-484200D01*
X2289795Y-468699D02*
G01*
X2287795Y-468699D01*
X2283696Y-466599D01*
X2281595Y-464600D01*
X2279596Y-460500D01*
X2279596Y-452300D01*
X2281595Y-448200D01*
X2283696Y-446199D01*
X2287795Y-444099D01*
X2291895Y-444099D01*
X2295995Y-446199D01*
X2302096Y-450300D01*
X2322496Y-470700D01*
X2322496Y-442100D01*
X960399Y-30000D02*
G01*
X917500Y-30000D01*
X960399Y-30000D02*
G01*
X960399Y-48400D01*
X958400Y-54499D01*
X956300Y-56599D01*
X952200Y-58600D01*
X948100Y-58600D01*
X943999Y-56599D01*
X941999Y-54499D01*
X940000Y-48400D01*
X940000Y-30000D01*
X940000Y-44299D02*
G01*
X917500Y-58600D01*
X952200Y-72100D02*
G01*
X954300Y-76199D01*
X960399Y-82399D01*
X917500Y-82399D01*
X960399Y-120399D02*
G01*
X960399Y-100000D01*
X941999Y-97899D01*
X943999Y-100000D01*
X946099Y-106100D01*
X946099Y-112199D01*
X943999Y-118400D01*
X940000Y-122500D01*
X933800Y-124499D01*
X929700Y-124499D01*
X923599Y-122500D01*
X919499Y-118400D01*
X917500Y-112199D01*
X917500Y-106100D01*
X919499Y-100000D01*
X921499Y-97899D01*
X925600Y-95900D01*
X745000Y-459600D02*
G01*
X745000Y-502500D01*
X745000Y-459600D02*
G01*
X763400Y-459600D01*
X769499Y-461599D01*
X771599Y-463699D01*
X773599Y-467800D01*
X773599Y-471900D01*
X771599Y-475999D01*
X769499Y-478000D01*
X763400Y-480000D01*
X745000Y-480000D01*
X759299Y-480000D02*
G01*
X773599Y-502500D01*
X787100Y-467800D02*
G01*
X791199Y-465700D01*
X797399Y-459600D01*
X797399Y-502500D01*
X821099Y-459600D02*
G01*
X815000Y-461599D01*
X812899Y-465700D01*
X812899Y-469800D01*
X815000Y-473899D01*
X818999Y-475999D01*
X827200Y-478000D01*
X833400Y-480000D01*
X837500Y-484099D01*
X839499Y-488200D01*
X839499Y-494400D01*
X837500Y-498499D01*
X835399Y-500500D01*
X829300Y-502500D01*
X821099Y-502500D01*
X815000Y-500500D01*
X812899Y-498499D01*
X810900Y-494400D01*
X810900Y-488200D01*
X812899Y-484099D01*
X816999Y-480000D01*
X823100Y-478000D01*
X831300Y-475999D01*
X835399Y-473899D01*
X837500Y-469800D01*
X837500Y-465700D01*
X835399Y-461599D01*
X829300Y-459600D01*
X821099Y-459600D01*
X935000Y90399D02*
G01*
X935000Y47500D01*
X935000Y90399D02*
G01*
X953400Y90399D01*
X959499Y88400D01*
X961599Y86300D01*
X963599Y82199D01*
X963599Y78099D01*
X961599Y74000D01*
X959499Y71999D01*
X953400Y70000D01*
X935000Y70000D01*
X949300Y70000D02*
G01*
X963599Y47500D01*
X977100Y82199D02*
G01*
X981199Y84299D01*
X987399Y90399D01*
X987399Y47500D01*
X1000900Y82199D02*
G01*
X1005000Y84299D01*
X1011099Y90399D01*
X1011099Y47500D01*
X2264600Y-420000D02*
G01*
X2307500Y-420000D01*
X2307500Y-420000D02*
G01*
X2307500Y-395500D01*
X2264600Y-381999D02*
G01*
X2307500Y-381999D01*
X2264600Y-381999D02*
G01*
X2264600Y-355399D01*
X2285000Y-381999D02*
G01*
X2285000Y-365599D01*
X2307500Y-381999D02*
G01*
X2307500Y-355399D01*
X2264600Y-341900D02*
G01*
X2307500Y-341900D01*
X2264600Y-341900D02*
G01*
X2264600Y-327500D01*
X2266599Y-321399D01*
X2270699Y-317300D01*
X2274799Y-315300D01*
X2281000Y-313200D01*
X2291199Y-313200D01*
X2297299Y-315300D01*
X2301400Y-317300D01*
X2305500Y-321399D01*
X2307500Y-327500D01*
X2307500Y-341900D01*
X2264600Y-295599D02*
G01*
X2264600Y-273099D01*
X2281000Y-285399D01*
X2281000Y-279299D01*
X2283000Y-275199D01*
X2285000Y-273099D01*
X2291199Y-271100D01*
X2295299Y-271100D01*
X2301400Y-273099D01*
X2305500Y-277199D01*
X2307500Y-283400D01*
X2307500Y-289499D01*
X2305500Y-295599D01*
X2303500Y-297699D01*
X2299399Y-299699D01*
X2264600Y-75000D02*
G01*
X2307500Y-75000D01*
X2307500Y-75000D02*
G01*
X2307500Y-50500D01*
X2264600Y-36999D02*
G01*
X2307500Y-36999D01*
X2264600Y-36999D02*
G01*
X2264600Y-10399D01*
X2285000Y-36999D02*
G01*
X2285000Y-20599D01*
X2307500Y-36999D02*
G01*
X2307500Y-10399D01*
X2264600Y3099D02*
G01*
X2307500Y3099D01*
X2264600Y3099D02*
G01*
X2264600Y17500D01*
X2266599Y23600D01*
X2270699Y27699D01*
X2274799Y29699D01*
X2281000Y31799D01*
X2291199Y31799D01*
X2297299Y29699D01*
X2301400Y27699D01*
X2305500Y23600D01*
X2307500Y17500D01*
X2307500Y3099D01*
X2274799Y47300D02*
G01*
X2272799Y47300D01*
X2268699Y49400D01*
X2266599Y51399D01*
X2264600Y55500D01*
X2264600Y63699D01*
X2266599Y67800D01*
X2268699Y69800D01*
X2272799Y71900D01*
X2276899Y71900D01*
X2281000Y69800D01*
X2287100Y65700D01*
X2307500Y45300D01*
X2307500Y73899D01*
X2305500Y-1354605D02*
G01*
X2305500Y-1387305D01*
X2303400Y-1393505D01*
X2301400Y-1395504D01*
X2297299Y-1397505D01*
X2293199Y-1397505D01*
X2289099Y-1395504D01*
X2286999Y-1393505D01*
X2285000Y-1387305D01*
X2285000Y-1383204D01*
X2321000Y-1364805D02*
G01*
X2321000Y-1362804D01*
X2323000Y-1358705D01*
X2325100Y-1356604D01*
X2329200Y-1354605D01*
X2337399Y-1354605D01*
X2341499Y-1356604D01*
X2343500Y-1358705D01*
X2345500Y-1362804D01*
X2345500Y-1366905D01*
X2343500Y-1371005D01*
X2339399Y-1377105D01*
X2318999Y-1397505D01*
X2347600Y-1397505D01*
X715695Y-64800D02*
G01*
X713595Y-60700D01*
X709495Y-56599D01*
X705495Y-54600D01*
X697294Y-54600D01*
X693195Y-56599D01*
X689095Y-60700D01*
X686995Y-64800D01*
X684994Y-70999D01*
X684994Y-81199D01*
X686995Y-87300D01*
X689095Y-91399D01*
X693195Y-95500D01*
X697294Y-97500D01*
X705495Y-97500D01*
X709495Y-95500D01*
X713595Y-91399D01*
X715695Y-87300D01*
X755794Y-68899D02*
G01*
X753694Y-75000D01*
X749594Y-79099D01*
X743494Y-81199D01*
X741494Y-81199D01*
X735295Y-79099D01*
X731194Y-75000D01*
X729194Y-68899D01*
X729194Y-66900D01*
X731194Y-60700D01*
X735295Y-56599D01*
X741494Y-54600D01*
X743494Y-54600D01*
X749594Y-56599D01*
X753694Y-60700D01*
X755794Y-68899D01*
X755794Y-79099D01*
X753694Y-89400D01*
X749594Y-95500D01*
X743494Y-97500D01*
X739394Y-97500D01*
X733294Y-95500D01*
X731194Y-91399D01*
X1080399Y-365000D02*
G01*
X1049700Y-365000D01*
X1043599Y-366999D01*
X1039499Y-371100D01*
X1037500Y-377300D01*
X1037500Y-381399D01*
X1039499Y-387500D01*
X1043599Y-391599D01*
X1049700Y-393600D01*
X1080399Y-393600D01*
X1080399Y-427600D02*
G01*
X1051800Y-407100D01*
X1051800Y-437800D01*
X1080399Y-427600D02*
G01*
X1037500Y-427600D01*
X735000Y-654600D02*
G01*
X735000Y-685300D01*
X736999Y-691399D01*
X741100Y-695500D01*
X747300Y-697500D01*
X751399Y-697500D01*
X757500Y-695500D01*
X761599Y-691399D01*
X763599Y-685300D01*
X763599Y-654600D01*
X801700Y-654600D02*
G01*
X781199Y-654600D01*
X779200Y-673000D01*
X781199Y-670999D01*
X787399Y-668899D01*
X793500Y-668899D01*
X799600Y-670999D01*
X803699Y-675000D01*
X805799Y-681199D01*
X805799Y-685300D01*
X803699Y-691399D01*
X799600Y-695500D01*
X793500Y-697500D01*
X787399Y-697500D01*
X781199Y-695500D01*
X779200Y-693499D01*
X777100Y-689400D01*
X2164602Y-1075001D02*
G01*
X2207502Y-1075001D01*
X2164602Y-1075001D02*
G01*
X2164602Y-1056601D01*
X2166602Y-1050502D01*
X2168702Y-1048402D01*
X2172803Y-1046401D01*
X2176903Y-1046401D01*
X2181003Y-1048402D01*
X2183002Y-1050502D01*
X2185002Y-1056601D01*
X2185002Y-1075001D01*
X2185002Y-1060702D02*
G01*
X2207502Y-1046401D01*
X2164602Y-1028802D02*
G01*
X2164602Y-1006302D01*
X2181003Y-1018501D01*
X2181003Y-1012402D01*
X2183002Y-1008301D01*
X2185002Y-1006302D01*
X2191202Y-1004202D01*
X2195303Y-1004202D01*
X2201403Y-1006302D01*
X2205502Y-1010401D01*
X2207502Y-1016502D01*
X2207502Y-1022602D01*
X2205502Y-1028802D01*
X2203503Y-1030801D01*
X2199403Y-1032901D01*
X2110704Y-1329800D02*
G01*
X2108604Y-1325700D01*
X2104504Y-1321599D01*
X2100505Y-1319600D01*
X2092304Y-1319600D01*
X2088204Y-1321599D01*
X2084104Y-1325700D01*
X2082004Y-1329800D01*
X2080005Y-1335999D01*
X2080005Y-1346199D01*
X2082004Y-1352300D01*
X2084104Y-1356399D01*
X2088204Y-1360500D01*
X2092304Y-1362500D01*
X2100505Y-1362500D01*
X2104504Y-1360500D01*
X2108604Y-1356399D01*
X2110704Y-1352300D01*
X2124205Y-1327800D02*
G01*
X2128305Y-1325700D01*
X2134404Y-1319600D01*
X2134404Y-1362500D01*
X1479799Y-609299D02*
G01*
X1475699Y-611399D01*
X1471599Y-615500D01*
X1469600Y-619499D01*
X1469600Y-627699D01*
X1471599Y-631799D01*
X1475699Y-635900D01*
X1479799Y-638000D01*
X1486000Y-640000D01*
X1496199Y-640000D01*
X1502299Y-638000D01*
X1506400Y-635900D01*
X1510500Y-631799D01*
X1512500Y-627699D01*
X1512500Y-619499D01*
X1510500Y-615500D01*
X1506400Y-611399D01*
X1502299Y-609299D01*
X1479799Y-593800D02*
G01*
X1477799Y-593800D01*
X1473699Y-591700D01*
X1471599Y-589699D01*
X1469600Y-585599D01*
X1469600Y-577399D01*
X1471599Y-573299D01*
X1473699Y-571300D01*
X1477799Y-569200D01*
X1481899Y-569200D01*
X1486000Y-571300D01*
X1492100Y-575399D01*
X1512500Y-595799D01*
X1512500Y-567199D01*
X1010699Y-654800D02*
G01*
X1008599Y-650700D01*
X1004499Y-646599D01*
X1000500Y-644600D01*
X992299Y-644600D01*
X988199Y-646599D01*
X984099Y-650700D01*
X981999Y-654800D01*
X980000Y-660999D01*
X980000Y-671199D01*
X981999Y-677300D01*
X984099Y-681399D01*
X988199Y-685500D01*
X992299Y-687500D01*
X1000500Y-687500D01*
X1004499Y-685500D01*
X1008599Y-681399D01*
X1010699Y-677300D01*
X1052799Y-644600D02*
G01*
X1032399Y-687500D01*
X1024200Y-644600D02*
G01*
X1052799Y-644600D01*
X1685500Y-1534600D02*
G01*
X1685500Y-1567300D01*
X1683400Y-1573499D01*
X1681400Y-1575500D01*
X1677299Y-1577500D01*
X1673199Y-1577500D01*
X1669099Y-1575500D01*
X1666999Y-1573499D01*
X1665000Y-1567300D01*
X1665000Y-1563200D01*
X1703000Y-1534600D02*
G01*
X1725500Y-1534600D01*
X1713299Y-1550999D01*
X1719399Y-1550999D01*
X1723500Y-1553000D01*
X1725500Y-1555000D01*
X1727600Y-1561199D01*
X1727600Y-1565300D01*
X1725500Y-1571399D01*
X1721499Y-1575500D01*
X1715299Y-1577500D01*
X1709200Y-1577500D01*
X1703000Y-1575500D01*
X1701000Y-1573499D01*
X1698999Y-1569400D01*
D10*
X1913620Y-175199D02*
G01*
X1778580Y-175199D01*
X1778580Y-175199D02*
G01*
X1778580Y75199D01*
X1913620Y75199D02*
G01*
X1778580Y75199D01*
X1913620Y-175199D02*
G01*
X1913620Y75199D01*
D47*
X2037602Y-738622D02*
G01*
X2037602Y-691377D01*
X2067917Y-738622D02*
G01*
X2037602Y-738622D01*
X2112407Y-738622D02*
G01*
X2112407Y-691377D01*
X2082092Y-738622D02*
G01*
X2112407Y-738622D01*
X2082092Y-691377D02*
G01*
X2112407Y-691377D01*
X2067917Y-691377D02*
G01*
X2037602Y-691377D01*
X2037602Y-793622D02*
G01*
X2037602Y-746377D01*
X2067917Y-793622D02*
G01*
X2037602Y-793622D01*
X2112407Y-793622D02*
G01*
X2112407Y-746377D01*
X2082092Y-793622D02*
G01*
X2112407Y-793622D01*
X2082092Y-746377D02*
G01*
X2112407Y-746377D01*
X2067917Y-746377D02*
G01*
X2037602Y-746377D01*
D10*
X1190000Y-460000D02*
G01*
X1230000Y-460000D01*
X1230000Y-520000D02*
G01*
X1190000Y-520000D01*
D47*
X2092602Y-918622D02*
G01*
X2092602Y-871377D01*
X2122917Y-918622D02*
G01*
X2092602Y-918622D01*
X2167407Y-918622D02*
G01*
X2167407Y-871377D01*
X2137092Y-918622D02*
G01*
X2167407Y-918622D01*
X2137092Y-871377D02*
G01*
X2167407Y-871377D01*
X2122917Y-871377D02*
G01*
X2092602Y-871377D01*
X1731377Y-977602D02*
G01*
X1778622Y-977602D01*
X1731377Y-1007917D02*
G01*
X1731377Y-977602D01*
X1731377Y-1052406D02*
G01*
X1778622Y-1052406D01*
X1731377Y-1022091D02*
G01*
X1731377Y-1052406D01*
X1778622Y-1022091D02*
G01*
X1778622Y-1052406D01*
X1778622Y-1007917D02*
G01*
X1778622Y-977602D01*
X1731377Y-1062602D02*
G01*
X1778622Y-1062602D01*
X1731377Y-1092917D02*
G01*
X1731377Y-1062602D01*
X1731377Y-1137406D02*
G01*
X1778622Y-1137406D01*
X1731377Y-1107091D02*
G01*
X1731377Y-1137406D01*
X1778622Y-1107091D02*
G01*
X1778622Y-1137406D01*
X1778622Y-1092917D02*
G01*
X1778622Y-1062602D01*
X1837395Y-1301163D02*
G01*
X1837395Y-1348409D01*
X1807080Y-1301163D02*
G01*
X1837395Y-1301163D01*
X1762592Y-1301163D02*
G01*
X1762592Y-1348409D01*
X1792906Y-1301163D02*
G01*
X1762592Y-1301163D01*
X1792906Y-1348409D02*
G01*
X1762592Y-1348409D01*
X1807080Y-1348409D02*
G01*
X1837395Y-1348409D01*
D48*
X1999700Y-1075000D02*
G01*
X1949700Y-1075000D01*
X1989700Y-1075000D02*
G01*
X1989700Y-1060000D01*
X1989700Y-1060000D02*
G01*
X1959700Y-1075000D01*
X1959700Y-1075000D02*
G01*
X1959700Y-1060000D01*
X1989700Y-1075000D02*
G01*
X1989700Y-1090000D01*
X1989700Y-1090000D02*
G01*
X1959700Y-1075000D01*
X1959700Y-1075000D02*
G01*
X1959700Y-1090000D01*
D10*
X1941000Y-1130117D02*
G01*
X1941000Y-1019881D01*
X1884449Y-1019882D02*
G01*
X2065550Y-1019881D01*
X1884449Y-1130117D02*
G01*
X2065550Y-1130118D01*
X1884449Y-1019882D02*
G01*
X1884449Y-1026529D01*
X1884449Y-1123470D02*
G01*
X1884449Y-1130117D01*
X2065550Y-1019881D02*
G01*
X2065550Y-1026529D01*
X2065550Y-1123470D02*
G01*
X2065550Y-1130118D01*
X1997361Y-1230441D02*
G01*
X1972638Y-1230441D01*
X2044054Y-1285558D02*
G01*
X2010038Y-1285558D01*
X1959961Y-1285558D02*
G01*
X1925945Y-1285558D01*
X2044054Y-1285558D02*
G01*
X2044054Y-1246188D01*
X1925945Y-1285558D02*
G01*
X1925945Y-1246188D01*
X1787638Y-1247559D02*
G01*
X1812361Y-1247559D01*
X1740945Y-1192440D02*
G01*
X1774961Y-1192440D01*
X1825038Y-1192440D02*
G01*
X1859054Y-1192440D01*
X1740945Y-1192440D02*
G01*
X1740945Y-1231812D01*
X1859054Y-1192440D02*
G01*
X1859054Y-1231812D01*
D47*
X1922915Y-956374D02*
G01*
X1898504Y-956374D01*
X1937089Y-956374D02*
G01*
X1961495Y-956374D01*
X1937089Y-1003620D02*
G01*
X1961495Y-1003620D01*
X1967404Y-995747D02*
G01*
X1967404Y-964252D01*
X1922915Y-1003620D02*
G01*
X1898504Y-1003620D01*
X1892600Y-995747D02*
G01*
X1892600Y-964252D01*
X1967404Y-997712D02*
G01*
X1967404Y-995747D01*
X1967404Y-962283D02*
G01*
X1967404Y-964252D01*
X1892600Y-997716D02*
G01*
X1892600Y-995747D01*
X1892600Y-962278D02*
G01*
X1892600Y-964252D01*
D10*
X1858109Y-823110D02*
G01*
X1621890Y-823110D01*
X1621890Y-586889D02*
G01*
X1858109Y-586889D01*
X1858109Y-652593D01*
X1858109Y-757406D02*
G01*
X1858109Y-823110D01*
X1621890Y-823110D02*
G01*
X1621890Y-823110D01*
X1621890Y-757406D01*
X1621890Y-652593D02*
G01*
X1621890Y-586889D01*
X2321000Y-945500D02*
G01*
X2321000Y-1003499D01*
X2388999Y-945500D02*
G01*
X2388999Y-1003499D01*
X2388999Y-945500D02*
G01*
X2321000Y-945500D01*
X2321000Y-1026500D02*
G01*
X2321000Y-1072500D01*
X2388999Y-1027500D02*
G01*
X2388999Y-1072500D01*
X2388999Y-1072500D02*
G01*
X2375000Y-1086500D01*
X2335000Y-1086500D01*
X2321000Y-1072500D01*
D49*
X2371000Y-1011999D02*
G01*
X2340000Y-1011999D01*
X2355312Y-1011999D02*
G01*
X2355312Y-1018904D01*
D10*
X2275438Y-1173976D02*
G01*
X2204570Y-1173976D01*
X2275438Y-1219252D02*
G01*
X2275438Y-1250749D01*
X2275438Y-1296024D02*
G01*
X2204570Y-1296024D01*
D47*
X2247397Y-1106377D02*
G01*
X2247397Y-1153622D01*
X2217082Y-1106377D02*
G01*
X2247397Y-1106377D01*
X2172592Y-1106377D02*
G01*
X2172592Y-1153622D01*
X2202907Y-1106377D02*
G01*
X2172592Y-1106377D01*
X2202907Y-1153622D02*
G01*
X2172592Y-1153622D01*
X2217082Y-1153622D02*
G01*
X2247397Y-1153622D01*
D10*
X2061412Y-438582D02*
G01*
X2061412Y-261417D01*
X2238577Y-261417D01*
X2238577Y-438582D01*
X2061412Y-438582D01*
X2061412Y-88582D02*
G01*
X2061412Y88582D01*
X2238577Y88582D01*
X2238577Y-88582D01*
X2061412Y-88582D01*
X1888977Y-824562D02*
G01*
X1888977Y-895428D01*
X1934251Y-824562D02*
G01*
X1965748Y-824562D01*
X2011024Y-824562D02*
G01*
X2011024Y-895428D01*
D47*
X1283625Y-582914D02*
G01*
X1283625Y-558503D01*
X1283625Y-597089D02*
G01*
X1283625Y-621496D01*
X1236378Y-597089D02*
G01*
X1236378Y-621496D01*
X1244252Y-627404D02*
G01*
X1275748Y-627404D01*
X1236378Y-582914D02*
G01*
X1236378Y-558503D01*
X1244252Y-552600D02*
G01*
X1275748Y-552600D01*
X1242287Y-627404D02*
G01*
X1244252Y-627404D01*
X1277716Y-627404D02*
G01*
X1275748Y-627404D01*
X1242282Y-552600D02*
G01*
X1244252Y-552600D01*
X1277721Y-552600D02*
G01*
X1275748Y-552600D01*
X1183625Y-582914D02*
G01*
X1183625Y-558503D01*
X1183625Y-597089D02*
G01*
X1183625Y-621496D01*
X1136378Y-597089D02*
G01*
X1136378Y-621496D01*
X1144252Y-627404D02*
G01*
X1175748Y-627404D01*
X1136378Y-582914D02*
G01*
X1136378Y-558503D01*
X1144252Y-552600D02*
G01*
X1175748Y-552600D01*
X1142287Y-627404D02*
G01*
X1144252Y-627404D01*
X1177716Y-627404D02*
G01*
X1175748Y-627404D01*
X1142282Y-552600D02*
G01*
X1144252Y-552600D01*
X1177721Y-552600D02*
G01*
X1175748Y-552600D01*
D10*
X1560015Y214369D02*
G01*
X1160015Y214369D01*
X1160015Y299369D01*
X1560015Y299369D01*
X1560015Y214369D01*
X1160155Y-385630D02*
G01*
X1104108Y-385630D01*
X1210155Y-385630D02*
G01*
X1209854Y-385630D01*
X1260155Y-385630D02*
G01*
X1259854Y-385630D01*
X1310155Y-385630D02*
G01*
X1309854Y-385630D01*
X1360155Y-385630D02*
G01*
X1359854Y-385630D01*
X1410155Y-385630D02*
G01*
X1409854Y-385630D01*
X1460155Y-385630D02*
G01*
X1459854Y-385630D01*
X1510155Y-385630D02*
G01*
X1509854Y-385630D01*
X1615920Y-385630D02*
G01*
X1559854Y-385630D01*
X1104108Y191030D02*
G01*
X1104108Y323031D01*
X1104108Y141030D02*
G01*
X1104108Y141329D01*
X1104108Y91030D02*
G01*
X1104108Y91329D01*
X1104108Y41030D02*
G01*
X1104108Y41329D01*
X1104108Y-8969D02*
G01*
X1104108Y-8670D01*
X1104108Y-58969D02*
G01*
X1104108Y-58670D01*
X1104108Y-108969D02*
G01*
X1104108Y-108670D01*
X1104108Y-158969D02*
G01*
X1104108Y-158670D01*
X1104108Y-208969D02*
G01*
X1104108Y-208670D01*
X1104108Y-258969D02*
G01*
X1104108Y-258668D01*
X1104108Y-385630D02*
G01*
X1104108Y-308670D01*
X1615920Y191030D02*
G01*
X1615920Y323031D01*
X1615920Y141030D02*
G01*
X1615920Y141329D01*
X1615920Y91030D02*
G01*
X1615920Y91331D01*
X1615920Y41030D02*
G01*
X1615920Y41329D01*
X1615920Y-8969D02*
G01*
X1615920Y-8670D01*
X1615920Y-58969D02*
G01*
X1615920Y-58670D01*
X1615920Y-108969D02*
G01*
X1615920Y-108670D01*
X1615920Y-158969D02*
G01*
X1615920Y-158670D01*
X1615920Y-208969D02*
G01*
X1615920Y-208670D01*
X1615920Y-258969D02*
G01*
X1615920Y-258670D01*
X1615920Y-385630D02*
G01*
X1615920Y-308670D01*
X1104108Y323031D02*
G01*
X1615919Y323031D01*
X1515015Y249369D02*
G01*
X1460015Y249369D01*
X1460015Y269369D01*
X1515015Y269369D01*
X1515015Y249369D01*
D50*
X1580379Y-1594789D02*
G01*
X540619Y-1594789D01*
X540619Y-1462899D01*
X426449Y-1462899D01*
X426449Y-951089D01*
X540619Y-951089D01*
X540619Y-819200D01*
X1580379Y-819200D01*
X1580379Y-1047159D01*
X1694549Y-1047159D01*
X1694549Y-1462899D01*
X1580379Y-1462899D01*
X1580379Y-1594789D01*
D51*
X805000Y-295000D02*
G01*
X805000Y-214000D01*
X725700Y-295000D02*
G01*
X752300Y-295000D01*
X673000Y-214000D02*
G01*
X673000Y-295000D01*
D47*
X648622Y-37397D02*
G01*
X601377Y-37397D01*
X648622Y-7082D02*
G01*
X648622Y-37397D01*
X648622Y37406D02*
G01*
X601377Y37406D01*
X648622Y7091D02*
G01*
X648622Y37406D01*
X601377Y7091D02*
G01*
X601377Y37406D01*
X601377Y-7082D02*
G01*
X601377Y-37397D01*
X648622Y-132397D02*
G01*
X601377Y-132397D01*
X648622Y-102082D02*
G01*
X648622Y-132397D01*
X648622Y-57593D02*
G01*
X601377Y-57593D01*
X648622Y-87908D02*
G01*
X648622Y-57593D01*
X601377Y-87908D02*
G01*
X601377Y-57593D01*
X601377Y-102082D02*
G01*
X601377Y-132397D01*
X648622Y-222397D02*
G01*
X601377Y-222397D01*
X648622Y-192082D02*
G01*
X648622Y-222397D01*
X648622Y-147593D02*
G01*
X601377Y-147593D01*
X648622Y-177908D02*
G01*
X648622Y-147593D01*
X601377Y-177908D02*
G01*
X601377Y-147593D01*
X601377Y-192082D02*
G01*
X601377Y-222397D01*
D51*
X471999Y-176999D02*
G01*
X471999Y-218000D01*
X535999Y-218000D01*
X535999Y-88000D02*
G01*
X471999Y-88000D01*
X471999Y-129000D01*
D47*
X737602Y-398622D02*
G01*
X737602Y-351377D01*
X767917Y-398622D02*
G01*
X737602Y-398622D01*
X812407Y-398622D02*
G01*
X812407Y-351377D01*
X782092Y-398622D02*
G01*
X812407Y-398622D01*
X782092Y-351377D02*
G01*
X812407Y-351377D01*
X767917Y-351377D02*
G01*
X737602Y-351377D01*
X967915Y-476374D02*
G01*
X943504Y-476374D01*
X982089Y-476374D02*
G01*
X1006495Y-476374D01*
X982089Y-523620D02*
G01*
X1006495Y-523620D01*
X1012404Y-515747D02*
G01*
X1012404Y-484252D01*
X967915Y-523620D02*
G01*
X943504Y-523620D01*
X937600Y-515747D02*
G01*
X937600Y-484252D01*
X1012404Y-517712D02*
G01*
X1012404Y-515747D01*
X1012404Y-482283D02*
G01*
X1012404Y-484252D01*
X937600Y-517716D02*
G01*
X937600Y-515747D01*
X937600Y-482278D02*
G01*
X937600Y-484252D01*
X902397Y-526377D02*
G01*
X902397Y-573622D01*
X872082Y-526377D02*
G01*
X902397Y-526377D01*
X827592Y-526377D02*
G01*
X827592Y-573622D01*
X857907Y-526377D02*
G01*
X827592Y-526377D01*
X857907Y-573622D02*
G01*
X827592Y-573622D01*
X872082Y-573622D02*
G01*
X902397Y-573622D01*
X643622Y-662397D02*
G01*
X596377Y-662397D01*
X643622Y-632082D02*
G01*
X643622Y-662397D01*
X643622Y-587593D02*
G01*
X596377Y-587593D01*
X643622Y-617908D02*
G01*
X643622Y-587593D01*
X596377Y-617908D02*
G01*
X596377Y-587593D01*
X596377Y-632082D02*
G01*
X596377Y-662397D01*
X851377Y37397D02*
G01*
X898622Y37397D01*
X851377Y7082D02*
G01*
X851377Y37397D01*
X851377Y-37406D02*
G01*
X898622Y-37406D01*
X851377Y-7091D02*
G01*
X851377Y-37406D01*
X898622Y-7091D02*
G01*
X898622Y-37406D01*
X898622Y7082D02*
G01*
X898622Y37397D01*
X723622Y-437397D02*
G01*
X676377Y-437397D01*
X723622Y-407082D02*
G01*
X723622Y-437397D01*
X723622Y-362593D02*
G01*
X676377Y-362593D01*
X723622Y-392908D02*
G01*
X723622Y-362593D01*
X676377Y-392908D02*
G01*
X676377Y-362593D01*
X676377Y-407082D02*
G01*
X676377Y-437397D01*
X947602Y-328622D02*
G01*
X947602Y-281377D01*
X977917Y-328622D02*
G01*
X947602Y-328622D01*
X1022407Y-328622D02*
G01*
X1022407Y-281377D01*
X992092Y-328622D02*
G01*
X1022407Y-328622D01*
X992092Y-281377D02*
G01*
X1022407Y-281377D01*
X977917Y-281377D02*
G01*
X947602Y-281377D01*
X821374Y-267085D02*
G01*
X821374Y-291496D01*
X821374Y-252910D02*
G01*
X821374Y-228503D01*
X868621Y-252910D02*
G01*
X868621Y-228503D01*
X860747Y-222595D02*
G01*
X829251Y-222595D01*
X868621Y-267085D02*
G01*
X868621Y-291496D01*
X860747Y-297399D02*
G01*
X829251Y-297399D01*
X862712Y-222595D02*
G01*
X860747Y-222595D01*
X827283Y-222595D02*
G01*
X829251Y-222595D01*
X862717Y-297399D02*
G01*
X860747Y-297399D01*
X827278Y-297399D02*
G01*
X829251Y-297399D01*
D10*
X787559Y42638D02*
G01*
X787559Y67361D01*
X732440Y-4054D02*
G01*
X732440Y29960D01*
X732440Y80039D02*
G01*
X732440Y114054D01*
X732440Y-4054D02*
G01*
X771811Y-4054D01*
X732440Y114054D02*
G01*
X771811Y114054D01*
X602559Y-362361D02*
G01*
X602559Y-337638D01*
X547440Y-409054D02*
G01*
X547440Y-375039D01*
X547440Y-324960D02*
G01*
X547440Y-290945D01*
X547440Y-409054D02*
G01*
X586811Y-409054D01*
X547440Y-290945D02*
G01*
X586811Y-290945D01*
X602559Y-537361D02*
G01*
X602559Y-512638D01*
X547440Y-584054D02*
G01*
X547440Y-550039D01*
X547440Y-499960D02*
G01*
X547440Y-465945D01*
X547440Y-584054D02*
G01*
X586811Y-584054D01*
X547440Y-465945D02*
G01*
X586811Y-465945D01*
D47*
X2378622Y87602D02*
G01*
X2331377Y87602D01*
X2378622Y117917D02*
G01*
X2378622Y87602D01*
X2378622Y162406D02*
G01*
X2331377Y162406D01*
X2378622Y132091D02*
G01*
X2378622Y162406D01*
X2331377Y132091D02*
G01*
X2331377Y162406D01*
X2331377Y117917D02*
G01*
X2331377Y87602D01*
X2331377Y-437602D02*
G01*
X2378622Y-437602D01*
X2331377Y-467917D02*
G01*
X2331377Y-437602D01*
X2331377Y-512406D02*
G01*
X2378622Y-512406D01*
X2331377Y-482091D02*
G01*
X2331377Y-512406D01*
X2378622Y-482091D02*
G01*
X2378622Y-512406D01*
X2378622Y-467917D02*
G01*
X2378622Y-437602D01*
D10*
X2437245Y-850000D02*
G01*
X2437245Y-610000D01*
X2198545Y-579989D02*
G01*
X2198545Y-879209D01*
X2407245Y-880000D02*
G01*
X2407245Y-850000D01*
X2407245Y-816610D02*
G01*
X2407245Y-650000D01*
X2407245Y-616610D02*
G01*
X2407245Y-580000D01*
X2407245Y-880000D02*
G01*
X2427245Y-900000D01*
X2437245Y-890000D01*
X2437245Y-880000D01*
X2427245Y-870000D01*
X2427245Y-860000D01*
X2437245Y-850000D01*
X2407245Y-580000D02*
G01*
X2427245Y-560000D01*
X2437245Y-570000D01*
X2437245Y-580000D01*
X2427245Y-590000D01*
X2427245Y-600000D01*
X2437245Y-610000D01*
X2198545Y-579989D02*
G01*
X2308615Y-579989D01*
X2396875Y-579989D02*
G01*
X2407245Y-579989D01*
X2198545Y-879209D02*
G01*
X2308303Y-879209D01*
X2397186Y-879209D02*
G01*
X2407245Y-879209D01*
D47*
X1018622Y-107397D02*
G01*
X971377Y-107397D01*
X1018622Y-77082D02*
G01*
X1018622Y-107397D01*
X1018622Y-32593D02*
G01*
X971377Y-32593D01*
X1018622Y-62908D02*
G01*
X1018622Y-32593D01*
X971377Y-62908D02*
G01*
X971377Y-32593D01*
X971377Y-77082D02*
G01*
X971377Y-107397D01*
X737602Y-448622D02*
G01*
X737602Y-401377D01*
X767917Y-448622D02*
G01*
X737602Y-448622D01*
X812407Y-448622D02*
G01*
X812407Y-401377D01*
X782092Y-448622D02*
G01*
X812407Y-448622D01*
X782092Y-401377D02*
G01*
X812407Y-401377D01*
X767917Y-401377D02*
G01*
X737602Y-401377D01*
X927602Y-3622D02*
G01*
X927602Y43622D01*
X957917Y-3622D02*
G01*
X927602Y-3622D01*
X1002407Y-3622D02*
G01*
X1002407Y43622D01*
X972092Y-3622D02*
G01*
X1002407Y-3622D01*
X972092Y43622D02*
G01*
X1002407Y43622D01*
X957917Y43622D02*
G01*
X927602Y43622D01*
D10*
X2321000Y-280500D02*
G01*
X2321000Y-338499D01*
X2388999Y-280500D02*
G01*
X2388999Y-338499D01*
X2388999Y-280500D02*
G01*
X2321000Y-280500D01*
X2321000Y-361500D02*
G01*
X2321000Y-407500D01*
X2388999Y-362500D02*
G01*
X2388999Y-407500D01*
X2388999Y-407500D02*
G01*
X2375000Y-421500D01*
X2335000Y-421500D01*
X2321000Y-407500D01*
D49*
X2371000Y-346999D02*
G01*
X2340000Y-346999D01*
X2355312Y-346999D02*
G01*
X2355312Y-353904D01*
D10*
X2388999Y-69499D02*
G01*
X2388999Y-11500D01*
X2321000Y-69499D02*
G01*
X2321000Y-11500D01*
X2321000Y-69499D02*
G01*
X2388999Y-69499D01*
X2388999Y11500D02*
G01*
X2388999Y57500D01*
X2321000Y12500D02*
G01*
X2321000Y57500D01*
X2321000Y57500D02*
G01*
X2335000Y71500D01*
X2375000Y71500D01*
X2388999Y57500D01*
D49*
X2338999Y-3000D02*
G01*
X2370000Y-3000D01*
X2354687Y-3000D02*
G01*
X2354687Y3904D01*
D10*
X2081575Y-1407735D02*
G01*
X2030393Y-1407735D01*
X2030393Y-1486476D01*
X2030393Y-1577026D02*
G01*
X2329606Y-1577026D01*
X2278425Y-1407735D02*
G01*
X2329606Y-1407735D01*
X2329606Y-1486476D01*
D47*
X727085Y-158625D02*
G01*
X751496Y-158625D01*
X712910Y-158625D02*
G01*
X688503Y-158625D01*
X712910Y-111379D02*
G01*
X688503Y-111379D01*
X682595Y-119252D02*
G01*
X682595Y-150747D01*
X727085Y-111379D02*
G01*
X751496Y-111379D01*
X757399Y-119252D02*
G01*
X757399Y-150747D01*
X682595Y-117287D02*
G01*
X682595Y-119252D01*
X682595Y-152716D02*
G01*
X682595Y-150747D01*
X757399Y-117283D02*
G01*
X757399Y-119252D01*
X757399Y-152721D02*
G01*
X757399Y-150747D01*
X2221377Y-1002602D02*
G01*
X2268622Y-1002602D01*
X2221377Y-1032917D02*
G01*
X2221377Y-1002602D01*
X2221377Y-1077406D02*
G01*
X2268622Y-1077406D01*
X2221377Y-1047091D02*
G01*
X2221377Y-1077406D01*
X2268622Y-1047091D02*
G01*
X2268622Y-1077406D01*
X2268622Y-1032917D02*
G01*
X2268622Y-1002602D01*
D10*
X2082520Y-1238634D02*
G01*
X2082520Y-1207138D01*
X2126212Y-1194940D02*
G01*
X2094717Y-1194940D01*
X2138410Y-1238634D02*
G01*
X2138410Y-1207138D01*
X2082290Y-1261307D02*
G01*
X2082290Y-1292802D01*
X2138181Y-1261307D02*
G01*
X2138181Y-1292802D01*
X2125983Y-1305000D02*
G01*
X2094486Y-1305000D01*
X1527520Y-588634D02*
G01*
X1527520Y-557137D01*
X1571212Y-544940D02*
G01*
X1539717Y-544940D01*
X1583410Y-588634D02*
G01*
X1583410Y-557137D01*
X1527290Y-611307D02*
G01*
X1527290Y-642802D01*
X1583181Y-611307D02*
G01*
X1583181Y-642802D01*
X1570983Y-655000D02*
G01*
X1539486Y-655000D01*
X1978109Y-1580239D02*
G01*
X1741890Y-1580239D01*
X1741890Y-1403069D01*
X1978109Y-1403069D01*
X1978109Y-1580239D01*
D47*
G75*
G01*
X1961496Y-1003621D02*
G03*
X1967405Y-997712I0J5909D01*
G75*
G01*
X1961496Y-956375D02*
G02*
X1967405Y-962284I0J-5909D01*
G75*
G01*
X1898504Y-1003621D02*
G02*
X1892600Y-997717I0J5904D01*
G75*
G01*
X1898504Y-956375D02*
G03*
X1892600Y-962279I0J-5904D01*
G75*
G01*
X1236379Y-621496D02*
G03*
X1242288Y-627405I5909J0D01*
G75*
G01*
X1283625Y-621496D02*
G02*
X1277716Y-627405I-5909J0D01*
G75*
G01*
X1236379Y-558504D02*
G02*
X1242283Y-552600I5904J0D01*
G75*
G01*
X1283625Y-558504D02*
G03*
X1277721Y-552600I-5904J0D01*
G75*
G01*
X1136379Y-621496D02*
G03*
X1142288Y-627405I5909J0D01*
G75*
G01*
X1183625Y-621496D02*
G02*
X1177716Y-627405I-5909J0D01*
G75*
G01*
X1136379Y-558504D02*
G02*
X1142283Y-552600I5904J0D01*
G75*
G01*
X1183625Y-558504D02*
G03*
X1177721Y-552600I-5904J0D01*
D51*
G75*
G01*
X536310Y-238470D02*
G03*
X536310Y-228470I0J5000D01*
G75*
G01*
X536310Y-228470D02*
G03*
X536310Y-238470I0J-5000D01*
D47*
G75*
G01*
X1006496Y-523621D02*
G03*
X1012405Y-517712I0J5909D01*
G75*
G01*
X1006496Y-476375D02*
G02*
X1012405Y-482284I0J-5909D01*
G75*
G01*
X943504Y-523621D02*
G02*
X937600Y-517717I0J5904D01*
G75*
G01*
X943504Y-476375D02*
G03*
X937600Y-482279I0J-5904D01*
G75*
G01*
X868621Y-228504D02*
G03*
X862712Y-222595I-5909J0D01*
G75*
G01*
X821375Y-228504D02*
G02*
X827284Y-222595I5909J0D01*
G75*
G01*
X868621Y-291496D02*
G02*
X862717Y-297400I-5904J0D01*
G75*
G01*
X821375Y-291496D02*
G03*
X827279Y-297400I5904J0D01*
G75*
G01*
X688504Y-111379D02*
G03*
X682595Y-117288I0J-5909D01*
G75*
G01*
X688504Y-158625D02*
G02*
X682595Y-152716I0J5909D01*
G75*
G01*
X751496Y-111379D02*
G02*
X757400Y-117283I0J-5904D01*
G75*
G01*
X751496Y-158625D02*
G03*
X757400Y-152721I0J5904D01*
D10*
G75*
G01*
X2126213Y-1194940D02*
G02*
X2138411Y-1207138I0J-12198D01*
G75*
G01*
X2082519Y-1207138D02*
G02*
X2094717Y-1194940I12198J0D01*
G75*
G01*
X2138182Y-1292802D02*
G02*
X2125984Y-1305000I-12198J0D01*
G75*
G01*
X2094488Y-1305000D02*
G02*
X2082290Y-1292802I0J12198D01*
G75*
G01*
X1571213Y-544940D02*
G02*
X1583411Y-557138I0J-12198D01*
G75*
G01*
X1527519Y-557138D02*
G02*
X1539717Y-544940I12198J0D01*
G75*
G01*
X1583182Y-642802D02*
G02*
X1570984Y-655000I-12198J0D01*
G75*
G01*
X1539488Y-655000D02*
G02*
X1527290Y-642802I0J12198D01*
D52*
G75*
G01*
X951375Y-793900D02*
G03*
X948765Y-652380I-102364J68896D01*
D10*
G75*
G01
X1971300Y-195200D02*
G03X1971300Y-195200I-15000J0D01*
G75*
G01
X2185010Y-1170000D02*
G03X2185010Y-1170000I-5000J0D01*
G75*
G01
X2186290Y-350000D02*
G03X2186290Y-350000I-36300J0D01*
G75*
G01
X2109070Y-294880D02*
G03X2109070Y-294880I-14200J0D01*
G75*
G01
X2109070Y-405120D02*
G03X2109070Y-405120I-14200J0D01*
G75*
G01
X2219310Y-405120D02*
G03X2219310Y-405120I-14200J0D01*
G75*
G01
X2219310Y-294880D02*
G03X2219310Y-294880I-14200J0D01*
G75*
G01
X2186290Y0D02*
G03X2186290Y0I-36300J0D01*
G75*
G01
X2109070Y55120D02*
G03X2109070Y55120I-14200J0D01*
G75*
G01
X2109070Y-55120D02*
G03X2109070Y-55120I-14200J0D01*
G75*
G01
X2219310Y-55120D02*
G03X2219310Y-55120I-14200J0D01*
G75*
G01
X2219310Y55120D02*
G03X2219310Y55120I-14200J0D01*
G75*
G01
X1890000Y-919990D02*
G03X1890000Y-919990I-5000J0D01*
G75*
G01
X1050010Y164370D02*
G03X1050010Y164370I-5000J0D01*
G75*
G01
X2062070Y-1425000D02*
G03X2062070Y-1425000I-7070J0D01*
G75*
G01
X1784140Y-1430000D02*
G03X1784140Y-1430000I-14140J0D01*
M02*
