M48
INCH,LZ
;FILE_FORMAT=2:4
;TYPE=PLATED
;Layer: Drill PTH
;EasyEDA v6.4.17, 2021-03-03T10:10:01+01:00
;9d4de0552c0a465fbb9a068f9b96be7d,b771c775d4444e86a06a5321f8c966cb,10
;Gerber Generator version 0.2
;Holesize 1 = 0.0120 inch
T01C0.0120
;Holesize 2 = 0.0180 inch
T02C0.0180
;Holesize 3 = 0.0240 inch
T03C0.0240
;Holesize 4 = 0.0280 inch
T04C0.0280
;Holesize 5 = 0.0320 inch
T05C0.0320
;Holesize 6 = 0.0350 inch
T06C0.0350
;Holesize 7 = 0.0390 inch
T07C0.0390
%
G05
G90
T01
X012600Y-006500
X011600Y-006500
X008750Y-003050
X007850Y-004700
X008100Y-001950
X008600Y-002050
X009300Y-003050
X010500Y-004000
X007400Y-000900
X005650Y-001600
X006250Y000600
X008200Y001300
X008750Y-000550
X019850Y-008400
X021400Y-014950
X023550Y-011050
X022250Y-012000
X021550Y-011300
X009850Y001100
X015800Y001150
X015900Y-000350
X015900Y-000850
X016550Y-002850
X018500Y-002150
X012850Y-003450
X013350Y-003450
X011041Y-000838
X010400Y-003050
X008700Y-004950
X009500Y-000900
X005750Y-005600
X007900Y-001350
X005250Y-003100
X011450Y001150
X004950Y-002750
X012250Y-002400
X017400Y-011600
X012250Y-002050
X017100Y-010350
X017550Y-009550
X022200Y-013800
X021800Y-013800
X011750Y000950
T02
X014350Y-003500
X014350Y-004650
X020000Y-001500
X020000Y-001000
X022600Y001350
X022550Y-004850
X011450Y-002350
X011450Y-002850
X023550Y-002500
X023550Y-001100
T03
X010550Y-004700
X008450Y-004400
X015550Y-005100
X015600Y-007050
X020000Y-009800
X021100Y-015400
X022500Y-015400
X021100Y-011650
T04
X023665Y-005922G85X023389Y-005922
X023665Y-008678G85X023389Y-008678
T05
X004757Y-014071G85X004757Y-014069
X016453Y-014071G85X016453Y-014069
X004757Y-013071G85X004757Y-013069
X016453Y-013071G85X016453Y-013069
X004757Y-012071G85X004757Y-012069
X016453Y-012071G85X016453Y-012069
X004757Y-011071G85X004757Y-011069
X016453Y-011071G85X016453Y-011069
X004757Y-010071G85X004757Y-010069
T06
X022472Y-008284
X022472Y-006316
T07
X009022Y-007250G85X009022Y-007250
X005478Y-007250G85X005478Y-007250
X018994Y-014700
X018206Y-014700
M30
